<svg width="328" height="47" viewBox="0 0 328 47" fill="none" xmlns="http://www.w3.org/2000/svg">
<g clip-path="url(#clip0_7789_194)">
<path d="M37.2359 21.5427C37.989 22.2281 38.7421 22.8805 39.4559 23.5791C41.761 25.8592 43.1035 28.6072 43.2869 31.8693C43.5161 35.9617 41.9837 39.3687 39.063 42.1234C36.3387 44.6935 33.0185 46.1169 29.3513 46.6705C28.0219 46.8748 26.6598 46.9736 25.3107 46.9802C17.9958 47.0066 10.6875 46.9934 3.37261 46.9934C2.73739 46.9934 2.4165 46.6705 2.4165 46.0181C2.4165 43.9356 2.4165 41.8466 2.4165 39.7641C2.4165 39.0656 2.72429 38.7625 3.43155 38.7625C9.95404 38.7625 16.47 38.7625 22.9925 38.7427C24.4332 38.7427 25.9001 38.7559 27.3081 38.5055C29.2399 38.1628 30.9164 37.194 31.9314 35.4345C33.4966 32.7062 32.7631 29.8396 30.3139 27.9482C29.0959 27.0059 27.6682 26.65 26.1555 26.6171C25.5006 26.6039 25.1405 26.2744 25.1339 25.6022C25.1208 23.388 25.1274 21.1737 25.1339 18.9661C25.1339 18.5707 25.3762 18.3202 25.8412 18.1687C26.9282 17.826 27.9106 17.3054 28.7422 16.5014C30.7789 14.5442 30.3336 11.895 28.7881 10.2211C27.57 8.89651 26.018 8.23751 24.2105 8.2441C20.6022 8.25069 17.0004 8.27046 13.3921 8.27046C10.0654 8.27046 6.74519 8.27046 3.41845 8.26387C2.70465 8.26387 2.42305 7.97391 2.42305 7.25559C2.42305 5.17315 2.42305 3.08411 2.42305 1.00167C2.42305 0.336077 2.74394 0.0131663 3.4119 0.0131663C10.5434 0.0131663 17.6815 -0.0263738 24.813 0.0263464C28.8339 0.0592964 32.5798 1.12029 35.7559 3.70358C37.989 5.51583 39.6393 7.76962 40.3793 10.6231C41.2961 14.1422 40.5626 17.312 38.3885 20.172C38.0348 20.6399 37.6354 21.0749 37.2424 21.5427H37.2359Z" fill="#244E93"/>
<path d="M12.2917 26.2085C12.2721 26.3535 12.2328 26.4984 12.2262 26.6434C12.2197 27.2102 12.2262 27.7769 12.2131 28.3437C12.2131 28.7918 12.0167 29.0356 11.6761 29.0488C11.3487 29.0554 11.1195 28.7984 11.1064 28.3634C11.0933 27.7242 11.1064 27.0784 11.1064 26.4325C11.1064 26.3601 11.0868 26.2876 11.0606 26.1492C10.5563 26.4853 10.3402 26.9532 10.3009 27.4804C10.2747 27.8033 10.3468 28.146 10.4253 28.4623C10.6414 29.319 10.8837 30.1691 11.113 31.0258C11.1457 31.1576 11.1588 31.3026 11.1588 31.4476C11.1588 31.7507 11.0082 32.0011 10.7135 32.0275C10.5039 32.0472 10.2616 31.9352 10.0848 31.81C9.96693 31.7309 9.91454 31.5332 9.8687 31.3751C9.70498 30.8083 9.56091 30.235 9.41029 29.6682C9.371 29.5101 9.31206 29.3585 9.24003 29.1476C8.65719 29.945 8.11365 30.6633 8.61135 31.6716C8.72923 31.9089 8.76197 32.1856 8.81436 32.4492C8.89295 32.8446 8.65719 33.2005 8.29047 33.2466C7.89754 33.2993 7.58976 33.0292 7.55701 32.5942C7.55701 32.5217 7.53737 32.4492 7.51117 32.2713C7.37365 32.4097 7.26887 32.4888 7.20338 32.5876C7.02002 32.8842 6.86285 33.1939 6.67949 33.4839C6.45028 33.8529 6.1163 33.9518 5.80196 33.7738C5.48108 33.5893 5.40249 33.2664 5.61205 32.871C5.80851 32.502 6.01807 32.1461 6.25382 31.7309C6.01152 31.7573 5.85435 31.7902 5.69064 31.7902C5.28462 31.8034 5.06851 31.6321 5.00957 31.2696C4.95064 30.9269 5.11435 30.6502 5.47453 30.5315C5.84781 30.4129 6.22763 30.2943 6.62055 30.2218C7.06586 30.1427 7.354 29.9055 7.55046 29.5101C7.70763 29.2069 7.891 28.9104 8.1071 28.5282C7.91064 28.5545 7.79277 28.5545 7.68144 28.5875C7.09861 28.7391 6.52232 28.9038 5.93949 29.0356C5.73648 29.0817 5.46798 29.1081 5.31736 29.0092C5.1471 28.8972 4.99648 28.6402 4.97028 28.4293C4.93099 28.113 5.18639 27.9153 5.47453 27.8362C6.16214 27.6319 6.84976 27.454 7.53737 27.2695C7.83206 27.1904 8.12675 27.085 8.42799 27.0322C9.30551 26.8873 9.46923 26.1228 9.82286 25.5231C9.80321 25.4902 9.78357 25.4638 9.75737 25.4309C9.58056 25.5099 9.40374 25.5824 9.23348 25.6813C8.76197 25.9449 8.30356 26.2217 7.83206 26.4787C7.46533 26.6764 7.15754 26.5973 7.00037 26.3073C6.84975 26.024 6.96108 25.7076 7.30816 25.4968C7.79931 25.2002 8.30356 24.9234 8.80126 24.6269C8.93224 24.5478 9.05011 24.4358 9.14834 24.2974C8.40834 24.2051 7.68799 24.0601 7.08551 24.706C6.3979 25.4506 5.67099 26.1558 4.95718 26.8741C4.61665 27.2168 4.23683 27.2497 3.94869 26.9795C3.654 26.7027 3.68674 26.3337 4.04037 25.9712C4.48568 25.5099 4.94409 25.0618 5.3894 24.6005C5.48108 24.5017 5.56621 24.3962 5.72338 24.2183C5.11435 24.2183 4.59701 24.2051 4.08621 24.2315C3.95524 24.2381 3.81771 24.3699 3.71293 24.4687C3.37895 24.785 3.06461 25.1277 2.72408 25.4375C2.3639 25.7735 2.01682 25.7867 1.74178 25.5034C1.47983 25.2398 1.49948 24.9037 1.79417 24.5412C1.85966 24.4621 1.91859 24.3831 2.06266 24.2051C1.65665 24.2051 1.33576 24.2051 1.01487 24.2051C0.824962 24.2051 0.628502 24.2051 0.445139 24.1524C0.143899 24.0667 -0.0329156 23.8361 -0.00672086 23.5198C0.0194739 23.1639 0.274873 22.9728 0.615404 22.953C1.03452 22.9332 1.45364 22.953 1.96443 22.953C1.85966 22.808 1.80727 22.7158 1.74178 22.6367C1.44054 22.2545 1.43399 21.8986 1.72213 21.6416C2.00373 21.3912 2.3639 21.4307 2.70444 21.7602C2.99258 22.037 3.27417 22.3138 3.54267 22.6037C3.77842 22.8542 4.05347 22.9662 4.394 22.9596C4.78692 22.9464 5.17984 22.9596 5.67754 22.9596C5.53347 22.7883 5.45488 22.6828 5.3632 22.5906C4.93099 22.149 4.49223 21.7207 4.07311 21.2726C3.72603 20.9035 3.71293 20.5872 4.00108 20.2907C4.27612 20.0139 4.59046 20.0073 4.94409 20.3434C5.67099 21.0485 6.40444 21.747 7.08551 22.4983C7.66834 23.1441 8.35595 22.9794 9.08941 22.841C8.96498 22.7487 8.85365 22.6433 8.71613 22.5642C8.23153 22.2742 7.74038 22.0106 7.26232 21.7075C6.87595 21.4571 6.82356 21.0485 7.11825 20.7717C7.36055 20.5477 7.6225 20.6333 7.8648 20.7717C8.34286 21.0419 8.81436 21.3319 9.29242 21.6021C9.46268 21.6943 9.65914 21.747 9.84251 21.8195C9.86215 21.7866 9.87525 21.7536 9.89489 21.7207C9.67879 21.3582 9.49543 20.9826 9.24657 20.6465C9.12215 20.4818 8.89295 20.3566 8.68339 20.2907C7.68144 19.9941 6.66639 19.7305 5.65789 19.4471C5.50073 19.401 5.33701 19.3549 5.19949 19.2692C4.90479 19.0847 4.77382 18.8277 4.93099 18.485C5.08161 18.1489 5.3632 18.0435 5.69064 18.1225C6.3717 18.2873 7.04622 18.4784 7.72728 18.6629C7.83206 18.6893 7.94339 18.709 8.1333 18.6629C7.8517 18.1884 7.60285 17.6876 7.26232 17.2658C7.1117 17.0813 6.75152 17.0681 6.48958 16.9891C6.19489 16.9034 5.89365 16.8375 5.6055 16.7452C5.19294 16.6134 4.97028 16.3169 5.04232 15.994C5.12745 15.6051 5.44179 15.414 5.89365 15.4799C6.01807 15.4997 6.13595 15.5195 6.33896 15.559C6.09666 15.1175 5.89365 14.7353 5.68409 14.3596C5.52037 14.0565 5.50727 13.7731 5.78232 13.5227C6.07701 13.2591 6.49613 13.3316 6.73188 13.7006C6.95453 14.0565 7.15754 14.4255 7.40639 14.8473C7.47188 14.6825 7.51772 14.5771 7.56356 14.4651C7.72728 14.0631 8.03507 13.872 8.35595 13.9642C8.73578 14.0763 8.91259 14.4058 8.80126 14.8539C8.69648 15.2756 8.53932 15.6908 8.47383 16.1192C8.43454 16.3762 8.48693 16.6727 8.59171 16.91C8.76197 17.2922 9.00427 17.6415 9.27277 18.1028C9.39065 17.6876 9.48888 17.3515 9.58056 17.022C9.69189 16.6134 9.79666 16.2048 9.92109 15.7963C10.0455 15.3745 10.3533 15.19 10.7266 15.2954C11.1064 15.4009 11.2636 15.6974 11.1457 16.1455C10.9099 17.0615 10.6873 17.9907 10.4122 18.8936C10.2289 19.4933 10.2485 20.0205 10.648 20.5213C10.779 20.6861 10.8707 20.8838 11.0737 21.0485C11.0933 20.8574 11.1326 20.6597 11.1391 20.4686C11.1457 19.9282 11.1391 19.3878 11.1457 18.8474C11.1588 18.4125 11.3487 18.2148 11.7089 18.2214C12.0429 18.228 12.2197 18.4389 12.2262 18.8474C12.2328 19.3746 12.2262 19.9018 12.2393 20.429C12.2393 20.6333 12.2721 20.831 12.2852 21.0353C12.3179 21.0485 12.3507 21.0617 12.3834 21.0749C12.5668 20.7783 12.7239 20.462 12.9466 20.1984C13.2216 19.8689 13.1299 19.546 13.0383 19.1901C12.7567 18.1489 12.4882 17.1077 12.2262 16.0599C12.1149 15.5986 12.2917 15.2822 12.6781 15.19C13.0186 15.1109 13.3395 15.3284 13.4639 15.7501C13.68 16.5146 13.883 17.279 14.145 18.05C14.4593 17.3713 15.2386 16.8836 14.8653 15.9544C14.7344 15.6249 14.6754 15.2625 14.5838 14.9132C14.4724 14.4651 14.6361 14.1158 15.0029 14.0104C15.3369 13.9115 15.6577 14.1158 15.8215 14.531C15.8608 14.6364 15.9 14.7419 15.9786 14.9396C16.2406 14.5112 16.4567 14.1488 16.6793 13.7797C16.8431 13.5095 17.0592 13.3184 17.3997 13.3975C17.8057 13.4963 17.976 13.9049 17.7861 14.3135C17.6944 14.5112 17.5765 14.6957 17.4717 14.8868C17.3669 15.0714 17.2556 15.2559 17.105 15.5129C17.3277 15.4865 17.4783 15.4602 17.6354 15.447C18.0153 15.4206 18.2903 15.6051 18.3558 15.9281C18.4278 16.2707 18.2838 16.5541 17.917 16.6793C17.5176 16.8177 17.1115 16.9363 16.699 17.022C16.3061 17.1011 16.0376 17.3054 15.8542 17.6678C15.6905 17.9973 15.4875 18.3071 15.2583 18.709C15.4809 18.6761 15.6119 18.6695 15.7429 18.6366C16.2995 18.4982 16.8496 18.34 17.4128 18.2016C17.5569 18.1687 17.714 18.1489 17.8646 18.1621C18.1528 18.1884 18.3362 18.3598 18.4016 18.6366C18.4737 18.9199 18.3558 19.1638 18.1004 19.2824C17.7795 19.4274 17.4324 19.5394 17.0919 19.6316C16.3519 19.8359 15.6119 20.0336 14.8719 20.2116C14.4724 20.3104 14.1777 20.5081 13.9944 20.8838C13.8503 21.1671 13.6931 21.4373 13.6015 21.7932C13.7193 21.747 13.8438 21.7141 13.9551 21.6548C14.4659 21.3648 14.9767 21.0683 15.4875 20.7849C15.8935 20.5608 16.162 20.6136 16.3519 20.9233C16.5353 21.2198 16.437 21.5098 16.0441 21.747C15.553 22.0436 15.0487 22.3204 14.551 22.6169C14.4266 22.6894 14.3153 22.7949 14.1777 22.8937C14.7671 23.1705 15.7232 23.0387 16.1423 22.6235C16.8561 21.9184 17.5503 21.2067 18.2576 20.4949C18.3493 20.4027 18.4344 20.3104 18.5326 20.2313C18.8339 19.9941 19.2268 20.0205 19.4625 20.2907C19.659 20.5081 19.6524 20.9167 19.4167 21.1671C18.9386 21.668 18.4409 22.1556 17.9563 22.6433C17.8712 22.729 17.7861 22.8278 17.6878 22.9332C18.7815 23.0914 19.3839 23.243 20.1108 22.3138C20.2877 22.0831 20.5169 21.8854 20.7395 21.6943C21.0277 21.4505 21.3944 21.4834 21.6367 21.7339C21.8659 21.9711 21.8593 22.3138 21.6367 22.6103C21.5516 22.7158 21.4599 22.8212 21.2765 23.0255C21.8004 23.0255 22.2064 23.0255 22.619 23.0255C22.9202 23.0255 23.1822 23.1309 23.3132 23.4209C23.4965 23.8295 23.2084 24.2513 22.7303 24.2776C22.3112 24.2974 21.8921 24.2776 21.3682 24.2776C21.5123 24.4621 21.5974 24.561 21.676 24.6664C21.9183 24.9827 21.9117 25.3188 21.6498 25.5693C21.3747 25.8263 21.0604 25.846 20.7592 25.5693C20.4645 25.3057 20.1894 25.0157 19.9144 24.7257C19.6131 24.4028 19.2661 24.2447 18.8208 24.271C18.4671 24.2908 18.1135 24.271 17.642 24.271C17.8712 24.5214 18.0284 24.6928 18.1921 24.8641C18.5523 25.2266 18.919 25.589 19.2792 25.9581C19.5804 26.2678 19.6066 26.6632 19.3708 26.9268C19.1024 27.2233 18.7356 27.2299 18.3885 26.8938C17.7271 26.2546 17.033 25.6286 16.4436 24.9234C15.8149 24.159 15.0422 24.2315 14.1057 24.3237C14.2891 24.4621 14.3873 24.5478 14.4986 24.6137C15.0029 24.9168 15.5202 25.2068 16.0245 25.5099C16.4174 25.7472 16.5091 26.0174 16.3257 26.3337C16.1358 26.6566 15.8738 26.7093 15.4678 26.4853C15.0094 26.2283 14.5641 25.9581 14.1057 25.6945C13.9354 25.5956 13.7521 25.5099 13.5556 25.4111C13.5818 26.0767 14.1777 26.8477 14.754 27.0059C15.7167 27.2695 16.6728 27.5265 17.6354 27.7901C17.7795 27.8296 17.9367 27.8692 18.0677 27.9417C18.3558 28.0998 18.5654 28.3107 18.4409 28.6863C18.3296 29.0356 18.0349 29.2201 17.6616 29.1345C17.0133 28.9895 16.3715 28.8181 15.7298 28.66C15.5988 28.627 15.4613 28.6138 15.3172 28.5941C15.3761 29.1938 16.031 30.0439 16.5484 30.1889C16.9413 30.3009 17.3408 30.3997 17.7271 30.5249C18.1659 30.6633 18.3754 30.9335 18.3165 31.2564C18.2576 31.5794 17.976 31.7771 17.5307 31.7902C17.38 31.7902 17.236 31.7573 17.0133 31.7309C17.1967 32.067 17.3604 32.3504 17.511 32.6403C17.5962 32.7985 17.6813 32.9633 17.714 33.1346C17.773 33.4246 17.7599 33.7079 17.439 33.8595C17.1377 33.9979 16.8169 33.8924 16.6138 33.5761C16.4436 33.3059 16.293 33.0226 16.1292 32.7458C16.0769 32.6601 16.0114 32.5876 15.9262 32.4756C15.8477 32.6667 15.7953 32.8249 15.7167 32.9633C15.553 33.2466 15.3238 33.4048 14.9832 33.3059C14.6427 33.2005 14.4593 32.9633 14.5248 32.6074C14.6034 32.179 14.7082 31.7573 14.8392 31.3421C14.9636 30.9467 14.9177 30.5908 14.7016 30.2416C14.5052 29.9318 14.3284 29.6089 14.0861 29.1872C13.9682 29.5628 13.883 29.8198 13.811 30.0834C13.68 30.5513 13.5622 31.0258 13.4246 31.4937C13.3068 31.8957 12.9924 32.0868 12.6519 31.9945C12.2852 31.8957 12.0953 31.5925 12.2 31.1905C12.4554 30.1559 12.7239 29.1279 13.0121 28.0998C13.1234 27.6978 13.0841 27.3486 12.8615 26.9993C12.6977 26.7423 12.5537 26.4787 12.3965 26.2151C12.3572 26.2151 12.3179 26.2151 12.2852 26.2217L12.2917 26.2085Z" fill="#244E93"/>
<path d="M66.4824 35.2434C65.487 35.2434 64.9238 34.6767 64.9238 33.642V13.1866C64.9238 12.1849 65.487 11.6182 66.4431 11.6182C67.3992 11.6182 68.0017 12.1849 68.0017 13.1866V32.5744H78.532C79.4226 32.5744 79.9203 33.0423 79.9203 33.8727C79.9203 34.703 79.4226 35.2368 78.532 35.2368H66.4824V35.2434Z" fill="#244E93"/>
<path d="M94.1245 23.4802C94.1245 16.0862 98.296 11.4535 104.949 11.4535C111.603 11.4535 115.742 16.0862 115.742 23.4473C115.742 30.8083 111.537 35.54 104.949 35.54C98.3615 35.54 94.1245 30.8413 94.1245 23.4802ZM112.533 23.4802C112.533 17.5492 109.782 14.1883 104.949 14.1883C100.117 14.1883 97.3661 17.5888 97.3661 23.4802C97.3661 29.3717 100.149 32.8051 104.949 32.8051C109.75 32.8051 112.533 29.3717 112.533 23.4802Z" fill="#244E93"/>
<path d="M132.801 23.5198C132.801 16.0928 137.005 11.4601 144.123 11.4601C146.835 11.4601 149.487 12.1586 151.602 13.7929C152.99 14.7617 151.7 17.0879 150.181 16.0928C148.393 14.7617 146.474 14.2279 144.123 14.2279C138.858 14.2279 136.049 17.5954 136.049 23.5198C136.049 29.4442 138.898 32.8117 144.523 32.8117C146.311 32.8117 148.099 32.5086 149.723 31.9484V25.3189H145.224C144.399 25.3189 143.934 24.851 143.934 24.0865C143.934 23.3221 144.399 22.9201 145.224 22.9201H151.085C151.877 22.9201 152.375 23.388 152.375 24.2183V32.7788C152.375 33.5103 152.113 34.0111 151.517 34.2417C149.664 35.0062 146.88 35.54 144.431 35.54C136.887 35.54 132.814 30.9731 132.814 23.5132L132.801 23.5198Z" fill="#244E93"/>
<path d="M170.94 33.8793V13.1273C170.94 12.0927 171.504 11.5259 172.46 11.5259C173.416 11.5259 174.018 12.0927 174.018 13.1273V33.8793C174.018 34.9139 173.488 35.4807 172.46 35.4807C171.497 35.4807 170.94 34.9139 170.94 33.8793Z" fill="#244E93"/>
<path d="M192.328 33.3125C190.802 32.2779 191.929 29.8792 193.52 30.9138C195.504 32.2779 197.692 32.8776 200.403 32.8776C204.24 32.8776 206.061 31.3092 206.061 29.0159C206.061 27.1179 204.836 26.1163 201.726 25.4836L198.216 24.7521C194.044 23.8888 192.027 21.8855 192.027 18.4587C192.027 14.2608 195.57 11.4601 200.665 11.4601C203.415 11.4601 205.864 12.1915 207.783 13.6941C209.139 14.7287 208.084 16.9561 206.395 15.8951C204.64 14.6628 202.819 14.129 200.632 14.129C197.253 14.129 195.105 15.8292 195.105 18.3598C195.105 20.3895 196.264 21.4901 199.145 22.0898L202.623 22.7883C207.024 23.7175 209.145 25.5495 209.145 28.8182C209.145 32.8183 205.799 35.5466 200.403 35.5466C197.292 35.5466 194.378 34.7821 192.328 33.3125Z" fill="#244E93"/>
<path d="M231.562 33.8793V14.3926H224.312C223.454 14.3926 222.957 13.8918 222.957 13.0614C222.957 12.2311 223.454 11.7632 224.312 11.7632H241.889C242.747 11.7632 243.244 12.2311 243.244 13.0614C243.244 13.8918 242.747 14.3926 241.889 14.3926H234.639V33.8793C234.639 34.9139 234.109 35.4807 233.12 35.4807C232.131 35.4807 231.562 34.9139 231.562 33.8793Z" fill="#244E93"/>
<path d="M259.105 33.8793V13.1273C259.105 12.0927 259.669 11.5259 260.625 11.5259C261.581 11.5259 262.183 12.0927 262.183 13.1273V33.8793C262.183 34.9139 261.653 35.4807 260.625 35.4807C259.662 35.4807 259.105 34.9139 259.105 33.8793Z" fill="#244E93"/>
<path d="M280.061 23.4802C280.061 16.0862 284.2 11.4535 291.181 11.4535C293.859 11.4535 296.413 12.2509 298.168 13.6216C299.89 14.821 298.469 17.2197 296.714 15.9874C295.156 14.788 293.335 14.2542 291.253 14.2542C286.119 14.2542 283.342 17.5822 283.342 23.4802C283.342 29.3783 286.125 32.7392 291.253 32.7392C293.335 32.7392 295.228 32.1725 296.813 30.9731C298.568 29.7737 299.825 32.0736 298.332 33.2071C296.479 34.736 293.931 35.54 291.181 35.54C284.193 35.54 280.061 30.9072 280.061 23.4802Z" fill="#244E93"/>
</g>
<path d="M310.723 33.8525C309.197 32.8179 310.323 30.4191 311.915 31.4537C313.899 32.8179 316.086 33.4176 318.797 33.4176C322.635 33.4176 324.455 31.8491 324.455 29.5558C324.455 27.6579 323.231 26.6562 320.12 26.0236L316.61 25.2921C312.439 24.4288 310.422 22.4254 310.422 18.9986C310.422 14.8008 313.964 12 319.059 12C321.81 12 324.259 12.7315 326.178 14.234C327.533 15.2686 326.479 17.4961 324.789 16.4351C323.034 15.2027 321.214 14.669 319.027 14.669C315.647 14.669 313.499 16.3692 313.499 18.8997C313.499 20.9295 314.659 22.03 317.54 22.6297L321.017 23.3282C325.418 24.2574 327.54 26.0895 327.54 29.3581C327.54 33.3582 324.193 36.0865 318.797 36.0865C315.687 36.0865 312.773 35.3221 310.723 33.8525Z" fill="#244E93"/>
<defs>
<clipPath id="clip0_7789_194">
<rect width="299" height="47" fill="white"/>
</clipPath>
</defs>
</svg>
