<svg width="18" height="18" viewBox="0 0 18 18" fill="none" xmlns="http://www.w3.org/2000/svg">
<path d="M5.94412 17.0355C5.87708 17.0355 5.8112 17.0179 5.75302 16.9846C5.69483 16.9513 5.64637 16.9034 5.61243 16.8456C4.17478 14.3963 0.343818 9.18359 0.30528 9.13121C0.250543 9.05681 0.224409 8.96519 0.231655 8.87311C0.2389 8.78103 0.279041 8.69463 0.344741 8.62971L1.52236 7.46605C1.58633 7.40283 1.67045 7.36403 1.76007 7.3564C1.84969 7.34877 1.93915 7.37279 2.01289 7.42428L5.86393 10.1134C8.42424 6.82428 10.8035 4.5544 12.3674 3.21694C14.1203 1.71759 15.2347 1.04386 15.2813 1.01578C15.3411 0.979899 15.4095 0.960941 15.4792 0.960938H17.3843C17.4623 0.960925 17.5384 0.984613 17.6026 1.02886C17.6668 1.07311 17.7161 1.13583 17.7438 1.2087C17.7716 1.28157 17.7765 1.36116 17.758 1.4369C17.7395 1.51265 17.6984 1.58097 17.6401 1.63282C14.8159 4.14821 11.8795 8.14486 9.91366 11.0546C7.77663 14.2174 6.29309 16.8153 6.27836 16.8412C6.24496 16.8998 6.19673 16.9486 6.13851 16.9827C6.08029 17.0168 6.01413 17.035 5.94666 17.0354L5.94412 17.0355Z" fill="#244E93"/>
</svg>
