<svg width="90" height="88" viewBox="0 0 90 88" fill="none" xmlns="http://www.w3.org/2000/svg">
<path d="M17.5946 43.8709C17.5946 45.3318 18.7764 46.5205 20.2292 46.5205H26.0351C27.488 46.5205 28.6697 45.3318 28.6697 43.8709V42.4994C30.089 42.0878 31.455 41.5196 32.7484 40.8033L33.7111 41.7714C34.7342 42.8 36.4044 42.8017 37.437 41.7714L41.5421 37.6429C42.5651 36.6141 42.5664 34.9345 41.5409 33.8945L40.5764 32.9276C41.29 31.6292 41.8561 30.2554 42.2662 28.8257H43.6299C45.0799 28.8257 46.2595 27.6371 46.2595 26.1762V20.3373C46.2595 18.8791 45.0801 17.6928 43.6299 17.6928H42.2662C41.8552 16.2583 41.2889 14.8837 40.5763 13.5891L41.5421 12.6176C42.5678 11.5859 42.5678 9.9073 41.5421 8.87559L37.437 4.74732C36.9385 4.24592 36.2765 3.9699 35.5724 3.9699H35.5671C34.8633 3.97134 34.203 4.24844 33.7111 4.74732L32.7484 5.71528C31.455 4.9991 30.0888 4.43089 28.6697 4.01911V2.64763C28.6697 1.18671 27.488 -0.00195312 26.0351 -0.00195312H20.2292C18.7764 -0.00195312 17.5946 1.18671 17.5946 2.64763V4.01911C16.1755 4.43089 14.8093 4.99892 13.516 5.71528L12.5565 4.75037C12.0615 4.24862 11.4012 3.97134 10.6974 3.9699H10.6921C9.988 3.9699 9.32605 4.24592 8.82749 4.74732L4.7224 8.87577C3.69671 9.90748 3.69671 11.586 4.7224 12.6178L5.68809 13.5891C4.97418 14.8855 4.40812 16.2601 3.99777 17.6928H2.63459C1.18176 17.6928 0 18.8791 0 20.3373V26.1762C0 27.6372 1.18176 28.8257 2.63459 28.8257H3.99831C4.40848 30.2552 4.97453 31.6292 5.68809 32.9276L4.71918 33.899C3.69795 34.9346 3.69938 36.6141 4.72311 37.644L8.83052 41.7744C9.85996 42.8013 11.5299 42.8002 12.5535 41.7714L13.5161 40.8034C14.8095 41.5198 16.1755 42.0878 17.5948 42.4996L17.5946 43.8709ZM13.8959 38.5371C13.7236 38.432 13.5315 38.3807 13.3406 38.3807C13.0638 38.3807 12.7897 38.4884 12.5833 38.696L11.0394 40.2485C10.8476 40.4412 10.533 40.44 10.3423 40.2494L6.23629 36.1201C6.04469 35.9274 6.04612 35.6111 6.23504 35.4193L7.78394 33.8666C8.13447 33.5152 8.19982 32.9682 7.94197 32.5433C6.9936 30.9804 6.29379 29.2817 5.86166 27.4945C5.74505 27.0119 5.31524 26.6722 4.8215 26.6722H2.63476C2.36727 26.6722 2.1412 26.4448 2.1412 26.1758V20.337C2.1412 20.0662 2.36263 19.8456 2.63476 19.8456H4.8215C5.3156 19.8456 5.74559 19.5055 5.86184 19.0226C6.29379 17.2314 6.99342 15.5333 7.94143 13.9758C8.19964 13.5514 8.13518 13.0042 7.78537 12.6524L6.23647 11.0949C6.04862 10.906 6.04862 10.5867 6.23647 10.3979L10.3416 6.26947C10.4683 6.14215 10.6153 6.12293 10.6924 6.12293C10.7701 6.12006 10.9132 6.14125 11.0396 6.26947L12.5835 7.82215C12.9324 8.17306 13.4743 8.23861 13.8961 7.98108C15.4554 7.02893 17.145 6.3264 18.9185 5.8927C19.3983 5.77526 19.736 5.34318 19.736 4.84645V2.64727C19.736 2.37358 19.9574 2.1509 20.2296 2.1509H26.0355C26.3075 2.1509 26.5291 2.37358 26.5291 2.64727V4.84645C26.5291 5.34318 26.8669 5.77526 27.3465 5.8927C29.1201 6.3264 30.8097 7.02911 32.3689 7.98108C32.7904 8.23861 33.3325 8.17306 33.6816 7.82215L35.2285 6.26642C35.3514 6.14179 35.4962 6.12293 35.5715 6.12293H35.5726C35.6498 6.12293 35.7967 6.14215 35.9235 6.26947L40.0286 10.3979C40.2164 10.5868 40.2164 10.906 40.0286 11.0949L38.4797 12.6526C38.1299 13.0044 38.0654 13.5516 38.3236 13.976C39.2697 15.5302 39.9693 17.2286 40.4032 19.0235C40.5198 19.5061 40.9496 19.8458 41.4434 19.8458H43.6301C43.8994 19.8458 44.1185 20.0664 44.1185 20.3372V26.176C44.1185 26.4497 43.8992 26.6723 43.6301 26.6723H41.4434C40.9495 26.6723 40.5198 27.0121 40.4032 27.4947C39.9711 29.2819 39.2711 30.9806 38.3229 32.5435C38.0651 32.9684 38.1304 33.5156 38.4809 33.8668L40.0254 35.4152C40.2188 35.6113 40.2202 35.9276 40.0286 36.1202L35.9265 40.2456C35.7314 40.4401 35.4169 40.4414 35.2253 40.2487L33.6814 38.696C33.3325 38.3451 32.7904 38.2796 32.3688 38.5371C30.8095 39.4892 29.1199 40.1919 27.3465 40.6255C26.8666 40.7427 26.5289 41.175 26.5289 41.6717V43.8709C26.5289 44.1399 26.3028 44.3673 26.0353 44.3673H20.2294C19.9619 44.3673 19.7358 44.1399 19.7358 43.8709V41.6717C19.7358 41.175 19.398 40.7429 18.9182 40.6255C17.1448 40.1918 15.455 39.4892 13.8959 38.5371ZM37.7504 23.2592C37.7504 15.154 31.1916 8.56006 23.1297 8.56006C15.0677 8.56006 8.51374 15.154 8.51374 23.2592C8.51374 31.3643 15.0704 37.9581 23.1297 37.9581C31.189 37.9581 37.7504 31.3642 37.7504 23.2592ZM10.6549 23.2592C10.6549 16.3414 16.2511 10.7135 23.1297 10.7135C30.0083 10.7135 35.6094 16.3414 35.6094 23.2592C35.6094 30.1769 30.011 35.8049 23.1297 35.8049C16.2484 35.8049 10.6549 30.1769 10.6549 23.2592ZM74.4812 44.7286C78.3819 44.7286 81.555 41.5372 81.555 37.6146C81.555 33.6919 78.3817 30.5005 74.4812 30.5005C70.5808 30.5005 67.4075 33.6919 67.4075 37.6146C67.4075 41.5372 70.5808 44.7286 74.4812 44.7286ZM74.4812 32.6537C77.201 32.6537 79.414 34.8791 79.414 37.6146C79.414 40.35 77.201 42.5754 74.4812 42.5754C71.7615 42.5754 69.5485 40.35 69.5485 37.6146C69.5485 34.8791 71.7615 32.6537 74.4812 32.6537ZM88.5366 46.4043C87.5951 45.4541 86.3424 44.9308 85.0098 44.9308C83.6771 44.9308 82.4243 45.4541 81.4843 46.4027L76.3094 51.6029L57.0654 32.245C55.1174 30.2922 51.9524 30.2928 50.01 32.2463L39.7232 42.5915C37.7815 44.5506 37.7822 47.7337 39.7245 49.6871C41.6668 51.6406 44.8317 51.641 46.7817 49.6869L53.3008 43.1254C53.4304 42.9951 53.6412 42.9951 53.7711 43.1254L56.375 45.7443L47.9097 54.258C46.7331 55.4411 46.0851 57.0188 46.0851 58.6999C46.0851 60.0148 46.4815 61.2661 47.2172 62.3151L30.1884 79.4359C29.247 80.3826 28.7283 81.6429 28.7283 82.9842C28.7283 84.3256 29.2469 85.5857 30.1897 86.5339C31.1636 87.5101 32.4413 87.998 33.7187 87.998C34.9962 87.998 36.2739 87.5096 37.2451 86.5326L54.7061 68.9722L58.0548 72.4247L54.7229 75.7758C52.7806 77.7291 52.7799 80.9122 54.7229 82.8726C56.6652 84.8259 59.8299 84.8264 61.7799 82.8724L68.6269 75.9812C69.5704 75.0353 70.0908 73.7768 70.0919 72.4377C70.0931 71.096 69.5733 69.8337 68.6262 68.8812L61.6933 61.9455L66.7148 56.8952C66.8482 56.7611 67.0066 56.7411 67.0891 56.7411C67.1716 56.7411 67.3301 56.7611 67.4635 56.8954L72.7834 62.2456C74.7259 64.1989 77.8908 64.1994 79.8402 62.2456L88.5349 53.4964C89.4797 52.5495 90 51.2897 90 49.9493C90 48.6089 89.4789 47.3487 88.5366 46.4043ZM87.0213 51.9723L78.3267 60.7216C77.2137 61.837 75.4059 61.8381 74.297 60.7229L68.9771 55.3727C68.4739 54.8665 67.8032 54.5876 67.0887 54.5876C66.3743 54.5876 65.7037 54.8663 65.2005 55.3725L59.42 61.186C59.2189 61.3882 59.106 61.6626 59.1064 61.9487C59.1067 62.2348 59.2203 62.5088 59.4219 62.7107L67.1139 70.4057C67.6541 70.9489 67.9512 71.6699 67.9507 72.4357C67.9499 73.1989 67.6533 73.9165 67.1135 74.4574L60.2665 81.3486C59.1537 82.4642 57.3461 82.4651 56.2379 81.3511C55.1283 80.2316 55.1277 78.4135 56.2366 77.2983L60.3164 73.1953C60.7308 72.7785 60.7349 72.1042 60.3258 71.6821L55.4818 66.6883C55.2818 66.4823 55.0083 66.3652 54.722 66.3634H54.7154C54.4315 66.3634 54.1594 66.4767 53.9585 66.6788L35.731 85.01C34.6223 86.1252 32.8146 86.1246 31.7023 85.01C30.5917 83.8929 30.5917 82.0756 31.7023 80.9585L49.4236 63.1415C49.6245 62.9397 49.7373 62.6658 49.7373 62.3802C49.7373 62.0947 49.6245 61.8208 49.4237 61.6188C48.6516 60.8423 48.2263 59.8056 48.2263 58.6997C48.2263 57.5938 48.6516 56.5571 49.4237 55.7805L58.646 46.5056C59.0641 46.0852 59.0642 45.4035 58.646 44.9829L55.2852 41.6028C54.8031 41.1177 54.1697 40.8753 53.5362 40.8753C52.9026 40.8753 52.269 41.1179 51.7865 41.6029L45.2687 48.1631C44.1556 49.2793 42.3476 49.2794 41.2387 48.1644C40.1298 47.0492 40.1304 45.2311 41.2387 44.1128L51.5244 33.7688C52.6333 32.6537 54.441 32.6543 55.5531 33.7688L75.5518 53.8865C75.9696 54.3071 76.6476 54.3074 77.0658 53.887L82.9996 47.9243C83.5368 47.3825 84.2507 47.084 85.0103 47.084C85.7699 47.084 86.4836 47.3825 87.0231 47.9268C87.562 48.4668 87.8588 49.185 87.8588 49.9487C87.8588 50.7125 87.5617 51.4307 87.0213 51.9723ZM17.2059 24.8564C17.0528 24.2821 17.3916 23.6916 17.9626 23.5377L22.2556 22.3801L23.7809 16.6579C23.9339 16.0835 24.5204 15.7429 25.0923 15.8966C25.6634 16.0505 26.0023 16.6412 25.8491 17.2153L24.1638 23.5379C24.0647 23.9093 23.7763 24.1995 23.407 24.299L18.5173 25.6175C18.4242 25.6426 18.331 25.6545 18.2392 25.6545C17.7668 25.6545 17.3343 25.3373 17.2059 24.8564ZM22.0793 13.8537C22.0668 13.7836 22.0597 13.7136 22.0597 13.6435C22.0597 13.5717 22.0668 13.5017 22.0793 13.4316C22.0936 13.3634 22.1151 13.2969 22.1418 13.2305C22.1686 13.1658 22.2008 13.103 22.2401 13.0455C22.2795 12.9863 22.3242 12.9306 22.3722 12.8821C22.4222 12.8318 22.4775 12.7869 22.5347 12.7474C22.5936 12.7097 22.6561 12.6756 22.7204 12.6486C22.7847 12.6217 22.8525 12.6002 22.9204 12.5876C23.2686 12.5158 23.6382 12.6307 23.8864 12.8821C23.9363 12.9306 23.9809 12.9863 24.0204 13.0455C24.0579 13.103 24.0916 13.1658 24.1186 13.2305C24.1452 13.2969 24.165 13.3634 24.1793 13.4316C24.1936 13.5017 24.2007 13.5717 24.2007 13.6435C24.2007 13.7136 24.1936 13.7836 24.1793 13.8537C24.165 13.9219 24.1454 13.9901 24.1186 14.0548C24.0918 14.1194 24.0579 14.1823 24.0204 14.2398C23.9809 14.299 23.9363 14.3547 23.8864 14.405C23.8364 14.4535 23.7829 14.4984 23.7239 14.5379C23.665 14.5774 23.6043 14.6097 23.5382 14.6366C23.474 14.6636 23.4079 14.6851 23.3382 14.6977C23.2704 14.7121 23.199 14.7192 23.1293 14.7192C23.0597 14.7192 22.99 14.7121 22.9204 14.6977C22.8525 14.6851 22.7847 14.6636 22.7204 14.6366C22.6561 14.6097 22.5936 14.5774 22.5347 14.5379C22.4775 14.4984 22.4222 14.4535 22.3722 14.405C22.324 14.3547 22.2793 14.299 22.2401 14.2398C22.2008 14.1823 22.1688 14.1194 22.1418 14.0548C22.1152 13.9901 22.0936 13.9219 22.0793 13.8537ZM26.8632 15.1413C26.8489 15.0712 26.8435 15.0012 26.8435 14.9312C26.8435 14.8611 26.8489 14.7893 26.8632 14.721C26.8775 14.651 26.8969 14.5846 26.9239 14.5181C26.9505 14.4535 26.9846 14.3906 27.0221 14.3331C27.0614 14.2739 27.106 14.2182 27.156 14.1697C27.3542 13.9686 27.631 13.8537 27.9131 13.8537C28.1953 13.8537 28.4703 13.9686 28.6703 14.1697C28.7185 14.2182 28.7647 14.2739 28.8022 14.3331C28.8417 14.3906 28.8737 14.4535 28.9006 14.5181C28.9272 14.5846 28.9488 14.651 28.9613 14.721C28.9756 14.7893 28.9828 14.8611 28.9828 14.9312C28.9828 15.2149 28.8683 15.4915 28.6703 15.6926C28.4703 15.8919 28.1953 16.0069 27.9131 16.0069C27.631 16.0069 27.3542 15.8919 27.156 15.6926C27.106 15.6423 27.0614 15.5866 27.0221 15.5292C26.9846 15.4699 26.9507 15.4071 26.9239 15.3424C26.8971 15.2778 26.8775 15.2095 26.8632 15.1413ZM30.654 19.2142C30.454 19.0131 30.3397 18.7365 30.3397 18.4528C30.3397 18.3828 30.3468 18.3127 30.3611 18.2427C30.3736 18.1744 30.3949 18.1062 30.4218 18.0415C30.4486 17.9769 30.4825 17.914 30.5201 17.8548C30.5593 17.7973 30.604 17.7416 30.654 17.6914C30.8522 17.492 31.129 17.3771 31.4111 17.3771C31.6915 17.3771 31.9682 17.492 32.1663 17.6914C32.2163 17.7416 32.2609 17.7973 32.3002 17.8548C32.3397 17.914 32.3716 17.9769 32.3986 18.0415C32.4252 18.1062 32.4468 18.1744 32.4593 18.2427C32.4736 18.3127 32.4807 18.3828 32.4807 18.4528C32.4807 18.5228 32.4736 18.5947 32.4593 18.6629C32.4468 18.7329 32.4254 18.7994 32.3986 18.8658C32.3718 18.9305 32.3397 18.9933 32.3002 19.0508C32.2609 19.1101 32.2163 19.1657 32.1663 19.2142C32.1181 19.2645 32.0629 19.3094 32.0039 19.3489C31.9468 19.3866 31.8843 19.4207 31.82 19.4477C31.7557 19.4746 31.6879 19.4944 31.62 19.5087C31.5504 19.5231 31.4807 19.5303 31.4111 19.5303C31.3397 19.5303 31.27 19.5231 31.2004 19.5087C31.1325 19.4944 31.0645 19.4746 31.0004 19.4477C30.9361 19.4207 30.8736 19.3866 30.8165 19.3489C30.7575 19.3094 30.7022 19.2645 30.654 19.2142ZM32.2807 22.2654C32.3468 22.2384 32.4129 22.2169 32.4825 22.2025C32.8289 22.1325 33.2003 22.2474 33.4486 22.497C33.4968 22.5473 33.5414 22.603 33.5807 22.6622C33.62 22.7197 33.6519 22.7826 33.6789 22.8472C33.7055 22.9119 33.7271 22.9801 33.7414 23.0483C33.7539 23.1184 33.7611 23.1884 33.7611 23.2585C33.7611 23.5422 33.6466 23.8206 33.4486 24.0199C33.2486 24.221 32.9736 24.336 32.6914 24.336C32.6218 24.336 32.5504 24.3288 32.4825 24.3144C32.4129 24.3 32.3468 24.2803 32.2807 24.2533C32.2164 24.2264 32.1539 24.1923 32.0968 24.1546C32.0379 24.1151 31.9825 24.0702 31.9343 24.0199C31.7343 23.8206 31.62 23.5422 31.62 23.2585C31.62 23.1884 31.6272 23.1184 31.6415 23.0483C31.6557 22.9801 31.6752 22.9119 31.7022 22.8472C31.7291 22.7826 31.7629 22.7197 31.8004 22.6622C31.8398 22.603 31.8845 22.5473 31.9343 22.497C31.9827 22.4485 32.0379 22.4036 32.0968 22.3641C32.1539 22.3246 32.2164 22.2923 32.2807 22.2654ZM30.3611 28.2742C30.3468 28.206 30.3397 28.1342 30.3397 28.0641C30.3397 27.9941 30.3468 27.924 30.3611 27.854C30.3736 27.7858 30.3949 27.7175 30.4218 27.6529C30.4486 27.5882 30.4825 27.5254 30.5201 27.4661C30.5593 27.4086 30.604 27.353 30.654 27.3027C30.7024 27.2542 30.7575 27.2093 30.8165 27.1698C30.8736 27.1303 30.9361 27.098 31.0004 27.071C31.0645 27.0441 31.1325 27.0225 31.2004 27.0082C31.5484 26.9381 31.9182 27.0531 32.1663 27.3027C32.2163 27.353 32.2609 27.4086 32.3002 27.4661C32.3397 27.5254 32.3716 27.5882 32.3986 27.6529C32.4252 27.7175 32.4468 27.7858 32.4593 27.854C32.4736 27.924 32.4807 27.9941 32.4807 28.0641C32.4807 28.1342 32.4736 28.206 32.4593 28.2742C32.4468 28.3425 32.4254 28.4107 32.3986 28.4754C32.3718 28.5418 32.3397 28.6029 32.3002 28.6621C32.2609 28.7214 32.2163 28.7753 32.1663 28.8256C32.1181 28.8758 32.0629 28.9207 32.0039 28.9602C31.9468 28.998 31.8843 29.0321 31.82 29.059C31.7557 29.0859 31.6879 29.1057 31.62 29.1201C31.5504 29.1344 31.4807 29.1416 31.4111 29.1416C31.3397 29.1416 31.27 29.1344 31.2004 29.1201C31.1325 29.1057 31.0645 29.0859 31.0004 29.059C30.9361 29.0321 30.8736 28.998 30.8165 28.9602C30.7575 28.9207 30.7022 28.8758 30.654 28.8256C30.604 28.7753 30.5593 28.7214 30.5201 28.6621C30.4825 28.6029 30.4488 28.5418 30.4218 28.4754C30.3951 28.4107 30.3736 28.3425 30.3611 28.2742ZM27.1558 32.3436C26.9558 32.1425 26.8433 31.8659 26.8433 31.5822C26.8433 31.5121 26.8487 31.4403 26.863 31.3721C26.8773 31.302 26.8967 31.2356 26.9237 31.1709C26.9503 31.1045 26.9844 31.0434 27.0219 30.9841C27.0612 30.9249 27.1058 30.871 27.1558 30.8207C27.354 30.6196 27.6308 30.5047 27.913 30.5047C28.1951 30.5047 28.4701 30.6196 28.6701 30.8207C28.7183 30.871 28.7646 30.9249 28.8021 30.9841C28.8415 31.0434 28.8735 31.1045 28.9004 31.1709C28.927 31.2356 28.9487 31.302 28.9612 31.3721C28.9754 31.4403 28.9826 31.5121 28.9826 31.5822C28.9826 31.8659 28.8681 32.1425 28.6701 32.3436C28.4701 32.5429 28.1951 32.6579 27.913 32.6579C27.6308 32.6579 27.3558 32.5429 27.1558 32.3436ZM23.8863 33.6312C23.6863 33.8323 23.4113 33.9473 23.1291 33.9473C23.0593 33.9473 22.9899 33.9401 22.9202 33.9257C22.8524 33.9114 22.7845 33.8916 22.7202 33.8647C22.6559 33.8377 22.5934 33.8036 22.5345 33.7659C22.4774 33.7264 22.422 33.6815 22.372 33.6312C22.3238 33.5809 22.2792 33.5271 22.2399 33.4678C22.2006 33.4085 22.1686 33.3475 22.1417 33.281C22.1151 33.2164 22.0934 33.1499 22.0792 33.0799C22.0667 33.0117 22.0595 32.9398 22.0595 32.8698C22.0595 32.586 22.1738 32.3095 22.372 32.1083C22.422 32.0599 22.4774 32.0132 22.5345 31.9755C22.5934 31.9359 22.6559 31.9036 22.7202 31.8767C22.7845 31.8497 22.8524 31.8282 22.9202 31.8138C23.0577 31.7869 23.2004 31.7869 23.3381 31.8138C23.4077 31.8282 23.4738 31.8497 23.5381 31.8767C23.6041 31.9036 23.6648 31.9359 23.7238 31.9755C23.7827 32.0132 23.8363 32.0599 23.8863 32.1083C24.0861 32.3095 24.2005 32.586 24.2005 32.8698C24.2005 32.9398 24.1934 33.0117 24.1791 33.0799C24.1648 33.1499 24.1452 33.2164 24.1184 33.281C24.0916 33.3475 24.0577 33.4085 24.0202 33.4678C23.9807 33.5271 23.9361 33.5809 23.8863 33.6312ZM19.4006 31.3721C19.4149 31.4403 19.4221 31.5121 19.4221 31.5822C19.4221 31.6522 19.4149 31.7222 19.4006 31.7923C19.3864 31.8605 19.3667 31.9288 19.3399 31.9934C19.3132 32.0581 19.279 32.1209 19.2415 32.1802C19.2023 32.2394 19.1576 32.2933 19.1076 32.3436C19.0578 32.3921 19.004 32.4388 18.9453 32.4765C18.8864 32.516 18.8255 32.5483 18.7596 32.5753C18.6953 32.6022 18.6292 32.6237 18.5596 32.6381C18.4917 32.6507 18.4203 32.6579 18.3507 32.6579C18.281 32.6579 18.2114 32.6507 18.1417 32.6381C18.0737 32.6237 18.0059 32.6022 17.9418 32.5753C17.8775 32.5483 17.815 32.516 17.756 32.4765C17.6989 32.4388 17.6435 32.3921 17.5935 32.3436C17.5452 32.2933 17.5005 32.2394 17.4614 32.1802C17.4223 32.1209 17.39 32.0581 17.3632 31.9934C17.3364 31.9288 17.3148 31.8605 17.3005 31.7923C17.2882 31.7222 17.2811 31.6522 17.2811 31.5822C17.2811 31.5121 17.2882 31.4403 17.3005 31.3721C17.3148 31.302 17.3362 31.2356 17.3632 31.1709C17.3898 31.1045 17.4221 31.0434 17.4614 30.9841C17.5007 30.9249 17.5453 30.871 17.5935 30.8207C17.7935 30.6196 18.0685 30.5047 18.3507 30.5047C18.6328 30.5047 18.9096 30.6196 19.1076 30.8207C19.1576 30.871 19.2023 30.9249 19.2415 30.9841C19.279 31.0434 19.313 31.1045 19.3399 31.1709C19.3665 31.2356 19.3864 31.302 19.4006 31.3721ZM15.6097 27.3027C15.8097 27.5038 15.9239 27.7822 15.9239 28.0641C15.9239 28.1342 15.9168 28.206 15.9027 28.2742C15.8902 28.3443 15.8688 28.4107 15.8418 28.4754C15.8152 28.5418 15.7829 28.6029 15.7436 28.6621C15.7043 28.7214 15.6597 28.7753 15.6097 28.8256C15.5614 28.8758 15.5061 28.9207 15.4472 28.9602C15.3902 28.998 15.3275 29.0321 15.2634 29.059C15.1991 29.0859 15.1313 29.1057 15.0634 29.1201C14.9936 29.1344 14.9241 29.1416 14.8545 29.1416C14.7849 29.1416 14.7134 29.1344 14.6436 29.1201C14.5758 29.1057 14.5079 29.0859 14.4436 29.059C14.3795 29.0321 14.3168 28.998 14.2599 28.9602C14.2009 28.9207 14.1454 28.8758 14.0974 28.8256C14.0474 28.7753 14.0027 28.7214 13.9634 28.6621C13.9242 28.6029 13.892 28.5418 13.8652 28.4754C13.8384 28.4107 13.8168 28.3443 13.8045 28.2742C13.7902 28.206 13.7831 28.1342 13.7831 28.0641C13.7831 27.9941 13.7902 27.924 13.8045 27.854C13.8168 27.7858 13.8383 27.7175 13.8652 27.6529C13.8918 27.5882 13.9242 27.5254 13.9634 27.4661C14.0027 27.4068 14.0474 27.353 14.0974 27.3027C14.1456 27.2542 14.2009 27.2075 14.2599 27.1698C14.3168 27.1303 14.3795 27.098 14.4436 27.071C14.5079 27.0441 14.5758 27.0225 14.6436 27.0082C14.9918 26.9381 15.3616 27.0531 15.6097 27.3027ZM13.9831 24.2533C13.917 24.2803 13.8509 24.3 13.7811 24.3144C13.7133 24.3288 13.642 24.336 13.5722 24.336C13.5024 24.336 13.4331 24.3288 13.3633 24.3144C13.2954 24.3 13.2276 24.2803 13.1633 24.2533C13.0992 24.2264 13.0365 24.1923 12.9795 24.1546C12.9206 24.1151 12.8651 24.0702 12.8153 24.0199C12.7669 23.9714 12.7222 23.9157 12.6831 23.8565C12.6438 23.799 12.6117 23.7361 12.5849 23.6715C12.5581 23.6051 12.5365 23.5386 12.5222 23.4686C12.5099 23.4003 12.5028 23.3285 12.5028 23.2585C12.5028 23.1884 12.5099 23.1184 12.5222 23.0483C12.5365 22.9801 12.5579 22.9119 12.5849 22.8472C12.6115 22.7826 12.6438 22.7197 12.6831 22.6622C12.7224 22.603 12.767 22.5473 12.8153 22.497C12.8651 22.4485 12.9206 22.4036 12.9795 22.3641C13.0365 22.3246 13.0992 22.2923 13.1633 22.2654C13.2276 22.2384 13.2954 22.2169 13.3633 22.2025C13.5026 22.1756 13.6436 22.1756 13.7811 22.2025C13.8509 22.2169 13.917 22.2384 13.9831 22.2654C14.0472 22.2923 14.1099 22.3246 14.1668 22.3641C14.2258 22.4036 14.2793 22.4485 14.3293 22.497C14.3793 22.5473 14.424 22.603 14.4633 22.6622C14.5008 22.7197 14.5347 22.7826 14.5615 22.8472C14.5883 22.9119 14.6081 22.9801 14.6222 23.0483C14.6365 23.1184 14.6436 23.1884 14.6436 23.2585C14.6436 23.5422 14.5293 23.8188 14.3293 24.0199C14.2793 24.0702 14.2258 24.1151 14.1668 24.1546C14.1099 24.1923 14.0472 24.2264 13.9831 24.2533ZM15.9241 18.4483V18.4533C15.9241 19.0479 15.4448 19.5299 14.8536 19.5299C14.2624 19.5299 13.7831 19.0479 13.7831 18.4533C13.7831 17.8587 14.2624 17.3742 14.8536 17.3742C15.4448 17.3742 15.9241 17.8537 15.9241 18.4483ZM17.3007 15.1413C17.2884 15.0712 17.2812 15.0012 17.2812 14.9312C17.2812 14.8611 17.2884 14.7893 17.3007 14.721C17.315 14.651 17.3364 14.5846 17.3634 14.5181C17.39 14.4535 17.4223 14.3906 17.4616 14.3331C17.5009 14.2739 17.5455 14.2182 17.5937 14.1697C17.6437 14.1194 17.6991 14.0745 17.7562 14.035C17.8151 13.9973 17.8776 13.9632 17.9419 13.9363C18.006 13.9093 18.0739 13.8896 18.1419 13.8752C18.281 13.8465 18.4221 13.8465 18.5598 13.8752C18.6294 13.8896 18.6955 13.9093 18.7598 13.9363C18.8257 13.9632 18.8866 13.9973 18.9455 14.035C19.0042 14.0745 19.058 14.1194 19.1078 14.1697C19.1578 14.2182 19.2024 14.2739 19.2417 14.3331C19.2792 14.3906 19.3132 14.4535 19.3401 14.5181C19.3667 14.5846 19.3865 14.651 19.4008 14.721C19.4151 14.7893 19.4223 14.8611 19.4223 14.9312C19.4223 15.0012 19.4151 15.0712 19.4008 15.1413C19.3865 15.2095 19.3669 15.2778 19.3401 15.3424C19.3133 15.4071 19.2792 15.4699 19.2417 15.5292C19.2024 15.5866 19.1578 15.6423 19.1078 15.6926C18.9098 15.8919 18.633 16.0069 18.3508 16.0069C18.0687 16.0069 17.7937 15.8919 17.5937 15.6926C17.5453 15.6423 17.5007 15.5866 17.4616 15.5292C17.4223 15.4699 17.3902 15.4071 17.3634 15.3424C17.3366 15.2778 17.315 15.2095 17.3007 15.1413ZM14.9574 51.4199C14.9574 50.8253 15.4366 50.3433 16.0279 50.3433H30.2361C30.8275 50.3433 31.3066 50.8253 31.3066 51.4199C31.3066 52.0145 30.8274 52.4965 30.2361 52.4965H16.0279C15.4364 52.4965 14.9574 52.0145 14.9574 51.4199ZM37.1987 57.0858C37.1987 57.6804 36.7194 58.1624 36.1281 58.1624H21.9199C21.3285 58.1624 20.8494 57.6804 20.8494 57.0858C20.8494 56.4912 21.3286 56.0092 21.9199 56.0092H36.1281C36.7196 56.0092 37.1987 56.4912 37.1987 57.0858ZM14.9574 62.7514C14.9574 62.1568 15.4366 61.6748 16.0279 61.6748H30.2361C30.8275 61.6748 31.3066 62.1568 31.3066 62.7514C31.3066 63.346 30.8274 63.8281 30.2361 63.8281H16.0279C15.4364 63.8281 14.9574 63.346 14.9574 62.7514ZM20.8492 68.4173C20.8492 67.8227 21.3285 67.3407 21.9197 67.3407H36.128C36.7194 67.3407 37.1985 67.8227 37.1985 68.4173C37.1985 69.0119 36.7192 69.4939 36.128 69.4939H21.9197C21.3283 69.4939 20.8492 69.0119 20.8492 68.4173ZM30.2361 75.1596H16.0279C15.4364 75.1596 14.9574 74.6776 14.9574 74.083C14.9574 73.4884 15.4366 73.0064 16.0279 73.0064H30.2361C30.8275 73.0064 31.3066 73.4884 31.3066 74.083C31.3066 74.6776 30.8274 75.1596 30.2361 75.1596Z" fill="#244E93"/>
</svg>
