<svg width="819" height="718" viewBox="0 0 819 718" fill="none" xmlns="http://www.w3.org/2000/svg">
<path d="M730.277 758.556C728.951 767.116 726.708 775.676 726.606 784.235C725.994 817.557 726.3 850.98 725.994 884.301C725.688 910.795 714.367 925.265 694.072 925.775C674.592 926.182 660.926 910.897 660.416 885.32C659.702 847.413 660.416 809.506 660.314 771.701C660.314 767.32 658.988 762.938 657.662 755.092C627.882 774.962 615.031 802.475 612.38 833.555C610.748 852.61 614.929 872.685 619.723 891.536C632.471 942.18 647.158 992.315 660.62 1042.76C662.762 1050.7 663.578 1059.26 663.476 1067.52C663.476 1085.55 654.399 1100.33 636.857 1101.76C624.618 1102.78 610.136 1096.25 599.325 1088.92C592.39 1084.23 589.229 1072.51 586.577 1063.24C576.99 1029.81 568.423 995.984 559.244 962.459C556.695 953.288 553.227 944.32 549.045 931.787C514.574 978.763 482.04 1021.26 511.616 1080.46C518.551 1094.32 520.489 1110.93 523.651 1126.42C528.444 1149.65 514.268 1170.64 492.646 1173.6C469.393 1176.86 451.137 1160.65 449.2 1135.28C448.894 1130.9 447.976 1126.62 446.446 1116.23C438.185 1124.48 431.964 1128.86 428.292 1134.77C417.379 1152.09 407.997 1170.34 397.186 1187.66C383.622 1209.36 363.938 1215.38 345.07 1204.57C325.999 1193.57 321.511 1174.51 333.852 1151.38C345.376 1129.78 358.023 1108.69 372.097 1084.03C357.717 1085.66 348.232 1087.39 338.645 1087.69C314.576 1088.31 301.624 1078.32 298.054 1057.12C294.586 1036.95 304.071 1020.54 325.591 1013.61C347.926 1006.48 370.465 999.448 393.514 995.372C419.929 990.583 437.063 976.521 448.894 953.288C458.073 935.251 468.985 918.03 481.938 895.408C470.311 896.937 463.376 897.141 456.747 898.771C422.275 907.534 388.007 917.521 353.331 925.265C341.399 927.914 325.489 929.545 316.514 923.737C306.213 917.011 297.238 902.032 295.708 889.6C293.363 870.748 308.559 859.438 325.489 854.444C366.182 842.624 407.181 831.924 448.078 820.919C465.62 816.13 482.957 810.016 500.805 807.061C553.023 798.603 562.508 753.563 583.619 718.204C582.395 716.471 581.172 714.637 579.846 712.905C569.443 717.796 558.632 721.974 548.637 727.579C520.795 742.966 493.564 759.473 465.416 774.453C443.794 785.967 425.436 781.382 416.156 764.263C407.181 747.755 413.912 728.903 434.513 716.675C463.784 699.25 493.768 682.742 523.039 665.419C530.892 660.732 537.725 654.312 543.742 646.16C499.785 640.76 457.053 631.996 421.459 670.413C380.766 714.332 337.319 755.703 294.892 798.094C274.801 818.168 251.956 820.41 234.924 804.309C217.484 787.904 219.218 766.301 240.431 744.698C267.05 717.592 294.077 690.996 320.695 664.095C326.305 658.388 331.302 652.071 340.379 641.677C304.173 641.677 273.577 640.76 242.981 642.39C235.23 642.798 227.071 650.44 220.645 656.452C200.758 675.1 182.094 695.174 162.003 713.618C140.789 733.285 120.188 734.1 103.666 717.49C88.2655 701.9 89.2854 682.029 106.725 660.834C110.499 656.248 114.17 651.459 122.737 640.862C98.5663 640.862 79.5966 641.167 60.6269 640.76C49.3063 640.454 37.5777 640.76 26.971 637.601C9.02119 632.506 -1.38154 618.749 0.148274 600.203C1.88206 579.11 16.6703 567.799 36.9658 566.78C61.8508 565.455 86.9397 566.474 116.924 566.474C110.907 557.813 107.541 552.616 103.666 547.725C85.8178 525.103 85.3079 504.417 102.442 489.132C119.168 474.255 140.381 476.496 160.881 496.163C177.811 512.467 194.741 528.771 210.855 545.992C224.827 560.972 241.349 567.29 261.542 566.78C284.898 566.169 308.355 566.678 337.931 566.678C329.364 556.692 324.775 550.476 319.369 544.973C293.873 518.989 267.866 493.514 242.675 467.122C222.175 445.519 221.257 426.667 238.391 409.344C254.709 392.836 273.577 392.531 294.382 412.503C337.625 453.977 381.276 495.246 421.561 539.471C456.237 577.581 496.93 567.799 540.682 559.545C533.339 554.042 526.506 547.827 518.653 543.241C489.995 526.224 460.52 510.429 432.372 492.597C409.322 478.025 406.365 453.569 423.907 437.469C438.389 424.12 453.789 429.215 468.067 437.163C496.522 452.957 524.262 470.179 552.819 485.973C562.916 491.578 574.542 494.635 585.455 498.813C586.475 496.877 587.393 495.042 588.413 493.106C575.766 471.911 564.752 449.493 549.861 429.928C542.314 420.044 528.75 412.605 516.511 409.038C456.951 391.614 396.88 375.921 337.013 359.311C327.63 356.662 317.942 353.809 309.783 348.815C292.343 338.014 284.592 322.933 293.975 302.451C303.051 282.784 319.777 276.364 339.155 280.95C379.644 290.529 419.725 302.145 460.01 312.743C466.436 314.475 472.963 315.494 484.181 312.743C467.251 284.924 452.871 255.067 432.372 230.204C423.499 219.402 402.183 218.485 386.273 213.798C368.833 208.703 350.986 204.932 333.648 199.634C308.967 191.991 296.116 174.158 300.196 155.205C305.193 132.379 323.755 121.17 350.578 124.839C357.819 125.858 365.06 127.284 376.992 129.322C362.612 103.236 350.374 80.8179 338.033 58.5017C328.14 40.6692 327.324 23.7537 343.846 9.2839C361.388 -6.20494 386.375 -2.02703 400.246 19.6777C413.606 40.5673 425.64 62.3739 440.429 87.4414C444.406 77.7609 447.058 71.3411 449.71 64.8195C459.398 41.1787 477.552 29.7658 496.828 35.3704C519.469 41.892 529.668 61.253 523.243 87.849C517.225 112.815 507.638 137.169 503.865 162.44C501.621 177.521 504.579 195.15 510.698 209.212C520.591 231.834 535.175 252.52 550.983 279.523C558.122 254.965 563.834 235.401 569.341 215.836C576.072 191.787 582.293 167.637 589.534 143.792C597.082 118.929 615.235 108.127 637.163 114.343C659.702 120.661 668.983 138.188 662.15 164.376C648.177 218.587 635.123 273.104 618.499 326.499C607.382 362.062 608.708 393.04 632.573 422.489C640.426 432.17 645.73 443.786 657.968 453.773C659.294 442.36 661.538 431.049 661.742 419.636C662.354 387.843 661.538 355.948 662.252 324.054C662.864 298.477 674.286 286.656 695.5 287.166C715.285 287.675 725.79 299.801 726.198 324.156C726.81 355.235 726.402 386.315 726.912 417.496C727.116 429.419 728.646 441.341 729.665 453.263C731.603 454.078 733.541 454.894 735.479 455.709C746.493 438.386 755.876 419.636 768.931 404.045C785.249 384.481 780.047 365.527 774.336 344.638C757.61 283.294 741.598 221.848 726.3 160.198C719.569 132.991 730.277 114.445 753.123 109.044C773.418 104.357 792.49 117.196 799.629 142.06C812.479 186.998 824.412 232.038 840.118 277.689C858.884 237.846 904.982 208.805 882.851 153.982C874.998 134.519 871.428 113.222 866.227 92.6383C859.598 66.1442 869.286 45.7642 891.01 39.3445C910.693 33.5362 930.071 45.6623 939.658 70.0164C942.106 76.2323 944.451 82.4483 948.939 94.0649C964.339 68.8955 977.495 47.3946 990.652 25.7917C1000.44 9.6915 1013.29 -1.41562 1033.49 3.37369C1057.66 9.0801 1067.86 33.3324 1056.33 57.3808C1050.82 68.9974 1043.99 80.0027 1037.57 91.2117C1031.24 102.217 1024.61 113.12 1015.64 128.201C1028.8 126.571 1037.87 125.043 1047.05 124.431C1069.49 122.801 1086.01 133.908 1089.99 152.861C1094.27 173.241 1085.7 189.851 1063.98 197.29C1040.32 205.34 1016.15 212.371 991.773 217.364C968.316 222.153 952.304 233.974 941.596 255.373C931.805 274.734 919.872 293.076 906.002 316.819C919.26 314.883 927.113 314.475 934.66 312.539C967.704 304.183 1000.54 295.114 1033.69 287.064C1042.36 284.924 1051.74 284.109 1060.62 284.924C1077.55 286.351 1088.66 296.541 1092.64 312.743C1096.82 329.556 1090.09 343.822 1074.89 350.65C1055.72 359.209 1035.42 365.731 1015.03 371.335C971.274 383.462 927.317 395.18 883.157 405.676C859.394 411.382 841.954 423.203 830.837 445.111C822.474 461.721 812.989 477.719 807.584 498.609C814.621 495.959 822.066 494.023 828.593 490.355C859.088 473.439 889.072 455.709 919.668 438.997C943.635 425.852 959.852 429.011 970.968 447.353C981.677 464.982 975.864 482.101 952.61 496.061C923.34 513.69 893.356 529.994 863.983 547.317C856.538 551.699 850.011 557.711 841.954 563.825C876.936 580.231 933.743 572.385 958.526 548.03C1000.75 506.557 1042.26 464.37 1084.07 422.489C1089.48 417.089 1094.68 411.586 1100.59 406.899C1118.44 392.836 1141.7 394.569 1155.97 410.363C1167.7 423.406 1167.19 447.455 1153.12 462.129C1124.66 491.578 1095.39 520.212 1066.43 549.253C1061.23 554.45 1056.33 560.055 1050.52 566.271C1115.48 575.645 1151.38 584.714 1194.63 529.688C1205.34 516.136 1218.7 504.315 1232.06 493.31C1249.29 479.044 1270.81 480.776 1285.29 495.756C1298.76 509.716 1298.65 529.994 1284.99 547.317C1279.89 553.737 1274.38 559.647 1263.77 571.977C1294.68 571.977 1319.15 571.875 1343.53 571.977C1361.48 572.079 1376.88 578.397 1384.63 595.312C1395.64 619.259 1378.51 644.326 1349.95 645.651C1325.17 646.772 1300.29 645.855 1268.87 645.855C1277.64 656.758 1282.54 662.668 1287.23 668.782C1301.82 687.532 1301.2 707.3 1285.91 721.872C1269.69 737.157 1251.13 737.972 1233.08 721.872C1215.53 706.18 1199.22 689.264 1183.1 672.145C1165.36 653.293 1144.65 643.918 1118.34 645.549C1097.33 646.874 1076.22 645.855 1048.38 645.855C1062.15 660.528 1071.43 670.82 1081.22 680.704C1102.53 702.307 1124.46 723.299 1145.57 745.105C1163.32 763.346 1165.15 786.579 1150.98 802.068C1135.07 819.493 1113.34 819.9 1092.84 800.132C1053.48 762.225 1012.27 725.643 977.495 683.863C940.066 638.722 894.171 642.9 838.588 648.402C849.603 656.452 855.416 661.547 861.943 665.419C892.03 683.15 922.422 700.167 952.406 718.102C975.761 732.062 981.269 748.061 970.254 766.606C958.934 785.56 943.431 788.821 919.26 775.472C892.03 760.492 865.513 744.188 838.486 728.903C828.185 723.095 817.273 718.204 805.646 712.395C807.278 751.729 842.464 797.075 876.732 806.246C933.743 821.633 990.754 836.816 1047.76 852.305C1056.54 854.648 1065.51 856.992 1073.36 861.272C1090.5 870.545 1102.74 882.976 1095.6 905.089C1088.97 925.673 1071.63 936.576 1049.4 931.583C1011.05 922.921 973.008 912.731 934.66 903.458C926.705 901.522 918.546 900.809 910.183 899.484C913.549 935.047 952.712 984.775 983.411 993.538C1006.77 1000.16 1030.32 1005.87 1053.37 1013.2C1079.58 1021.46 1091.82 1037.46 1088.46 1056.41C1085.09 1075.57 1068.16 1087.29 1041.65 1087.9C1032.87 1088.1 1024.1 1086.06 1010.95 1084.43C1021.96 1104.2 1031.65 1120.81 1040.52 1137.83C1045.42 1147.1 1050.72 1156.78 1052.76 1166.87C1056.13 1183.79 1055.52 1200.8 1036.24 1209.46C1018.19 1217.62 999.219 1211.5 987.286 1192.86C977.087 1176.86 968.316 1160.04 958.526 1143.84C955.568 1138.85 951.59 1134.36 946.593 1127.74C941.8 1138.85 938.842 1148.12 934.049 1156.37C924.462 1172.98 910.591 1182.46 890.704 1176.55C870.612 1170.54 859.802 1156.17 863.575 1135.38C868.267 1110.21 874.59 1085.15 882.137 1060.69C889.378 1037.25 886.828 1016.26 873.876 995.576C862.351 977.234 851.847 958.179 837.364 933.417C830.531 955.529 825.432 970.916 821.046 986.405C813.193 1014.12 806.156 1042.04 797.997 1069.56C790.96 1093.3 772.398 1104.61 752.001 1099.01C730.277 1093.09 719.059 1075.26 725.076 1051.52C740.374 990.685 756.08 929.851 773.214 869.526C779.945 845.681 777.498 825.199 764.137 804.819C754.244 789.84 745.677 773.943 736.499 758.556C734.255 758.76 732.011 758.964 729.767 759.066L730.277 758.556Z" fill="#00ECFF" fill-opacity="0.08"/>
</svg>
