<svg width="36" height="36" viewBox="0 0 36 36" fill="none" xmlns="http://www.w3.org/2000/svg">
<path d="M11.7444 8.78541L25.997 8.45395C26.3837 8.45395 26.7152 8.59206 26.9914 8.86827C27.2676 9.14449 27.4057 9.47594 27.4057 9.86264L27.0742 24.1153C26.9638 24.9991 26.4942 25.4687 25.6656 25.524C24.7817 25.4135 24.3121 24.9439 24.2569 24.1153L24.5055 13.3429L10.4186 27.4298C9.75565 27.9823 9.09274 27.9823 8.42982 27.4298C7.8774 26.7669 7.8774 26.104 8.42982 25.4411L22.5167 11.3542L11.7444 11.6028C10.9157 11.5475 10.4462 11.078 10.3357 10.1941C10.3909 9.36546 10.8605 8.89589 11.7444 8.78541Z" fill="white"/>
</svg>
