<svg width="144" height="166" viewBox="0 0 144 166" fill="none" xmlns="http://www.w3.org/2000/svg">
<path d="M135.368 163.96C134.592 163.444 135.165 162.239 135.968 162.754C136.975 163.435 138.084 163.739 139.46 163.739C141.409 163.739 142.333 162.957 142.333 161.797C142.333 160.84 141.714 160.343 140.135 160.03L138.352 159.662C136.236 159.23 135.211 158.227 135.211 156.506C135.211 154.399 137.003 153 139.59 153C140.984 153 142.222 153.368 143.192 154.123C143.876 154.638 143.34 155.761 142.49 155.227C141.603 154.61 140.68 154.343 139.571 154.343C137.862 154.343 136.772 155.199 136.772 156.469C136.772 157.491 137.363 158.043 138.823 158.337L140.587 158.687C142.823 159.156 143.894 160.076 143.894 161.714C143.894 163.72 142.204 165.091 139.469 165.091C137.89 165.091 136.412 164.705 135.377 163.969L135.368 163.96Z" fill="white"/>
<g clip-path="url(#clip0_7796_198)">
<path d="M110.051 63.0151C112.268 65.0211 114.513 66.9259 116.61 68.9688C123.427 75.631 127.391 83.6735 127.945 93.2251C128.628 105.197 124.093 115.163 115.455 123.233C107.4 130.76 97.5891 134.91 86.7439 136.539C82.8085 137.128 78.7901 137.431 74.8085 137.45C53.1919 137.532 31.5753 137.486 9.9679 137.496C8.09261 137.496 7.14111 136.557 7.14111 134.643C7.14111 128.542 7.14111 122.45 7.15035 116.35C7.15035 114.316 8.0649 113.423 10.1434 113.423C29.4136 113.405 48.6838 113.433 67.954 113.359C72.2127 113.341 76.5453 113.405 80.7023 112.678C86.4113 111.675 91.3628 108.85 94.3651 103.688C98.9933 95.7096 96.8316 87.3174 89.5891 81.7779C85.9771 79.0173 81.7647 77.9867 77.2935 77.8855C75.3536 77.8394 74.282 76.8824 74.2728 74.9224C74.245 68.4443 74.2543 61.9753 74.2635 55.4971C74.2635 54.3469 74.9841 53.6015 76.3513 53.1782C79.5568 52.166 82.4575 50.6477 84.924 48.3012C90.9564 42.5776 89.6169 34.8204 85.0626 29.9249C81.4598 26.0509 76.8686 24.1277 71.5291 24.1369C60.8686 24.1553 50.2173 24.2105 39.5568 24.2197C29.737 24.2289 19.9079 24.2197 10.088 24.1921C7.97252 24.1921 7.15035 23.3456 7.15035 21.2383C7.15035 15.1374 7.15035 9.04574 7.15035 2.94485C7.15035 0.984838 8.10185 0.0554418 10.0603 0.0554418C31.1504 0.0554418 52.2312 -0.0641834 73.3213 0.101452C85.2012 0.193471 96.2681 3.30373 105.663 10.8585C112.259 16.168 117.146 22.7474 119.335 31.1028C122.042 41.409 119.88 50.6661 113.441 59.0307C112.388 60.4018 111.215 61.6716 110.06 63.0335L110.051 63.0151Z" fill="white"/>
<path d="M36.3235 76.6793C36.2588 77.1026 36.148 77.5259 36.1387 77.9584C36.111 79.6147 36.1203 81.2711 36.111 82.9274C36.1018 84.2433 35.529 84.9611 34.5221 84.9795C33.5521 84.9979 32.8685 84.2433 32.85 82.9734C32.8131 81.0962 32.85 79.2099 32.85 77.3327C32.85 77.1118 32.7854 76.9002 32.7207 76.5137C31.2427 77.4983 30.596 78.8602 30.4667 80.4061C30.3835 81.3539 30.596 82.3477 30.827 83.2863C31.4644 85.7984 32.1942 88.283 32.8593 90.7859C32.9609 91.1816 33.0071 91.6049 33.0071 92.0098C33.0071 92.9023 32.5544 93.6385 31.6861 93.7121C31.0764 93.7581 30.3558 93.4361 29.82 93.0772C29.4782 92.8471 29.3212 92.2582 29.1826 91.8073C28.7022 90.151 28.2773 88.4762 27.8246 86.8107C27.6953 86.3506 27.529 85.9089 27.3166 85.2923C25.5983 87.6204 23.9817 89.7369 25.4505 92.6723C25.7923 93.3624 25.8939 94.1814 26.051 94.9544C26.2912 96.1046 25.5891 97.1444 24.5082 97.3009C23.3535 97.4573 22.439 96.6567 22.3466 95.3961C22.3281 95.1844 22.2819 94.9636 22.208 94.4483C21.7923 94.8624 21.4875 95.074 21.3027 95.3685C20.7577 96.2242 20.2958 97.1352 19.7507 97.991C19.0764 99.0676 18.0972 99.3713 17.1549 98.8284C16.2034 98.2855 15.9817 97.3377 16.6006 96.1874C17.1734 95.1108 17.8015 94.071 18.5036 92.8471C17.7831 92.93 17.3119 93.0128 16.8408 93.0312C15.6399 93.0588 15.0025 92.5619 14.8177 91.5128C14.6422 90.5098 15.1226 89.7001 16.1942 89.3504C17.3027 88.9915 18.4297 88.651 19.5752 88.4394C20.887 88.2001 21.7461 87.51 22.3281 86.3506C22.79 85.458 23.3258 84.6022 23.9724 83.4796C23.3997 83.5532 23.0487 83.5624 22.7253 83.6452C21.0071 84.0777 19.3073 84.5746 17.5798 84.9611C16.9886 85.0899 16.1942 85.1727 15.7507 84.8782C15.2427 84.547 14.79 83.8016 14.7161 83.1851C14.596 82.2557 15.3535 81.6852 16.2034 81.4459C18.2265 80.857 20.2681 80.3325 22.3096 79.7804C23.178 79.5411 24.0464 79.2375 24.9332 79.0902C27.529 78.6669 28.0094 76.4309 29.0533 74.6825C28.9886 74.5905 28.9332 74.5077 28.8685 74.4156C28.3512 74.6549 27.8154 74.8665 27.3166 75.1426C25.9309 75.9064 24.5729 76.7253 23.178 77.4707C22.0972 78.0412 21.1918 77.8112 20.73 76.9646C20.2865 76.1456 20.6191 75.207 21.6445 74.5997C23.1041 73.7347 24.5914 72.9157 26.051 72.0507C26.439 71.8207 26.7808 71.4986 27.0856 71.0937C24.8962 70.8269 22.7715 70.3944 20.9979 72.2992C18.9748 74.4801 16.8131 76.5321 14.6976 78.6393C13.6999 79.6331 12.5637 79.7436 11.7138 78.9522C10.8454 78.1332 10.9286 77.0658 11.9909 75.9892C13.3119 74.6457 14.6607 73.3298 15.9909 71.9863C16.2681 71.7011 16.5175 71.3882 16.9701 70.8729C15.1688 70.8729 13.6445 70.8269 12.1203 70.9097C11.7323 70.9281 11.3258 71.3054 11.0117 71.6091C10.0233 72.5384 9.09023 73.5323 8.09254 74.4525C7.03942 75.4279 6.01402 75.4647 5.19185 74.6457C4.4251 73.8727 4.48053 72.8881 5.33965 71.8391C5.52441 71.6091 5.70917 71.379 6.13411 70.8453C4.93319 70.8453 3.99092 70.8637 3.03942 70.8453C2.47591 70.8361 1.89393 70.8453 1.36737 70.6889C0.480531 70.4312 -0.0460281 69.7503 0.0278749 68.8393C0.111016 67.7902 0.850046 67.2289 1.86621 67.1829C3.10409 67.1185 4.3512 67.1645 5.84774 67.1645C5.54289 66.732 5.37661 66.4744 5.19185 66.2351C4.30501 65.1125 4.2773 64.0819 5.13642 63.3273C5.96783 62.5912 7.03018 62.7016 8.04635 63.677C8.887 64.4867 9.73688 65.2965 10.5313 66.1523C11.2242 66.8977 12.0464 67.2105 13.0533 67.1829C14.2173 67.1553 15.3812 67.1829 16.8593 67.1829C16.4343 66.686 16.2034 66.3823 15.9355 66.1063C14.6699 64.818 13.3674 63.5574 12.1203 62.2415C11.0948 61.1741 11.0579 60.2355 11.9078 59.3705C12.7207 58.5515 13.6537 58.5423 14.6976 59.5269C16.85 61.5789 19.0209 63.631 21.0256 65.8302C22.753 67.7258 24.7761 67.2381 26.9563 66.824C26.596 66.548 26.2542 66.2443 25.8662 66.0143C24.4436 65.1677 22.9748 64.3855 21.5706 63.5021C20.4251 62.7752 20.2773 61.5697 21.1457 60.7692C21.8662 60.1066 22.633 60.3551 23.3443 60.7508C24.7669 61.5329 26.1433 62.3887 27.566 63.1709C28.0741 63.4469 28.6468 63.6034 29.1918 63.8058C29.238 63.7138 29.2935 63.6218 29.3397 63.5205C28.7115 62.4715 28.1572 61.3581 27.4182 60.3827C27.0487 59.895 26.3651 59.5269 25.7554 59.3429C22.79 58.4779 19.7969 57.6957 16.8223 56.8767C16.3512 56.7479 15.8708 56.6007 15.4644 56.3522C14.596 55.8185 14.208 55.064 14.6791 54.0518C15.1318 53.0763 15.9632 52.7543 16.9239 52.9843C18.9378 53.4628 20.9332 54.0333 22.9378 54.5671C23.2519 54.6499 23.5845 54.7051 24.1387 54.5671C23.2981 53.1868 22.5775 51.7053 21.5614 50.4722C21.1179 49.9385 20.0556 49.8925 19.2704 49.6532C18.402 49.3956 17.5152 49.2115 16.6468 48.9447C15.4182 48.5674 14.7808 47.684 14.984 46.7362C15.2334 45.6044 16.1572 45.043 17.4875 45.2271C17.8477 45.2731 18.208 45.3467 18.7992 45.4479C18.0879 44.1505 17.4782 43.037 16.8593 41.9328C16.3697 41.0494 16.3235 40.212 17.1457 39.4851C18.0233 38.7121 19.2611 38.9238 19.954 40.0004C20.6191 41.0402 21.2196 42.1168 21.9494 43.3683C22.1433 42.8898 22.2819 42.5677 22.4112 42.2457C22.8916 41.0678 23.7969 40.5065 24.7577 40.7825C25.8847 41.1046 26.3928 42.0708 26.0694 43.3867C25.7646 44.629 25.2935 45.8344 25.0995 47.0859C24.9886 47.8312 25.1364 48.7054 25.4413 49.4048C25.9309 50.5274 26.6607 51.5488 27.4459 52.8923C27.7969 51.6684 28.0833 50.7022 28.3604 49.7268C28.7022 48.5398 29.0071 47.3343 29.3674 46.1473C29.7461 44.9142 30.6422 44.3805 31.7415 44.6842C32.8593 44.997 33.3212 45.862 32.9886 47.1687C32.2865 49.8557 31.6399 52.561 30.8177 55.2112C30.2634 56.978 30.3281 58.5147 31.5198 59.9778C31.9078 60.4563 32.1757 61.036 32.7854 61.5329C32.85 60.9716 32.9609 60.4011 32.9701 59.8398C32.9979 58.257 32.9609 56.6743 32.9979 55.1008C33.0256 53.8309 33.5983 53.242 34.6514 53.2696C35.6306 53.2972 36.1572 53.8953 36.1757 55.1008C36.2034 56.6467 36.1849 58.1834 36.2126 59.7293C36.2219 60.3183 36.305 60.9164 36.3512 61.5053C36.4436 61.5421 36.5452 61.5881 36.6376 61.6249C37.1826 60.76 37.6537 59.8398 38.3004 59.0576C39.1133 58.0822 38.8547 57.1528 38.5683 56.113C37.7369 53.0671 36.9424 50.0213 36.1757 46.9571C35.8431 45.6044 36.3697 44.6842 37.5059 44.4173C38.5129 44.1873 39.4644 44.8222 39.8154 46.0553C40.4528 48.2821 41.0533 50.5182 41.8293 52.7911C42.7623 50.8127 45.0533 49.3772 43.954 46.6534C43.566 45.6872 43.3812 44.629 43.1318 43.6075C42.7992 42.2917 43.2796 41.2795 44.3697 40.9666C45.3489 40.6813 46.3096 41.2795 46.79 42.4849C46.9101 42.7886 47.0302 43.1014 47.2519 43.672C48.0186 42.4205 48.6745 41.3531 49.3304 40.2856C49.82 39.4851 50.4574 38.933 51.4644 39.1722C52.6653 39.4575 53.1734 40.6629 52.6006 41.85C52.3235 42.4297 51.9909 42.9726 51.6676 43.5247C51.3535 44.0768 51.0209 44.6106 50.5775 45.3559C51.2334 45.2731 51.6861 45.1995 52.1387 45.1627C53.2565 45.0799 54.0787 45.632 54.2727 46.5706C54.4851 47.5828 54.0602 48.4018 52.9794 48.779C51.8062 49.1839 50.6052 49.5244 49.3858 49.7728C48.2126 50.0121 47.4182 50.601 46.8824 51.6592C46.3928 52.6254 45.8016 53.5272 45.1087 54.7051C45.7646 54.6131 46.1618 54.5855 46.5313 54.4934C48.1757 54.0794 49.8108 53.6285 51.4551 53.2328C51.8893 53.1316 52.3512 53.0855 52.7946 53.1224C53.6353 53.196 54.1895 53.7021 54.3928 54.5026C54.6052 55.34 54.2634 56.0486 53.5059 56.3798C52.5544 56.8031 51.5383 57.1252 50.5313 57.4105C48.3512 58.0086 46.1618 58.5883 43.9632 59.1128C42.7808 59.3981 41.9124 59.987 41.3581 61.0728C40.9424 61.8918 40.4713 62.6924 40.2034 63.723C40.5544 63.585 40.924 63.4929 41.2473 63.3181C42.7623 62.4807 44.2588 61.5973 45.7831 60.7692C46.9748 60.1158 47.7785 60.2723 48.3327 61.1833C48.8685 62.0574 48.5729 62.904 47.4182 63.6034C45.9678 64.4776 44.4713 65.2873 43.0117 66.1431C42.6422 66.3639 42.3189 66.6584 41.9124 66.9621C43.6491 67.7718 46.4759 67.3854 47.7138 66.1799C49.82 64.1187 51.8801 62.0298 53.9678 59.9502C54.2357 59.6833 54.4944 59.4073 54.79 59.1772C55.6768 58.4779 56.8316 58.5607 57.5429 59.3521C58.1249 59.9962 58.1064 61.1925 57.4043 61.9194C55.9909 63.3825 54.5313 64.7996 53.0902 66.2443C52.8316 66.502 52.5821 66.778 52.2958 67.0909C55.529 67.5602 57.3212 68.0019 59.4644 65.2781C59.9909 64.6064 60.6653 64.0175 61.3304 63.4745C62.1895 62.766 63.2611 62.8488 63.9817 63.5942C64.6468 64.2843 64.6468 65.2965 63.9632 66.1523C63.7138 66.4652 63.4366 66.7688 62.9101 67.3762C64.4528 67.3762 65.663 67.3762 66.8824 67.3762C67.7785 67.3762 68.5452 67.6982 68.9332 68.5356C69.4782 69.7227 68.6283 70.9649 67.2057 71.0385C65.9678 71.0937 64.7299 71.0477 63.1688 71.0477C63.6029 71.5906 63.8524 71.8851 64.0833 72.1888C64.8039 73.1182 64.7761 74.1028 64.0186 74.8205C63.2149 75.5843 62.2819 75.6211 61.3858 74.8205C60.5175 74.0476 59.6953 73.201 58.9009 72.3544C58.014 71.4158 56.9886 70.9557 55.6768 71.0293C54.633 71.0937 53.5798 71.0385 52.1942 71.0385C52.8778 71.7655 53.3397 72.2808 53.8293 72.7685C54.8916 73.8359 55.9817 74.8849 57.0348 75.9616C57.9216 76.8634 58.014 78.0136 57.3027 78.7866C56.5082 79.6516 55.4274 79.6699 54.4113 78.6945C52.4528 76.8173 50.402 75.0046 48.6745 72.9249C46.8085 70.6889 44.5267 70.8913 41.7554 71.1674C42.3004 71.5722 42.596 71.8207 42.9193 72.0139C44.4159 72.8973 45.9309 73.7439 47.4182 74.6273C48.5821 75.3174 48.8593 76.118 48.305 77.029C47.7415 77.9676 46.9748 78.1332 45.7646 77.4707C44.4066 76.7253 43.0856 75.9248 41.7461 75.161C41.238 74.8665 40.693 74.6273 40.111 74.342C40.1942 76.2928 41.9401 78.5381 43.6491 78.9982C46.4851 79.762 49.3212 80.5165 52.1572 81.2895C52.5914 81.4091 53.044 81.5195 53.432 81.7312C54.2819 82.1913 54.8916 82.8078 54.5406 83.9028C54.208 84.9243 53.3489 85.4672 52.2403 85.2187C50.3281 84.7862 48.4343 84.2801 46.5313 83.8292C46.1341 83.7372 45.7276 83.7004 45.3119 83.6268C45.4782 85.3936 47.4274 87.8597 48.9517 88.2922C50.1156 88.6234 51.2888 88.9087 52.4343 89.2676C53.7369 89.6817 54.3466 90.473 54.1803 91.4116C54.014 92.3594 53.1734 92.9484 51.8524 92.976C51.4182 92.9852 50.9748 92.8839 50.3281 92.8103C50.8731 93.7949 51.3535 94.6139 51.7969 95.4605C52.0371 95.9206 52.305 96.3991 52.4066 96.9052C52.5729 97.7426 52.5452 98.5891 51.5845 99.0216C50.6884 99.4265 49.7369 99.1229 49.1457 98.1935C48.6376 97.4021 48.2034 96.5647 47.7138 95.7641C47.566 95.5157 47.3627 95.2948 47.1226 94.9636C46.8824 95.5157 46.7346 95.9758 46.4944 96.3899C46.0233 97.2089 45.3304 97.6873 44.3327 97.3929C43.335 97.0984 42.79 96.3807 42.984 95.3501C43.2149 94.0986 43.5383 92.8563 43.9078 91.6417C44.2681 90.473 44.1387 89.4332 43.4921 88.4118C42.9193 87.5008 42.3928 86.5622 41.6722 85.3291C41.3304 86.4242 41.081 87.1879 40.8593 87.9609C40.4713 89.332 40.1203 90.7215 39.7138 92.0834C39.3628 93.2612 38.439 93.8225 37.4228 93.5465C36.342 93.252 35.7877 92.3686 36.0833 91.1908C36.8408 88.1725 37.626 85.1543 38.4759 82.1545C38.8085 80.9766 38.6884 79.9552 38.0233 78.943C37.5336 78.1976 37.1087 77.4155 36.6468 76.6425C36.536 76.6425 36.4251 76.6609 36.3143 76.6701L36.3235 76.6793Z" fill="white"/>
<path d="M9.3487 164.853C8.84985 164.853 8.56348 164.567 8.56348 164.052V153.792C8.56348 153.295 8.84985 153.01 9.33946 153.01C9.82906 153.01 10.1247 153.295 10.1247 153.792V163.518H15.4642C15.9168 163.518 16.1662 163.748 16.1662 164.172C16.1662 164.595 15.9168 164.853 15.4642 164.853H9.35793H9.3487Z" fill="white"/>
<path d="M23.3535 158.954C23.3535 155.246 25.469 152.918 28.8408 152.918C32.2126 152.918 34.3096 155.237 34.3096 158.936C34.3096 162.635 32.1757 165 28.8408 165C25.5059 165 23.3535 162.644 23.3535 158.954ZM32.6838 158.954C32.6838 155.982 31.2888 154.289 28.8408 154.289C26.3928 154.289 24.9979 155.991 24.9979 158.954C24.9979 161.917 26.4113 163.638 28.8408 163.638C31.2704 163.638 32.6838 161.917 32.6838 158.954Z" fill="white"/>
<path d="M42.9561 158.964C42.9561 155.237 45.09 152.918 48.6928 152.918C50.0692 152.918 51.4087 153.268 52.4803 154.087C53.1824 154.574 52.5265 155.743 51.7597 155.237C50.8544 154.565 49.8845 154.298 48.6928 154.298C46.023 154.298 44.6004 155.982 44.6004 158.964C44.6004 161.945 46.0415 163.629 48.896 163.629C49.8013 163.629 50.7066 163.482 51.5288 163.197V159.875H49.247C48.8313 159.875 48.5912 159.645 48.5912 159.258C48.5912 158.872 48.8221 158.669 49.247 158.669H52.2124C52.6189 158.669 52.8683 158.899 52.8683 159.323V163.62C52.8683 163.988 52.7297 164.236 52.4341 164.356C51.4918 164.742 50.0877 165.009 48.8406 165.009C45.0161 165.009 42.9561 162.718 42.9561 158.973V158.964Z" fill="white"/>
<path d="M62.2817 164.163V153.756C62.2817 153.24 62.5681 152.955 63.0577 152.955C63.5473 152.955 63.8429 153.24 63.8429 153.756V164.163C63.8429 164.678 63.575 164.964 63.0577 164.964C62.5681 164.964 62.2817 164.678 62.2817 164.163Z" fill="white"/>
<path d="M73.1271 163.877C72.3511 163.362 72.9238 162.157 73.7275 162.672C74.7345 163.353 75.843 163.657 77.2195 163.657C79.1686 163.657 80.0924 162.874 80.0924 161.715C80.0924 160.758 79.4735 160.261 77.8938 159.948L76.1109 159.58C73.9954 159.148 72.97 158.145 72.97 156.424C72.97 154.317 74.7622 152.918 77.3488 152.918C78.7437 152.918 79.9816 153.286 80.9516 154.041C81.6352 154.556 81.0994 155.679 80.2495 155.145C79.3626 154.528 78.4389 154.261 77.3303 154.261C75.6213 154.261 74.5312 155.117 74.5312 156.387C74.5312 157.409 75.1225 157.961 76.582 158.255L78.3465 158.605C80.582 159.074 81.6536 159.994 81.6536 161.632C81.6536 163.638 79.9631 165.009 77.2287 165.009C75.649 165.009 74.171 164.623 73.1363 163.887L73.1271 163.877Z" fill="white"/>
<path d="M93.0068 164.163V154.391H89.3301C88.8959 154.391 88.6465 154.142 88.6465 153.719C88.6465 153.295 88.8959 153.065 89.3301 153.065H98.2354C98.6696 153.065 98.919 153.295 98.919 153.719C98.919 154.142 98.6696 154.391 98.2354 154.391H94.5587V164.163C94.5587 164.678 94.2908 164.964 93.7827 164.964C93.2747 164.964 92.9975 164.678 92.9975 164.163H93.0068Z" fill="white"/>
<path d="M106.975 164.163V153.756C106.975 153.24 107.261 152.955 107.751 152.955C108.24 152.955 108.536 153.24 108.536 153.756V164.163C108.536 164.678 108.268 164.964 107.751 164.964C107.261 164.964 106.975 164.678 106.975 164.163Z" fill="white"/>
<path d="M117.589 158.954C117.589 155.246 119.686 152.918 123.224 152.918C124.582 152.918 125.875 153.323 126.762 154.004C127.63 154.602 126.91 155.807 126.023 155.191C125.238 154.593 124.314 154.326 123.252 154.326C120.656 154.326 119.242 156.001 119.242 158.954C119.242 161.908 120.656 163.601 123.252 163.601C124.305 163.601 125.266 163.316 126.069 162.718C126.956 162.12 127.593 163.27 126.845 163.841C125.903 164.614 124.61 165.009 123.224 165.009C119.686 165.009 117.589 162.69 117.589 158.964V158.954Z" fill="white"/>
</g>
<defs>
<clipPath id="clip0_7796_198">
<rect width="128" height="165" fill="white"/>
</clipPath>
</defs>
</svg>
