<svg width="48" height="48" viewBox="0 0 48 48" fill="none" xmlns="http://www.w3.org/2000/svg">
<path d="M46.4 6.4H42.4904L18.2456 0.9256C18.1175 0.649924 17.9134 0.416457 17.6574 0.252533C17.4014 0.0886089 17.104 0.00101261 16.8 0H13.6C13.2698 0.00147221 12.9482 0.105061 12.6792 0.296558C12.4102 0.488056 12.2071 0.758082 12.0976 1.0696L2.1984 6.4H1.6C1.17565 6.4 0.768687 6.56857 0.468629 6.86863C0.168571 7.16869 0 7.57565 0 8V9.6C0 10.0243 0.168571 10.4313 0.468629 10.7314C0.768687 11.0314 1.17565 11.2 1.6 11.2H10.4V13.6C10.4021 14.0946 10.5569 14.5765 10.8433 14.9798C11.1297 15.383 11.5337 15.6879 12 15.8528V38.4C11.3635 38.4 10.753 38.6529 10.3029 39.1029C9.85286 39.553 9.6 40.1635 9.6 40.8V41.7472C9.13367 41.9121 8.72967 42.217 8.44327 42.6202C8.15687 43.0235 8.00205 43.5054 8 44V46.4C8 46.8243 8.16857 47.2313 8.46863 47.5314C8.76869 47.8314 9.17565 48 9.6 48H20.8C21.2243 48 21.6313 47.8314 21.9314 47.5314C22.2314 47.2313 22.4 46.8243 22.4 46.4V44C22.3979 43.5054 22.2431 43.0235 21.9567 42.6202C21.6703 42.217 21.2663 41.9121 20.8 41.7472V40.8C20.8 40.1635 20.5471 39.553 20.0971 39.1029C19.647 38.6529 19.0365 38.4 18.4 38.4V16C19.2487 16 20.0626 15.6629 20.6627 15.0627C21.2629 14.4626 21.6 13.6487 21.6 12.8V11.2H40V14.4H39.2C38.7757 14.4 38.3687 14.5686 38.0686 14.8686C37.7686 15.1687 37.6 15.5757 37.6 16V19.2C37.6 19.6243 37.7686 20.0313 38.0686 20.3314C38.3687 20.6314 38.7757 20.8 39.2 20.8H42.4C42.8243 20.8 43.2313 20.6314 43.5314 20.3314C43.8314 20.0313 44 19.6243 44 19.2V16C44 15.5757 43.8314 15.1687 43.5314 14.8686C43.2313 14.5686 42.8243 14.4 42.4 14.4H41.6V11.2H46.4C46.8243 11.2 47.2313 11.0314 47.5314 10.7314C47.8314 10.4313 48 10.0243 48 9.6V8C48 7.57565 47.8314 7.16869 47.5314 6.86863C47.2313 6.56857 46.8243 6.4 46.4 6.4ZM42.4 19.2H39.2V16H42.4V19.2ZM16.8 6.4H18.4C18.8243 6.4 19.2313 6.56857 19.5314 6.86863C19.8314 7.16869 20 7.57565 20 8V10.4H17.6C17.3878 10.4 17.1843 10.3157 17.0343 10.1657C16.8843 10.0157 16.8 9.81217 16.8 9.6V6.4ZM18.4 4.8V2.6008L35.224 6.4H21.1552C20.8765 5.91519 20.4753 5.51217 19.9917 5.23134C19.5081 4.95052 18.9592 4.80177 18.4 4.8ZM13.6 1.6H16.8V4.8H13.6V1.6ZM12 2.9392V4.9472C11.6654 5.06672 11.3615 5.25904 11.1103 5.51028C10.859 5.76152 10.6667 6.0654 10.5472 6.4H5.5736L12 2.9392ZM1.6 9.6V8H10.4V9.6H1.6ZM9.6 46.4V44C9.6 43.7878 9.68429 43.5843 9.83432 43.4343C9.98434 43.2843 10.1878 43.2 10.4 43.2H20C20.2122 43.2 20.4157 43.2843 20.5657 43.4343C20.7157 43.5843 20.8 43.7878 20.8 44V46.4H9.6ZM19.2 40.8V41.6H11.2V40.8C11.2 40.5878 11.2843 40.3843 11.4343 40.2343C11.5843 40.0843 11.7878 40 12 40H18.4C18.6122 40 18.8157 40.0843 18.9657 40.2343C19.1157 40.3843 19.2 40.5878 19.2 40.8ZM16.8 38.4H13.6V16H16.8V38.4ZM18.4 14.4H12.8C12.5878 14.4 12.3843 14.3157 12.2343 14.1657C12.0843 14.0157 12 13.8122 12 13.6V7.2C12 6.98783 12.0843 6.78434 12.2343 6.63432C12.3843 6.48429 12.5878 6.4 12.8 6.4H15.2V9.6C15.2 10.2365 15.4529 10.847 15.9029 11.2971C16.353 11.7471 16.9635 12 17.6 12H20V12.8C20 13.2243 19.8314 13.6313 19.5314 13.9314C19.2313 14.2314 18.8243 14.4 18.4 14.4ZM46.4 9.6H21.6V8H46.4V9.6Z" fill="#244E93"/>
<path d="M46.4 21.6H44.8C44.3757 21.6 43.9687 21.7686 43.6686 22.0686C43.3686 22.3687 43.2 22.7757 43.2 23.2V24H38.4V23.2C38.4 22.7757 38.2314 22.3687 37.9314 22.0686C37.6313 21.7686 37.2243 21.6 36.8 21.6H35.2C34.7757 21.6 34.3687 21.7686 34.0686 22.0686C33.7686 22.3687 33.6 22.7757 33.6 23.2V30.4H28.8V29.6C28.8 29.1757 28.6314 28.7687 28.3314 28.4686C28.0313 28.1686 27.6243 28 27.2 28H25.6C25.1757 28 24.7687 28.1686 24.4686 28.4686C24.1686 28.7687 24 29.1757 24 29.6V46.4C24 46.8243 24.1686 47.2313 24.4686 47.5314C24.7687 47.8314 25.1757 48 25.6 48H46.4C46.8243 48 47.2313 47.8314 47.5314 47.5314C47.8314 47.2313 48 46.8243 48 46.4V23.2C48 22.7757 47.8314 22.3687 47.5314 22.0686C47.2313 21.7686 46.8243 21.6 46.4 21.6ZM46.4 46.4H25.6V29.6H27.2V31.2C27.2 31.4122 27.2843 31.6157 27.4343 31.7657C27.5843 31.9157 27.7878 32 28 32H34.4C34.6122 32 34.8157 31.9157 34.9657 31.7657C35.1157 31.6157 35.2 31.4122 35.2 31.2V23.2H36.8V24.8C36.8 25.0122 36.8843 25.2157 37.0343 25.3657C37.1843 25.5157 37.3878 25.6 37.6 25.6H44C44.2122 25.6 44.4157 25.5157 44.5657 25.3657C44.7157 25.2157 44.8 25.0122 44.8 24.8V23.2H46.4V46.4Z" fill="#244E93"/>
<path d="M33.6 33.6H28.8C28.3757 33.6 27.9687 33.7686 27.6686 34.0686C27.3686 34.3687 27.2 34.7757 27.2 35.2V36.8C27.2 37.2243 27.3686 37.6313 27.6686 37.9314C27.9687 38.2314 28.3757 38.4 28.8 38.4H33.6C34.0243 38.4 34.4313 38.2314 34.7314 37.9314C35.0314 37.6313 35.2 37.2243 35.2 36.8V35.2C35.2 34.7757 35.0314 34.3687 34.7314 34.0686C34.4313 33.7686 34.0243 33.6 33.6 33.6ZM28.8 36.8V35.2H33.6V36.8H28.8Z" fill="#244E93"/>
<path d="M33.6 40H28.8C28.3757 40 27.9687 40.1686 27.6686 40.4686C27.3686 40.7687 27.2 41.1757 27.2 41.6V43.2C27.2 43.6243 27.3686 44.0313 27.6686 44.3314C27.9687 44.6314 28.3757 44.8 28.8 44.8H33.6C34.0243 44.8 34.4313 44.6314 34.7314 44.3314C35.0314 44.0313 35.2 43.6243 35.2 43.2V41.6C35.2 41.1757 35.0314 40.7687 34.7314 40.4686C34.4313 40.1686 34.0243 40 33.6 40ZM28.8 43.2V41.6H33.6V43.2H28.8Z" fill="#244E93"/>
<path d="M43.2 33.6H38.4C37.9757 33.6 37.5687 33.7686 37.2686 34.0686C36.9686 34.3687 36.8 34.7757 36.8 35.2V36.8C36.8 37.2243 36.9686 37.6313 37.2686 37.9314C37.5687 38.2314 37.9757 38.4 38.4 38.4H43.2C43.6243 38.4 44.0313 38.2314 44.3314 37.9314C44.6314 37.6313 44.8 37.2243 44.8 36.8V35.2C44.8 34.7757 44.6314 34.3687 44.3314 34.0686C44.0313 33.7686 43.6243 33.6 43.2 33.6ZM38.4 36.8V35.2H43.2V36.8H38.4Z" fill="#244E93"/>
<path d="M43.2 27.2H38.4C37.9757 27.2 37.5687 27.3686 37.2686 27.6686C36.9686 27.9687 36.8 28.3757 36.8 28.8V30.4C36.8 30.8243 36.9686 31.2313 37.2686 31.5314C37.5687 31.8314 37.9757 32 38.4 32H43.2C43.6243 32 44.0313 31.8314 44.3314 31.5314C44.6314 31.2313 44.8 30.8243 44.8 30.4V28.8C44.8 28.3757 44.6314 27.9687 44.3314 27.6686C44.0313 27.3686 43.6243 27.2 43.2 27.2ZM38.4 30.4V28.8H43.2V30.4H38.4Z" fill="#244E93"/>
<path d="M43.2 40H38.4C37.9757 40 37.5687 40.1686 37.2686 40.4686C36.9686 40.7687 36.8 41.1757 36.8 41.6V43.2C36.8 43.6243 36.9686 44.0313 37.2686 44.3314C37.5687 44.6314 37.9757 44.8 38.4 44.8H43.2C43.6243 44.8 44.0313 44.6314 44.3314 44.3314C44.6314 44.0313 44.8 43.6243 44.8 43.2V41.6C44.8 41.1757 44.6314 40.7687 44.3314 40.4686C44.0313 40.1686 43.6243 40 43.2 40ZM38.4 43.2V41.6H43.2V43.2H38.4Z" fill="#244E93"/>
</svg>
