<svg width="61" height="54" viewBox="0 0 61 54" fill="none" xmlns="http://www.w3.org/2000/svg">
<path d="M15.9657 28.6875C15.4677 28.6879 14.9902 28.8659 14.6381 29.1823C14.286 29.4986 14.0879 29.9276 14.0874 30.375V48.0938C14.0879 48.5412 14.286 48.9701 14.6381 49.2865C14.9902 49.6029 15.4677 49.7808 15.9657 49.7812H19.8173C20.0337 50.734 20.6099 51.5903 21.4483 52.2053C22.2866 52.8203 23.3358 53.1562 24.4181 53.1562C25.5005 53.1562 26.5496 52.8203 27.388 52.2053C28.2264 51.5903 28.8025 50.734 29.019 49.7812H43.2962C43.5126 50.734 44.0888 51.5903 44.9272 52.2053C45.7656 52.8203 46.8147 53.1562 47.897 53.1562C48.9794 53.1562 50.0285 52.8203 50.8669 52.2053C51.7053 51.5903 52.2814 50.734 52.4979 49.7812H55.4103C56.1573 49.7805 56.8734 49.5136 57.4016 49.0391C57.9298 48.5645 58.2269 47.9211 58.2277 47.25V41.0315C58.2253 40.512 58.0484 40.0052 57.7201 39.5776L52.0416 32.2883C51.7794 31.9587 51.4338 31.6899 51.0332 31.504C50.6327 31.318 50.1886 31.2202 49.7378 31.2188H41.3229V30.375C41.3224 29.9276 41.1244 29.4986 40.7722 29.1823C40.4201 28.8659 39.9426 28.6879 39.4446 28.6875H15.9657ZM24.4181 51.4688C23.8609 51.4688 23.3162 51.3203 22.8528 51.0422C22.3895 50.764 22.0284 50.3687 21.8151 49.9062C21.6019 49.4436 21.5461 48.9347 21.6548 48.4437C21.7635 47.9527 22.0318 47.5016 22.4259 47.1476C22.8199 46.7936 23.3219 46.5526 23.8685 46.4549C24.415 46.3572 24.9815 46.4073 25.4963 46.5989C26.0111 46.7905 26.4512 47.115 26.7608 47.5312C27.0703 47.9475 27.2356 48.4369 27.2356 48.9375C27.2348 49.6086 26.9377 50.252 26.4095 50.7266C25.8813 51.2011 25.1651 51.468 24.4181 51.4688ZM39.4446 48.0938H29.019C28.8025 47.141 28.2264 46.2847 27.388 45.6697C26.5496 45.0547 25.5005 44.7188 24.4181 44.7188C23.3358 44.7188 22.2866 45.0547 21.4483 45.6697C20.6099 46.2847 20.0337 47.141 19.8173 48.0938H15.9657V30.375H39.4446V48.0938ZM47.897 51.4688C47.3398 51.4688 46.7951 51.3203 46.3317 51.0422C45.8684 50.764 45.5073 50.3687 45.294 49.9062C45.0808 49.4436 45.025 48.9347 45.1337 48.4437C45.2424 47.9527 45.5107 47.5016 45.9048 47.1476C46.2988 46.7936 46.8008 46.5526 47.3474 46.4549C47.8939 46.3572 48.4604 46.4073 48.9752 46.5989C49.4901 46.7905 49.9301 47.115 50.2397 47.5312C50.5493 47.9475 50.7145 48.4369 50.7145 48.9375C50.7137 49.6086 50.4166 50.252 49.8884 50.7266C49.3602 51.2011 48.644 51.468 47.897 51.4688ZM52.2023 35.4375L54.8316 38.8125H46.0187V35.4375H52.2023ZM41.3229 32.9062H49.7378C49.8885 32.907 50.0369 32.9397 50.1709 33.0018C50.3048 33.0639 50.4206 33.1535 50.5086 33.2634L50.8877 33.75H45.0796C44.8305 33.75 44.5916 33.8389 44.4155 33.9971C44.2393 34.1554 44.1404 34.37 44.1404 34.5938V39.6562C44.1404 39.88 44.2393 40.0946 44.4155 40.2529C44.5916 40.4111 44.8305 40.5 45.0796 40.5H56.1462L56.1729 40.5342C56.2859 40.6803 56.3474 40.8536 56.3494 41.0315V47.25C56.3491 47.4737 56.2501 47.6881 56.074 47.8463C55.898 48.0045 55.6593 48.0935 55.4103 48.0938H52.4979C52.2814 47.141 51.7053 46.2847 50.8669 45.6697C50.0285 45.0547 48.9794 44.7188 47.897 44.7188C46.8147 44.7188 45.7656 45.0547 44.9272 45.6697C44.0888 46.2847 43.5126 47.141 43.2962 48.0938H41.3229V32.9062Z" fill="#244E93"/>
<path d="M1.87842 33.75H12.2091V35.4375H1.87842V33.75Z" fill="#244E93"/>
<path d="M3.75684 38.8125H12.2092V40.5H3.75684V38.8125Z" fill="#244E93"/>
<path d="M5.63477 43.875H12.2089V45.5625H5.63477V43.875Z" fill="#244E93"/>
<path d="M11.2701 19.4062C11.4143 19.4062 11.5565 19.3764 11.6858 19.3191C11.8151 19.2618 11.928 19.1786 12.0158 19.0758C12.7082 18.2638 18.7833 11.0425 18.7833 7.59375C18.7833 5.80354 17.9918 4.08665 16.5828 2.82078C15.1737 1.55491 13.2627 0.84375 11.2701 0.84375C9.27745 0.84375 7.36642 1.55491 5.95742 2.82078C4.54841 4.08665 3.75684 5.80354 3.75684 7.59375C3.75684 11.0425 9.832 18.2638 10.5244 19.0758C10.6122 19.1786 10.7252 19.2618 10.8544 19.3191C10.9837 19.3763 11.1259 19.4062 11.2701 19.4062ZM11.2701 2.53125C12.7641 2.53272 14.1964 3.06656 15.2528 4.01564C16.3092 4.96473 16.9034 6.25154 16.905 7.59375C16.905 9.74144 13.335 14.5988 11.2701 17.1498C9.20514 14.5988 5.63515 9.74144 5.63515 7.59375C5.63678 6.25154 6.23099 4.96473 7.28739 4.01564C8.34379 3.06656 9.77611 2.53272 11.2701 2.53125Z" fill="#244E93"/>
<path d="M15.4959 7.59375C15.4959 6.8428 15.248 6.10871 14.7836 5.48432C14.3192 4.85993 13.6592 4.37327 12.887 4.0859C12.1147 3.79852 11.265 3.72333 10.4452 3.86983C9.62537 4.01634 8.87233 4.37795 8.28129 4.90896C7.69024 5.43996 7.28773 6.1165 7.12466 6.85302C6.9616 7.58954 7.04529 8.35296 7.36516 9.04675C7.68503 9.74054 8.22671 10.3335 8.92171 10.7507C9.61671 11.1679 10.4338 11.3906 11.2697 11.3906C12.3901 11.3895 13.4644 10.9892 14.2567 10.2773C15.049 9.56552 15.4946 8.60041 15.4959 7.59375ZM8.92177 7.59375C8.92177 7.17656 9.05947 6.76873 9.31746 6.42185C9.57545 6.07496 9.94214 5.8046 10.3712 5.64494C10.8002 5.48529 11.2723 5.44352 11.7277 5.52491C12.1832 5.6063 12.6015 5.8072 12.9299 6.1022C13.2582 6.3972 13.4818 6.77305 13.5724 7.18223C13.663 7.59141 13.6165 8.01554 13.4388 8.40098C13.2611 8.78641 12.9602 9.11585 12.5741 9.34763C12.188 9.57941 11.734 9.70313 11.2697 9.70313C10.6472 9.70247 10.0504 9.48002 9.61026 9.08458C9.1701 8.68914 8.9225 8.15299 8.92177 7.59375Z" fill="#244E93"/>
<path d="M48.836 21.0938C48.9802 21.0937 49.1224 21.0639 49.2517 21.0066C49.381 20.9493 49.4939 20.8661 49.5817 20.7633C50.2741 19.9513 56.3493 12.73 56.3493 9.28125C56.3493 7.49104 55.5577 5.77415 54.1487 4.50828C52.7397 3.24241 50.8286 2.53125 48.836 2.53125C46.8434 2.53125 44.9323 3.24241 43.5233 4.50828C42.1143 5.77415 41.3228 7.49104 41.3228 9.28125C41.3228 12.73 47.3979 19.9513 48.0903 20.7633C48.1781 20.8661 48.291 20.9493 48.4203 21.0066C48.5496 21.0639 48.6918 21.0937 48.836 21.0938ZM48.836 4.21875C50.33 4.22022 51.7623 4.75406 52.8187 5.70314C53.8751 6.65223 54.4693 7.93904 54.4709 9.28125C54.4709 11.4289 50.901 16.2863 48.836 18.8373C46.7711 16.2863 43.2011 11.4289 43.2011 9.28125C43.2027 7.93904 43.7969 6.65223 44.8533 5.70314C45.9097 4.75406 47.342 4.22022 48.836 4.21875Z" fill="#244E93"/>
<path d="M53.0623 9.28125C53.0623 8.5303 52.8144 7.79621 52.35 7.17182C51.8856 6.54743 51.2256 6.06077 50.4534 5.7734C49.6811 5.48602 48.8314 5.41083 48.0116 5.55733C47.1918 5.70384 46.4387 6.06545 45.8477 6.59646C45.2566 7.12746 44.8541 7.804 44.6911 8.54052C44.528 9.27704 44.6117 10.0405 44.9316 10.7343C45.2514 11.428 45.7931 12.021 46.4881 12.4382C47.1831 12.8554 48.0002 13.0781 48.8361 13.0781C49.9566 13.077 51.0308 12.6767 51.8231 11.9648C52.6154 11.253 53.0611 10.2879 53.0623 9.28125ZM46.4882 9.28125C46.4882 8.86406 46.6259 8.45623 46.8839 8.10935C47.1419 7.76246 47.5085 7.4921 47.9376 7.33244C48.3666 7.17279 48.8387 7.13102 49.2941 7.21241C49.7496 7.2938 50.1679 7.4947 50.4963 7.7897C50.8246 8.0847 51.0482 8.46055 51.1388 8.86973C51.2294 9.27891 51.1829 9.70304 51.0052 10.0885C50.8275 10.4739 50.5266 10.8034 50.1405 11.0351C49.7544 11.2669 49.3004 11.3906 48.8361 11.3906C48.2136 11.39 47.6168 11.1675 47.1767 10.7721C46.7365 10.3766 46.4889 9.84049 46.4882 9.28125Z" fill="#244E93"/>
<path d="M44.7782 23.625C45.439 23.623 46.0991 23.5884 46.7556 23.5212L46.545 21.8444C45.9573 21.9044 45.3664 21.9355 44.7749 21.9377L44.7782 23.625Z" fill="#244E93"/>
<path d="M43.0244 21.8412C42.449 21.7749 41.88 21.6704 41.3218 21.5287L40.8071 23.1515C41.4544 23.316 42.1143 23.4375 42.7814 23.515L43.0244 21.8412Z" fill="#244E93"/>
<path d="M39.7052 20.9862C39.1835 20.7658 38.6824 20.5079 38.2069 20.2151L37.1538 21.6124C37.7109 21.9548 38.2977 22.2565 38.9085 22.5146L39.7052 20.9862Z" fill="#244E93"/>
<path d="M17.7984 18.324C17.2043 18.4793 16.5935 18.6529 15.9658 18.8451L16.5757 20.4417C17.1732 20.2574 17.7558 20.0915 18.3234 19.944L17.7984 18.324Z" fill="#244E93"/>
<path d="M36.722 19.2409C36.1881 18.8801 35.6274 18.5525 35.0439 18.2604L34.144 19.7421C34.6537 19.9973 35.1431 20.2839 35.6087 20.5999L36.722 19.2409Z" fill="#244E93"/>
<path d="M21.8857 19.183L21.5428 17.5242C20.9417 17.6242 20.3138 17.7437 19.6592 17.8826L20.0939 19.5241C20.7161 19.3912 21.3142 19.2786 21.8857 19.183Z" fill="#244E93"/>
<path d="M25.5121 18.7509L25.3624 17.0685C24.7793 17.1104 24.1387 17.1695 23.4458 17.2521L23.6933 18.9249C24.3511 18.8463 24.9593 18.7908 25.5121 18.7509Z" fill="#244E93"/>
<path d="M32.5749 19.1312L33.1736 17.532C32.9889 17.4763 32.7965 17.4225 32.5963 17.3707C32.1423 17.2529 31.6815 17.1575 31.2159 17.0851L30.8965 18.748C31.2953 18.8102 31.69 18.892 32.0789 18.9929C32.2514 19.037 32.4167 19.083 32.5749 19.1312Z" fill="#244E93"/>
<path d="M29.1661 18.6025L29.2105 16.9157C28.6451 16.9035 28.0434 16.9152 27.2598 16.9534L27.3615 18.6385C28.0945 18.6026 28.6511 18.5917 29.1661 18.6025Z" fill="#244E93"/>
</svg>
