<svg width="255" height="40" viewBox="0 0 255 40" fill="none" xmlns="http://www.w3.org/2000/svg">
<g clip-path="url(#clip0_2_3165)">
<path d="M31.6902 18.3343C32.3311 18.9176 32.972 19.4728 33.5795 20.0673C35.5413 22.0079 36.6839 24.3466 36.8399 27.1228C37.035 30.6057 35.7308 33.5053 33.2451 35.8497C30.9266 38.037 28.1009 39.2485 24.9798 39.7196C23.8484 39.8934 22.6892 39.9776 21.5411 39.9832C15.3156 40.0056 9.09579 39.9944 2.87035 39.9944C2.32973 39.9944 2.05664 39.7196 2.05664 39.1643C2.05664 37.392 2.05664 35.6141 2.05664 33.8418C2.05664 33.2473 2.31859 32.9893 2.92051 32.9893C8.47157 32.9893 14.0171 32.9893 19.5681 32.9725C20.7943 32.9725 22.0427 32.9837 23.241 32.7706C24.8851 32.479 26.3119 31.6545 27.1757 30.157C28.5078 27.8351 27.8836 25.3954 25.7991 23.7858C24.7625 22.9837 23.5475 22.6809 22.26 22.6528C21.7027 22.6416 21.3962 22.3612 21.3906 21.7891C21.3795 19.9047 21.385 18.0202 21.3906 16.1413C21.3906 15.8048 21.5968 15.5917 21.9925 15.4627C22.9177 15.1711 23.7537 14.728 24.4615 14.0438C26.1948 12.378 25.8158 10.1234 24.5005 8.69883C23.4639 7.57152 22.143 7.01067 20.6048 7.01628C17.5338 7.02188 14.4685 7.03871 11.3976 7.03871C8.56632 7.03871 5.74063 7.03871 2.90936 7.0331C2.30187 7.0331 2.06221 6.78633 2.06221 6.175C2.06221 4.4027 2.06221 2.6248 2.06221 0.852508C2.06221 0.286047 2.33531 0.0112294 2.90379 0.0112294C8.97317 0.0112294 15.0481 -0.0224217 21.1175 0.0224464C24.5395 0.0504891 27.7275 0.953461 30.4306 3.152C32.3311 4.69435 33.7356 6.61246 34.3654 9.04095C35.1456 12.0359 34.5214 14.7336 32.6711 17.1677C32.3701 17.5659 32.0301 17.9361 31.6957 18.3343H31.6902Z" fill="white"/>
<path d="M10.4611 22.3051C10.4444 22.4285 10.411 22.5519 10.4054 22.6753C10.3998 23.1576 10.4054 23.6399 10.3942 24.1223C10.3942 24.5037 10.227 24.7112 9.93722 24.7224C9.65856 24.728 9.46349 24.5093 9.45234 24.1391C9.44119 23.5951 9.45234 23.0454 9.45234 22.4958C9.45234 22.4341 9.43562 22.3724 9.41333 22.2546C8.98418 22.5407 8.80026 22.9389 8.76682 23.3876C8.74452 23.6624 8.80583 23.954 8.87271 24.2232C9.05663 24.9523 9.26285 25.6758 9.45791 26.4049C9.48578 26.5171 9.49693 26.6405 9.49693 26.7639C9.49693 27.0219 9.36874 27.235 9.11794 27.2574C8.93959 27.2743 8.73338 27.1789 8.5829 27.0724C8.48258 27.0051 8.43799 26.8368 8.39898 26.7022C8.25964 26.2199 8.13703 25.7319 8.00884 25.2496C7.9754 25.115 7.92524 24.986 7.86393 24.8065C7.36791 25.4851 6.90532 26.0965 7.32889 26.9546C7.42921 27.1565 7.45708 27.392 7.50167 27.6164C7.56855 27.9529 7.36791 28.2558 7.0558 28.295C6.7214 28.3399 6.45945 28.1099 6.43158 27.7398C6.43158 27.6781 6.41486 27.6164 6.39257 27.465C6.27553 27.5827 6.18636 27.65 6.13062 27.7342C5.97457 27.9865 5.84081 28.2501 5.68475 28.4969C5.48969 28.811 5.20545 28.8951 4.93793 28.7437C4.66483 28.5867 4.59795 28.3118 4.7763 27.9753C4.9435 27.6613 5.12185 27.3584 5.32249 27.0051C5.11627 27.0275 4.98251 27.0555 4.84318 27.0555C4.49763 27.0668 4.31371 26.9209 4.26355 26.6125C4.21339 26.3208 4.35272 26.0853 4.65926 25.9843C4.97694 25.8834 5.30019 25.7824 5.63459 25.7207C6.01358 25.6534 6.25881 25.4515 6.42601 25.115C6.55977 24.857 6.71583 24.6046 6.89975 24.2793C6.73254 24.3017 6.63222 24.3017 6.53748 24.3298C6.04145 24.4588 5.55099 24.599 5.05497 24.7112C4.88219 24.7504 4.65368 24.7729 4.5255 24.6887C4.38059 24.5934 4.2524 24.3747 4.23011 24.1952C4.19667 23.926 4.41403 23.7577 4.65926 23.6904C5.24446 23.5166 5.82966 23.3651 6.41486 23.2081C6.66566 23.1408 6.91647 23.051 7.17284 23.0062C7.91967 22.8828 8.059 22.2322 8.35996 21.7218C8.34324 21.6938 8.32652 21.6713 8.30423 21.6433C8.15375 21.7106 8.00327 21.7723 7.85836 21.8564C7.45708 22.0808 7.06695 22.3163 6.66566 22.5351C6.35356 22.7033 6.09161 22.636 5.95785 22.3892C5.82966 22.1481 5.92441 21.8789 6.2198 21.6994C6.6378 21.447 7.06695 21.2114 7.49052 20.9591C7.60199 20.8918 7.70231 20.7964 7.78591 20.6786C7.15612 20.6001 6.54305 20.4767 6.0303 21.0264C5.4451 21.6601 4.82646 22.2602 4.21896 22.8716C3.92915 23.1632 3.6059 23.1913 3.36067 22.9613C3.10987 22.7258 3.13773 22.4117 3.43869 22.1032C3.81768 21.7106 4.20782 21.3292 4.5868 20.9366C4.66483 20.8525 4.73729 20.7628 4.87105 20.6113C4.35272 20.6113 3.91243 20.6001 3.47771 20.6226C3.36624 20.6282 3.2492 20.7403 3.16003 20.8245C2.87579 21.0937 2.60826 21.3853 2.31845 21.6489C2.01192 21.9349 1.71653 21.9462 1.48245 21.705C1.25951 21.4807 1.27623 21.1946 1.52703 20.8862C1.58277 20.8189 1.63293 20.7516 1.75554 20.6001C1.40999 20.6001 1.1369 20.6001 0.863806 20.6001C0.702179 20.6001 0.534978 20.6001 0.378924 20.5553C0.12255 20.4823 -0.0279302 20.286 -0.00563677 20.0168C0.0166566 19.714 0.234017 19.5513 0.523832 19.5345C0.880526 19.5177 1.23722 19.5345 1.67194 19.5345C1.58277 19.4111 1.53818 19.3326 1.48245 19.2653C1.22607 18.94 1.2205 18.6371 1.46573 18.4184C1.70538 18.2053 2.01192 18.2389 2.30173 18.5194C2.54696 18.7549 2.78661 18.9905 3.01512 19.2372C3.21576 19.4504 3.44984 19.5457 3.73966 19.5401C4.07406 19.5289 4.40846 19.5401 4.83203 19.5401C4.70942 19.3943 4.64254 19.3046 4.56451 19.226C4.19667 18.8503 3.82326 18.4857 3.46656 18.1043C3.17117 17.7902 3.16003 17.521 3.40525 17.2687C3.63933 17.0331 3.90686 17.0275 4.20782 17.3135C4.82646 17.9136 5.45067 18.5081 6.0303 19.1475C6.52633 19.6971 7.11153 19.5569 7.73575 19.4392C7.62985 19.3606 7.53511 19.2709 7.41807 19.2036C7.00564 18.9568 6.58764 18.7325 6.18078 18.4745C5.85196 18.2614 5.80737 17.9136 6.05817 17.6781C6.26438 17.4874 6.48732 17.5603 6.69353 17.6781C7.10039 17.908 7.50167 18.1548 7.90852 18.3848C8.05343 18.4633 8.22063 18.5081 8.37668 18.5698C8.3934 18.5418 8.40455 18.5137 8.42127 18.4857C8.23735 18.1772 8.0813 17.8576 7.86951 17.5715C7.76361 17.4313 7.56855 17.3247 7.3902 17.2687C6.53748 17.0163 5.67361 16.7919 4.81531 16.5508C4.68155 16.5115 4.54222 16.4722 4.42518 16.3993C4.17438 16.2423 4.06291 16.0236 4.19667 15.7319C4.32486 15.4459 4.56451 15.3561 4.84318 15.4235C5.42281 15.5637 5.99686 15.7263 6.57649 15.8834C6.66566 15.9058 6.76041 15.9226 6.92204 15.8834C6.68238 15.4795 6.4706 15.0533 6.18078 14.6943C6.0526 14.5373 5.74606 14.5261 5.52313 14.4588C5.27233 14.3859 5.01595 14.3298 4.77073 14.2513C4.4196 14.1391 4.23011 13.8867 4.29142 13.6119C4.36387 13.281 4.63139 13.1183 5.01595 13.1744C5.12185 13.1913 5.22217 13.2081 5.39494 13.2417C5.18873 12.866 5.01595 12.5407 4.83761 12.221C4.69827 11.963 4.68712 11.7218 4.92121 11.5087C5.17201 11.2844 5.5287 11.3461 5.72934 11.6601C5.91884 11.963 6.09161 12.2771 6.3034 12.636C6.35913 12.4958 6.39814 12.4061 6.43716 12.3107C6.57649 11.9686 6.83844 11.806 7.11153 11.8845C7.43479 11.9798 7.58527 12.2602 7.49052 12.6416C7.40135 13.0006 7.26759 13.3539 7.21185 13.7185C7.17841 13.9372 7.223 14.1896 7.31217 14.3915C7.45708 14.7168 7.66329 15.014 7.8918 15.4066C7.99212 15.0533 8.07572 14.7673 8.15375 14.4868C8.2485 14.1391 8.33767 13.7914 8.44356 13.4436C8.54946 13.0847 8.81141 12.9277 9.12909 13.0174C9.45234 13.1071 9.5861 13.3595 9.48578 13.7409C9.28514 14.5205 9.09565 15.3113 8.86156 16.0796C8.70551 16.59 8.72223 17.0387 9.06221 17.465C9.17367 17.6052 9.2517 17.7734 9.42447 17.9136C9.44119 17.751 9.47463 17.5827 9.48021 17.4201C9.48578 16.9602 9.48021 16.5003 9.48578 16.0404C9.49693 15.6702 9.65855 15.502 9.96509 15.5076C10.2493 15.5132 10.3998 15.6927 10.4054 16.0404C10.411 16.4891 10.4054 16.9378 10.4165 17.3864C10.4165 17.5603 10.4444 17.7286 10.4555 17.9024C10.4834 17.9136 10.5113 17.9249 10.5391 17.9361C10.6952 17.6837 10.829 17.4145 11.0185 17.1901C11.2525 16.9097 11.1745 16.6349 11.0965 16.332C10.8568 15.4459 10.6283 14.5597 10.4054 13.668C10.3106 13.2754 10.4611 13.0062 10.7899 12.9277C11.0798 12.8604 11.3529 13.0454 11.4587 13.4044C11.6427 14.055 11.8154 14.7056 12.0384 15.3618C12.3059 14.7841 12.9691 14.369 12.6514 13.5782C12.54 13.2978 12.4898 12.9894 12.4118 12.6921C12.317 12.3107 12.4564 12.0135 12.7685 11.9237C13.0527 11.8396 13.3258 12.0135 13.4652 12.3668C13.4986 12.4565 13.532 12.5463 13.5989 12.7145C13.8218 12.35 14.0058 12.0415 14.1953 11.7274C14.3346 11.4975 14.5185 11.3348 14.8083 11.4021C15.1539 11.4863 15.2988 11.834 15.1372 12.1817C15.0591 12.35 14.9588 12.507 14.8696 12.6697C14.7805 12.8267 14.6857 12.9837 14.5575 13.2025C14.747 13.18 14.8752 13.1576 15.009 13.1464C15.3322 13.124 15.5663 13.281 15.622 13.5558C15.6833 13.8475 15.5607 14.0886 15.2486 14.1952C14.9087 14.313 14.5631 14.4139 14.212 14.4868C13.8776 14.5541 13.6491 14.728 13.493 15.0365C13.3537 15.3169 13.1809 15.5805 12.9858 15.9226C13.1753 15.8946 13.2868 15.889 13.3983 15.8609C13.872 15.7431 14.3402 15.6085 14.8195 15.4908C14.9421 15.4627 15.0759 15.4459 15.204 15.4571C15.4493 15.4795 15.6053 15.6254 15.6611 15.8609C15.7224 16.1021 15.622 16.3096 15.4047 16.4106C15.1316 16.5339 14.8362 16.6293 14.5464 16.7078C13.9166 16.8817 13.2868 17.0499 12.657 17.2014C12.317 17.2855 12.0662 17.4537 11.9102 17.7734C11.7876 18.0146 11.6538 18.2445 11.5758 18.5474C11.6761 18.5081 11.782 18.4801 11.8767 18.4296C12.3115 18.1828 12.7462 17.9305 13.1809 17.6893C13.5265 17.4986 13.755 17.5435 13.9166 17.8071C14.0726 18.0595 13.989 18.3062 13.6546 18.5081C13.2366 18.7605 12.8075 18.9961 12.3839 19.2485C12.278 19.3102 12.1833 19.3999 12.0662 19.484C12.5678 19.7196 13.3816 19.6074 13.7382 19.2541C14.3457 18.654 14.9365 18.0482 15.5384 17.4425C15.6165 17.364 15.6889 17.2855 15.7725 17.2182C16.0289 17.0163 16.3633 17.0387 16.5639 17.2687C16.7311 17.4537 16.7256 17.8015 16.5249 18.0146C16.1181 18.4408 15.6945 18.8559 15.2821 19.2709C15.2096 19.3438 15.1372 19.4279 15.0536 19.5177C15.9843 19.6523 16.4971 19.7813 17.1157 18.9905C17.2662 18.7942 17.4612 18.6259 17.6507 18.4633C17.896 18.2558 18.2081 18.2838 18.4143 18.4969C18.6094 18.6988 18.6038 18.9905 18.4143 19.2429C18.3418 19.3326 18.2638 19.4223 18.1078 19.5962C18.5536 19.5962 18.8992 19.5962 19.2503 19.5962C19.5067 19.5962 19.7296 19.6859 19.8411 19.9327C19.9971 20.2804 19.7519 20.6394 19.345 20.6618C18.9883 20.6786 18.6317 20.6618 18.1858 20.6618C18.3084 20.8189 18.3808 20.903 18.4477 20.9927C18.6539 21.2619 18.6484 21.548 18.4254 21.7611C18.1914 21.9798 17.9238 21.9966 17.6675 21.7611C17.4167 21.5367 17.1826 21.29 16.9485 21.0432C16.6921 20.7684 16.3967 20.6338 16.0177 20.6562C15.7168 20.673 15.4158 20.6562 15.0145 20.6562C15.2096 20.8693 15.3434 21.0152 15.4827 21.161C15.7892 21.4694 16.1013 21.7779 16.4079 22.092C16.6643 22.3556 16.6866 22.6921 16.4859 22.9164C16.2574 23.1688 15.9453 23.1744 15.6499 22.8884C15.087 22.3444 14.4962 21.8116 13.9946 21.2114C13.4596 20.5609 12.8019 20.6226 12.0049 20.7011C12.161 20.8189 12.2446 20.8918 12.3393 20.9478C12.7685 21.2058 13.2088 21.4526 13.6379 21.7106C13.9723 21.9125 14.0504 22.1425 13.8943 22.4117C13.7327 22.6865 13.5097 22.7314 13.1642 22.5407C12.7741 22.3219 12.3951 22.092 12.0049 21.8676C11.86 21.7835 11.704 21.7106 11.5368 21.6265C11.5591 22.1929 12.0662 22.8491 12.5567 22.9837C13.376 23.2081 14.1897 23.4268 15.009 23.6512C15.1316 23.6848 15.2653 23.7185 15.3768 23.7802C15.622 23.9148 15.8004 24.0942 15.6945 24.4139C15.5997 24.7112 15.3489 24.8682 15.0313 24.7953C14.4795 24.6719 13.9333 24.5261 13.3871 24.3915C13.2757 24.3634 13.1586 24.3522 13.036 24.3354C13.0862 24.8458 13.6435 25.5693 14.0838 25.6927C14.4182 25.788 14.7582 25.8721 15.087 25.9787C15.4604 26.0965 15.6388 26.3264 15.5886 26.6012C15.5384 26.8761 15.2988 27.0443 14.9198 27.0555C14.7916 27.0555 14.669 27.0275 14.4795 27.0051C14.6356 27.2911 14.7749 27.5323 14.9031 27.779C14.9755 27.9136 15.048 28.0538 15.0759 28.1997C15.126 28.4464 15.1149 28.6876 14.8418 28.8166C14.5854 28.9344 14.3123 28.8447 14.1395 28.5754C13.9946 28.3455 13.8664 28.1043 13.7271 27.8688C13.6825 27.7959 13.6268 27.7342 13.5543 27.6388C13.4874 27.8015 13.4429 27.9361 13.376 28.0539C13.2366 28.295 13.0416 28.4296 12.7518 28.3455C12.462 28.2558 12.3059 28.0539 12.3616 27.751C12.4285 27.3864 12.5177 27.0275 12.6292 26.6742C12.735 26.3376 12.696 26.0348 12.5121 25.7375C12.3449 25.4739 12.1944 25.1991 11.9882 24.8402C11.8879 25.1599 11.8154 25.3786 11.7541 25.6029C11.6427 26.0011 11.5423 26.4049 11.4253 26.8031C11.325 27.1453 11.0575 27.3079 10.7677 27.2294C10.4555 27.1453 10.2939 26.8873 10.3831 26.5452C10.6005 25.6646 10.829 24.7897 11.0742 23.9148C11.1689 23.5726 11.1355 23.2754 10.946 22.9781C10.8067 22.7594 10.6841 22.5351 10.5503 22.3107C10.5169 22.3107 10.4834 22.3107 10.4555 22.3163L10.4611 22.3051Z" fill="white"/>
<path d="M56.5804 29.9944C55.7332 29.9944 55.2539 29.5121 55.2539 28.6315V11.2226C55.2539 10.3702 55.7332 9.88782 56.5469 9.88782C57.3606 9.88782 57.8734 10.3702 57.8734 11.2226V27.7229H66.8353C67.5933 27.7229 68.0169 28.1211 68.0169 28.8278C68.0169 29.5345 67.5933 29.9888 66.8353 29.9888H56.5804V29.9944Z" fill="white"/>
<path d="M80.1055 19.9832C80.1055 13.6904 83.6557 9.74762 89.3182 9.74762C94.9807 9.74762 98.5031 13.6904 98.5031 19.9551C98.5031 26.2199 94.925 30.2468 89.3182 30.2468C83.7114 30.2468 80.1055 26.2479 80.1055 19.9832ZM95.7722 19.9832C95.7722 14.9355 93.4314 12.0752 89.3182 12.0752C85.2051 12.0752 82.8643 14.9692 82.8643 19.9832C82.8643 24.9972 85.233 27.9192 89.3182 27.9192C93.4035 27.9192 95.7722 24.9972 95.7722 19.9832Z" fill="white"/>
<path d="M113.022 20.0168C113.022 13.696 116.601 9.75323 122.659 9.75323C124.966 9.75323 127.223 10.3477 129.024 11.7387C130.205 12.5631 129.107 14.5429 127.814 13.696C126.293 12.5631 124.66 12.1088 122.659 12.1088C118.178 12.1088 115.787 14.9748 115.787 20.0168C115.787 25.0589 118.211 27.9249 122.999 27.9249C124.52 27.9249 126.042 27.6669 127.424 27.1901V21.548H123.595C122.893 21.548 122.497 21.1498 122.497 20.4992C122.497 19.8486 122.893 19.5065 123.595 19.5065H128.583C129.258 19.5065 129.681 19.9047 129.681 20.6113V27.8968C129.681 28.5194 129.458 28.9456 128.951 29.1419C127.374 29.7925 125.005 30.2468 122.921 30.2468C116.5 30.2468 113.034 26.3601 113.034 20.0112L113.022 20.0168Z" fill="white"/>
<path d="M145.481 28.8334V11.1722C145.481 10.2916 145.961 9.8093 146.774 9.8093C147.588 9.8093 148.101 10.2916 148.101 11.1722V28.8334C148.101 29.714 147.649 30.1963 146.774 30.1963C145.955 30.1963 145.481 29.714 145.481 28.8334Z" fill="white"/>
<path d="M163.683 28.3511C162.385 27.4706 163.344 25.4291 164.698 26.3096C166.387 27.4706 168.248 27.9809 170.555 27.9809C173.821 27.9809 175.371 26.6461 175.371 24.6943C175.371 23.0791 174.329 22.2266 171.681 21.6882L168.694 21.0656C165.144 20.3309 163.427 18.6259 163.427 15.7095C163.427 12.1369 166.442 9.75323 170.778 9.75323C173.119 9.75323 175.204 10.3758 176.837 11.6545C177.99 12.5351 177.093 14.4307 175.655 13.5278C174.161 12.479 172.612 12.0247 170.75 12.0247C167.875 12.0247 166.047 13.4717 166.047 15.6254C166.047 17.3528 167.033 18.2894 169.485 18.7998L172.445 19.3943C176.19 20.1851 177.996 21.7443 177.996 24.5261C177.996 27.9305 175.148 30.2524 170.555 30.2524C167.908 30.2524 165.428 29.6018 163.683 28.3511Z" fill="white"/>
<path d="M197.073 28.8334V12.249H190.904C190.174 12.249 189.75 11.8228 189.75 11.1161C189.75 10.4094 190.174 10.0112 190.904 10.0112H205.863C206.593 10.0112 207.016 10.4094 207.016 11.1161C207.016 11.8228 206.593 12.249 205.863 12.249H199.693V28.8334C199.693 29.714 199.241 30.1963 198.4 30.1963C197.558 30.1963 197.073 29.714 197.073 28.8334Z" fill="white"/>
<path d="M220.516 28.8334V11.1722C220.516 10.2916 220.995 9.8093 221.809 9.8093C222.622 9.8093 223.135 10.2916 223.135 11.1722V28.8334C223.135 29.714 222.684 30.1963 221.809 30.1963C220.989 30.1963 220.516 29.714 220.516 28.8334Z" fill="white"/>
<path d="M238.35 19.9832C238.35 13.6904 241.872 9.74762 247.813 9.74762C250.093 9.74762 252.266 10.4263 253.76 11.5928C255.226 12.6136 254.016 14.6551 252.523 13.6063C251.196 12.5855 249.647 12.1312 247.874 12.1312C243.505 12.1312 241.142 14.9635 241.142 19.9832C241.142 25.0028 243.511 27.8632 247.874 27.8632C249.647 27.8632 251.257 27.3808 252.606 26.3601C254.1 25.3393 255.17 27.2967 253.899 28.2614C252.322 29.5625 250.154 30.2468 247.813 30.2468C241.866 30.2468 238.35 26.304 238.35 19.9832Z" fill="white"/>
</g>
<defs>
<clipPath id="clip0_2_3165">
<rect width="254.468" height="40" fill="white"/>
</clipPath>
</defs>
</svg>
