<svg width="325" height="51" viewBox="0 0 325 51" fill="none" xmlns="http://www.w3.org/2000/svg">
<g clip-path="url(#clip0_2_2315)">
<path d="M40.4048 23.3762C41.222 24.1199 42.0392 24.8278 42.8137 25.5858C45.3151 28.06 46.7718 31.0419 46.9708 34.5816C47.2195 39.0223 45.5567 42.7193 42.3874 45.7084C39.4313 48.4972 35.8285 50.0418 31.8491 50.6425C30.4066 50.8641 28.9286 50.9714 27.4647 50.9786C19.5273 51.0072 11.597 50.9929 3.65955 50.9929C2.97027 50.9929 2.62207 50.6425 2.62207 49.9345C2.62207 47.6749 2.62207 45.408 2.62207 43.1484C2.62207 42.3904 2.95605 42.0614 3.7235 42.0614C10.8011 42.0614 17.8716 42.0614 24.9492 42.04C26.5125 42.04 28.1043 42.0543 29.6321 41.7825C31.7283 41.4107 33.5475 40.3595 34.6489 38.4502C36.3473 35.4898 35.5514 32.3791 32.8937 30.3268C31.572 29.3043 30.0229 28.9181 28.3814 28.8824C27.6708 28.8681 27.28 28.5105 27.2729 27.7811C27.2587 25.3784 27.2658 22.9758 27.2729 20.5802C27.2729 20.1512 27.5358 19.8794 28.0403 19.715C29.2199 19.3431 30.2858 18.7782 31.1883 17.9058C33.3983 15.782 32.9151 12.9073 31.238 11.091C29.9163 9.65369 28.2322 8.9386 26.2709 8.94575C22.3555 8.9529 18.4472 8.97436 14.5318 8.97436C10.9219 8.97436 7.31915 8.97436 3.70929 8.96721C2.93474 8.96721 2.62918 8.65257 2.62918 7.87312C2.62918 5.61345 2.62918 3.34662 2.62918 1.08695C2.62918 0.364709 2.97737 0.0143167 3.70219 0.0143167C11.4406 0.0143167 19.1862 -0.0285885 26.9247 0.0286185C31.2878 0.0643728 35.3524 1.21566 38.7988 4.0188C41.222 5.98529 43.0127 8.43089 43.8157 11.5272C44.8105 15.3458 44.0147 18.7853 41.6555 21.8888C41.2717 22.3965 40.8383 22.8685 40.4119 23.3762H40.4048Z" fill="white"/>
<path d="M13.3381 28.439C13.3168 28.5963 13.2742 28.7536 13.2671 28.9109C13.26 29.5259 13.2671 30.1409 13.2528 30.7559C13.2528 31.2421 13.0397 31.5067 12.6702 31.521C12.3149 31.5282 12.0661 31.2493 12.0519 30.7773C12.0377 30.0837 12.0519 29.3829 12.0519 28.6821C12.0519 28.6035 12.0306 28.5248 12.0022 28.3746C11.455 28.7393 11.2205 29.247 11.1779 29.8191C11.1495 30.1695 11.2276 30.5413 11.3129 30.8846C11.5474 31.8142 11.8103 32.7367 12.059 33.6663C12.0946 33.8093 12.1088 33.9666 12.1088 34.1239C12.1088 34.4529 11.9453 34.7246 11.6256 34.7532C11.3982 34.7747 11.1353 34.6531 10.9434 34.5172C10.8155 34.4314 10.7586 34.2169 10.7089 34.0453C10.5312 33.4303 10.3749 32.8082 10.2115 32.1932C10.1688 32.0216 10.1049 31.8571 10.0267 31.6283C9.39428 32.4935 8.80448 33.273 9.34453 34.3671C9.47244 34.6245 9.50797 34.9248 9.56482 35.2109C9.65009 35.6399 9.39428 36.0261 8.99634 36.0761C8.56998 36.1333 8.236 35.8401 8.20047 35.3682C8.20047 35.2895 8.17915 35.2109 8.15072 35.0178C8.0015 35.168 7.8878 35.2538 7.81674 35.361C7.61777 35.6828 7.44723 36.0189 7.24826 36.3335C6.99955 36.734 6.63714 36.8413 6.29605 36.6482C5.94786 36.448 5.86258 36.0976 6.08998 35.6685C6.30316 35.2681 6.53055 34.8819 6.78637 34.4314C6.52344 34.46 6.3529 34.4958 6.17525 34.4958C5.73467 34.5101 5.50018 34.3242 5.43622 33.9309C5.37227 33.559 5.54992 33.2587 5.94075 33.13C6.34579 33.0012 6.75794 32.8725 7.1843 32.7939C7.66751 32.7081 7.98018 32.4506 8.19336 32.0216C8.3639 31.6926 8.56287 31.3708 8.79737 30.9561C8.58419 30.9847 8.45628 30.9847 8.33548 31.0204C7.70304 31.1849 7.07771 31.3637 6.44528 31.5067C6.22499 31.5568 5.93364 31.5854 5.77021 31.4781C5.58545 31.3565 5.42201 31.0777 5.39359 30.8488C5.35095 30.5056 5.62808 30.2911 5.94075 30.2052C6.68688 29.9836 7.43301 29.7905 8.17915 29.5903C8.49892 29.5045 8.81869 29.39 9.14557 29.3328C10.0978 29.1755 10.2754 28.346 10.6591 27.6953C10.6378 27.6595 10.6165 27.6309 10.5881 27.5952C10.3962 27.681 10.2044 27.7597 10.0196 27.8669C9.50797 28.153 9.01055 28.4533 8.49892 28.7322C8.10098 28.9467 7.767 28.8609 7.59645 28.5462C7.43301 28.2388 7.55382 27.8955 7.93044 27.6667C8.46339 27.3449 9.01055 27.0446 9.55061 26.7228C9.69273 26.637 9.82064 26.5154 9.92723 26.3652C9.12425 26.2651 8.34259 26.1078 7.68883 26.8086C6.9427 27.6166 6.15393 28.3818 5.37937 29.1612C5.00986 29.5331 4.59771 29.5688 4.28505 29.2756C3.96528 28.9753 4.00081 28.5749 4.38453 28.1816C4.86774 27.681 5.36516 27.1947 5.84837 26.6942C5.94786 26.5869 6.04023 26.4725 6.21078 26.2794C5.54992 26.2794 4.98854 26.2651 4.43427 26.2937C4.29215 26.3009 4.14293 26.4439 4.02923 26.5512C3.66682 26.8944 3.32573 27.2662 2.95622 27.6023C2.56539 27.967 2.18877 27.9813 1.89032 27.6738C1.60608 27.3878 1.62739 27.0231 1.94716 26.6298C2.01823 26.544 2.08218 26.4582 2.23851 26.2651C1.79794 26.2651 1.44974 26.2651 1.10155 26.2651C0.895473 26.2651 0.682293 26.2651 0.483324 26.2079C0.156447 26.115 -0.0354157 25.8647 -0.00699157 25.5214C0.0214325 25.1353 0.298567 24.9279 0.668081 24.9065C1.12287 24.885 1.57765 24.9065 2.13192 24.9065C2.01823 24.7491 1.96138 24.649 1.89032 24.5632C1.56344 24.1485 1.55633 23.7623 1.869 23.4834C2.17456 23.2117 2.56539 23.2546 2.9349 23.6121C3.24757 23.9125 3.55313 24.2128 3.84447 24.5275C4.10029 24.7992 4.39874 24.9208 4.76826 24.9136C5.19462 24.8993 5.62098 24.9136 6.16104 24.9136C6.0047 24.7277 5.91943 24.6133 5.81995 24.5132C5.35095 24.034 4.87485 23.5692 4.42006 23.083C4.04344 22.6825 4.02923 22.3393 4.34189 22.0175C4.64035 21.7172 4.98144 21.71 5.36516 22.0747C6.15393 22.8399 6.94981 23.5978 7.68883 24.413C8.32127 25.1138 9.0674 24.9351 9.86327 24.7849C9.72826 24.6848 9.60746 24.5704 9.45823 24.4846C8.93239 24.1699 8.39943 23.8839 7.88069 23.5549C7.46144 23.2832 7.40459 22.8399 7.72436 22.5395C7.98728 22.2964 8.27153 22.3893 8.53445 22.5395C9.05319 22.8327 9.56482 23.1473 10.0836 23.4405C10.2683 23.5406 10.4815 23.5978 10.6805 23.6765C10.7018 23.6408 10.716 23.605 10.7373 23.5692C10.5028 23.1759 10.3038 22.7683 10.0338 22.4037C9.8988 22.2249 9.65009 22.089 9.4227 22.0175C8.33548 21.6957 7.23405 21.4097 6.13972 21.1022C5.96917 21.0521 5.79152 21.0021 5.6423 20.9091C5.32253 20.7089 5.18041 20.43 5.35095 20.0582C5.51439 19.6935 5.81995 19.5791 6.17525 19.6649C6.91427 19.8436 7.6462 20.051 8.38522 20.2512C8.49892 20.2798 8.61972 20.3013 8.8258 20.2512C8.52024 19.7364 8.25021 19.1929 7.88069 18.7353C7.71726 18.535 7.32642 18.5207 7.04218 18.4349C6.72241 18.342 6.39554 18.2704 6.08287 18.1703C5.63519 18.0273 5.39359 17.7055 5.47175 17.3551C5.56413 16.9332 5.90522 16.7259 6.39554 16.7974C6.53055 16.8188 6.65846 16.8403 6.87875 16.8832C6.61582 16.4041 6.39554 15.9893 6.16814 15.5817C5.99049 15.2528 5.97628 14.9453 6.27473 14.6736C6.5945 14.3875 7.04929 14.4662 7.30511 14.8666C7.54671 15.2528 7.767 15.6532 8.03703 16.1109C8.10809 15.9321 8.15783 15.8177 8.20757 15.6961C8.38522 15.2599 8.7192 15.0526 9.0674 15.1527C9.47955 15.2742 9.67141 15.6318 9.55061 16.118C9.43691 16.5757 9.26637 17.0262 9.19531 17.491C9.15267 17.7699 9.20952 18.0917 9.32322 18.3491C9.50797 18.7639 9.7709 19.1429 10.0622 19.6434C10.1902 19.1929 10.2967 18.8282 10.3962 18.4707C10.517 18.0273 10.6307 17.584 10.7657 17.1406C10.9008 16.683 11.2347 16.4827 11.6398 16.5971C12.0519 16.7116 12.2225 17.0333 12.0946 17.5196C11.8387 18.5136 11.5971 19.5219 11.2987 20.5015C11.0997 21.1522 11.121 21.7243 11.5545 22.2678C11.6966 22.4466 11.7961 22.6611 12.0164 22.8399C12.0377 22.6325 12.0804 22.418 12.0875 22.2106C12.0946 21.6242 12.0875 21.0378 12.0946 20.4515C12.1088 19.9795 12.3149 19.765 12.7057 19.7721C13.0681 19.7793 13.26 20.0081 13.2671 20.4515C13.2742 21.0235 13.2671 21.5956 13.2813 22.1677C13.2813 22.3893 13.3168 22.6039 13.331 22.8256C13.3665 22.8399 13.4021 22.8542 13.4376 22.8685C13.6366 22.5467 13.8071 22.2034 14.0487 21.9174C14.3472 21.5598 14.2477 21.2095 14.1482 20.8233C13.8426 19.6935 13.5513 18.5636 13.2671 17.4266C13.1463 16.9261 13.3381 16.5828 13.7574 16.4827C14.1269 16.3969 14.4751 16.6329 14.6101 17.0906C14.8446 17.9201 15.0649 18.7496 15.3491 19.5862C15.6902 18.8497 16.5358 18.3205 16.1308 17.3122C15.9887 16.9547 15.9247 16.5614 15.8252 16.1824C15.7044 15.6961 15.8821 15.3171 16.28 15.2027C16.6424 15.0955 16.9906 15.3171 17.1683 15.7676C17.2109 15.8821 17.2535 15.9965 17.3388 16.211C17.6231 15.7462 17.8576 15.3529 18.0992 14.9524C18.2768 14.6593 18.5113 14.4519 18.8808 14.5377C19.3214 14.645 19.5061 15.0883 19.3001 15.5317C19.2006 15.7462 19.0727 15.9464 18.959 16.1538C18.8453 16.354 18.7245 16.5542 18.561 16.8331C18.8027 16.8045 18.9661 16.7759 19.1366 16.7616C19.5488 16.733 19.8472 16.9332 19.9183 17.2836C19.9965 17.6555 19.8401 17.963 19.4422 18.0988C19.0087 18.249 18.5682 18.3777 18.1205 18.4707C17.6941 18.5565 17.4028 18.7782 17.2038 19.1715C17.0261 19.529 16.8059 19.8651 16.5571 20.3013C16.7988 20.2655 16.9409 20.2584 17.083 20.2226C17.687 20.0725 18.2839 19.9008 18.895 19.7507C19.0514 19.7149 19.2219 19.6935 19.3853 19.7078C19.698 19.7364 19.897 19.9223 19.968 20.2226C20.0462 20.5301 19.9183 20.7947 19.6412 20.9234C19.293 21.0807 18.9163 21.2023 18.5468 21.3024C17.7439 21.5241 16.9409 21.7386 16.1379 21.9317C15.7044 22.039 15.3847 22.2535 15.1857 22.6611C15.0294 22.9686 14.8588 23.2618 14.7593 23.6479C14.8872 23.5978 15.0222 23.5621 15.1431 23.4977C15.6973 23.1831 16.2516 22.8613 16.8059 22.5538C17.2464 22.3107 17.5378 22.3679 17.7439 22.704C17.9428 23.0258 17.8362 23.3404 17.4099 23.5978C16.8769 23.9196 16.3298 24.22 15.7897 24.5418C15.6547 24.6204 15.5339 24.7348 15.3847 24.8421C16.0242 25.1424 17.0617 24.9994 17.5165 24.5489C18.291 23.7838 19.0443 23.0115 19.8117 22.2392C19.9112 22.1391 20.0036 22.039 20.1102 21.9531C20.437 21.6957 20.8634 21.7243 21.1192 22.0175C21.3324 22.2535 21.3253 22.6968 21.0695 22.9686C20.5507 23.512 20.0107 24.0412 19.4848 24.5704C19.3925 24.6633 19.3001 24.7706 19.1935 24.885C20.3802 25.0566 21.0339 25.2211 21.8227 24.2128C22.0146 23.9625 22.2633 23.748 22.5049 23.5406C22.8176 23.2761 23.2155 23.3118 23.4784 23.5835C23.7271 23.841 23.72 24.2128 23.4784 24.5346C23.386 24.649 23.2866 24.7634 23.0876 24.9851C23.6561 24.9851 24.0966 24.9851 24.5443 24.9851C24.8712 24.9851 25.1554 25.0995 25.2976 25.4142C25.4965 25.8575 25.1839 26.3152 24.6651 26.3438C24.2103 26.3652 23.7556 26.3438 23.1871 26.3438C23.3434 26.544 23.4358 26.6513 23.5211 26.7657C23.784 27.1089 23.7769 27.4736 23.4926 27.7453C23.1942 28.0242 22.8531 28.0457 22.5262 27.7453C22.2064 27.4593 21.908 27.1447 21.6095 26.83C21.2827 26.4796 20.906 26.308 20.4228 26.3366C20.0391 26.3581 19.6554 26.3366 19.1437 26.3366C19.3925 26.6084 19.563 26.7943 19.7406 26.9802C20.1315 27.3735 20.5294 27.7668 20.9202 28.1673C21.2471 28.5033 21.2755 28.9324 21.0197 29.2184C20.7284 29.5402 20.3304 29.5474 19.9538 29.1827C19.2361 28.489 18.4829 27.8097 17.8433 27.0446C17.1612 26.2151 16.3227 26.2937 15.3065 26.3938C15.5055 26.544 15.612 26.637 15.7329 26.7085C16.28 27.0374 16.8414 27.3521 17.3886 27.681C17.8149 27.9384 17.9144 28.2316 17.7154 28.5749C17.5094 28.9252 17.2251 28.9824 16.7845 28.7393C16.2871 28.4604 15.8039 28.1673 15.3065 27.8812C15.1217 27.774 14.9228 27.681 14.7096 27.5737C14.738 28.296 15.3847 29.1326 16.01 29.3042C17.0546 29.5903 18.0921 29.8692 19.1366 30.1552C19.293 30.1981 19.4635 30.241 19.6056 30.3197C19.9183 30.4913 20.1457 30.7201 20.0107 31.1277C19.8899 31.5067 19.5701 31.7069 19.1651 31.614C18.4616 31.4566 17.7652 31.2707 17.0688 31.0991C16.9267 31.0634 16.7774 31.0491 16.6211 31.0276C16.6851 31.6783 17.3957 32.6008 17.957 32.7581C18.3834 32.8797 18.8169 32.9869 19.2361 33.1228C19.7122 33.273 19.9396 33.5662 19.8757 33.9165C19.8117 34.2669 19.5061 34.4815 19.0229 34.4958C18.8595 34.4958 18.7032 34.46 18.4616 34.4314C18.6605 34.7961 18.8382 35.1036 19.0016 35.4182C19.094 35.5899 19.1864 35.7686 19.2219 35.9545C19.2859 36.2692 19.2717 36.5767 18.9235 36.7411C18.5966 36.8913 18.2484 36.7769 18.0281 36.4337C17.8433 36.1405 17.6799 35.833 17.5023 35.5326C17.4454 35.4397 17.3743 35.361 17.282 35.2395C17.1967 35.4468 17.1398 35.6185 17.0546 35.7686C16.8769 36.0761 16.6282 36.2477 16.2587 36.1405C15.8892 36.0261 15.6902 35.7686 15.7613 35.3825C15.8465 34.9177 15.9602 34.46 16.1024 34.0095C16.2374 33.5805 16.1876 33.1943 15.9531 32.8153C15.74 32.4792 15.5481 32.1288 15.2852 31.6712C15.1573 32.0788 15.0649 32.3577 14.9867 32.6437C14.8446 33.1514 14.7167 33.6663 14.5675 34.174C14.4396 34.6102 14.0985 34.8176 13.729 34.7174C13.331 34.6102 13.1249 34.2812 13.2386 33.845C13.5158 32.7224 13.8071 31.6068 14.1198 30.4913C14.2406 30.0551 14.1979 29.6761 13.9563 29.2971C13.7787 29.0182 13.6224 28.7322 13.4518 28.4461C13.4092 28.4461 13.3665 28.4461 13.331 28.4533L13.3381 28.439Z" fill="white"/>
<path d="M72.1405 38.2429C71.0603 38.2429 70.4492 37.6279 70.4492 36.5052V14.3089C70.4492 13.222 71.0603 12.607 72.0978 12.607C73.1353 12.607 73.789 13.222 73.789 14.3089V35.3468H85.2155C86.182 35.3468 86.722 35.8545 86.722 36.7555C86.722 37.6565 86.182 38.2357 85.2155 38.2357H72.1405V38.2429Z" fill="white"/>
<path d="M102.135 25.4786C102.135 17.4553 106.661 12.4282 113.881 12.4282C121.101 12.4282 125.592 17.4553 125.592 25.4428C125.592 33.4303 121.03 38.5647 113.881 38.5647C106.732 38.5647 102.135 33.4661 102.135 25.4786ZM122.11 25.4786C122.11 19.0428 119.125 15.3958 113.881 15.3958C108.637 15.3958 105.652 19.0857 105.652 25.4786C105.652 31.8714 108.672 35.597 113.881 35.597C119.09 35.597 122.11 31.8714 122.11 25.4786Z" fill="white"/>
<path d="M144.104 25.5215C144.104 17.4624 148.666 12.4354 156.39 12.4354C159.332 12.4354 162.21 13.1934 164.505 14.9668C166.011 16.018 164.612 18.5422 162.963 17.4624C161.023 16.018 158.941 15.4387 156.39 15.4387C150.677 15.4387 147.628 19.0928 147.628 25.5215C147.628 31.9501 150.719 35.6042 156.823 35.6042C158.763 35.6042 160.703 35.2752 162.465 34.6674V27.4736H157.584C156.688 27.4736 156.184 26.9659 156.184 26.1364C156.184 25.3069 156.688 24.8707 157.584 24.8707H163.944C164.803 24.8707 165.343 25.3784 165.343 26.2794V35.5684C165.343 36.3622 165.059 36.9056 164.413 37.1559C162.402 37.9854 159.381 38.5646 156.724 38.5646C148.538 38.5646 144.118 33.6091 144.118 25.5143L144.104 25.5215Z" fill="white"/>
<path d="M185.488 36.7626V14.2446C185.488 13.1219 186.099 12.5069 187.137 12.5069C188.174 12.5069 188.828 13.1219 188.828 14.2446V36.7626C188.828 37.8853 188.253 38.5003 187.137 38.5003C186.092 38.5003 185.488 37.8853 185.488 36.7626Z" fill="white"/>
<path d="M208.696 36.1476C207.041 35.025 208.263 32.422 209.99 33.5447C212.143 35.025 214.516 35.6757 217.458 35.6757C221.622 35.6757 223.598 33.9738 223.598 31.4853C223.598 29.4258 222.269 28.3389 218.894 27.6524L215.085 26.8587C210.558 25.9219 208.37 23.748 208.37 20.0296C208.37 15.4745 212.214 12.4354 217.742 12.4354C220.727 12.4354 223.385 13.2291 225.467 14.8595C226.938 15.9822 225.794 18.3992 223.96 17.2479C222.056 15.9107 220.08 15.3315 217.707 15.3315C214.04 15.3315 211.709 17.1764 211.709 19.9223C211.709 22.1248 212.967 23.319 216.094 23.9697L219.867 24.7277C224.642 25.736 226.945 27.7239 226.945 31.2708C226.945 35.6113 223.313 38.5718 217.458 38.5718C214.083 38.5718 210.921 37.7423 208.696 36.1476Z" fill="white"/>
<path d="M251.269 36.7626V15.6175H243.403C242.472 15.6175 241.932 15.074 241.932 14.173C241.932 13.272 242.472 12.7643 243.403 12.7643H262.475C263.406 12.7643 263.946 13.272 263.946 14.173C263.946 15.074 263.406 15.6175 262.475 15.6175H254.609V36.7626C254.609 37.8853 254.033 38.5003 252.96 38.5003C251.887 38.5003 251.269 37.8853 251.269 36.7626Z" fill="white"/>
<path d="M281.157 36.7626V14.2446C281.157 13.1219 281.768 12.5069 282.806 12.5069C283.843 12.5069 284.497 13.1219 284.497 14.2446V36.7626C284.497 37.8853 283.921 38.5003 282.806 38.5003C281.761 38.5003 281.157 37.8853 281.157 36.7626Z" fill="white"/>
<path d="M303.896 25.4786C303.896 17.4553 308.387 12.4282 315.963 12.4282C318.869 12.4282 321.64 13.2935 323.545 14.7809C325.414 16.0823 323.872 18.6852 321.967 17.348C320.276 16.0466 318.3 15.4673 316.041 15.4673C310.47 15.4673 307.457 19.0785 307.457 25.4786C307.457 31.8786 310.477 35.5255 316.041 35.5255C318.3 35.5255 320.354 34.9106 322.074 33.6091C323.978 32.3076 325.342 34.8033 323.722 36.0332C321.711 37.6922 318.947 38.5647 315.963 38.5647C308.38 38.5647 303.896 33.5376 303.896 25.4786Z" fill="white"/>
</g>
<defs>
<clipPath id="clip0_2_2315">
<rect width="324.447" height="51" fill="white"/>
</clipPath>
</defs>
</svg>
