<svg width="82" height="64" viewBox="0 0 82 64" fill="none" xmlns="http://www.w3.org/2000/svg">
<g clip-path="url(#clip0_2_1340)">
<path d="M18.478 63.854C18.496 63.866 18.52 63.86 18.538 63.872C18.6793 63.9515 18.8379 63.9954 19 64C19.0892 63.9998 19.178 63.9877 19.264 63.964L41 58.032L62.736 63.964C62.822 63.9877 62.9107 63.9998 63 64C63.1615 63.9944 63.3194 63.9498 63.46 63.87C63.48 63.86 63.502 63.864 63.52 63.852L81.52 52.852C81.7061 52.738 81.8499 52.5663 81.9294 52.363C82.0088 52.1597 82.0196 51.9359 81.96 51.726L71.992 16.726C71.9508 16.5804 71.8772 16.4461 71.7767 16.3331C71.6762 16.2201 71.5513 16.1314 71.4115 16.0737C71.2718 16.0159 71.1207 15.9906 70.9697 15.9997C70.8188 16.0087 70.6718 16.0519 70.54 16.126L60.616 21.694C60.3986 21.8312 60.2423 22.0466 60.1794 22.2958C60.1164 22.545 60.1516 22.8089 60.2778 23.0329C60.4039 23.2568 60.6112 23.4238 60.8569 23.4992C61.1026 23.5745 61.3679 23.5526 61.598 23.438L70.416 18.488L79.83 51.54L63.8 61.338L59.992 30.876C59.9591 30.6126 59.8229 30.3731 59.6134 30.2101C59.404 30.0471 59.1383 29.9741 58.875 30.007C58.6116 30.0398 58.3721 30.176 58.2091 30.3855C58.0461 30.595 57.9731 30.8606 58.006 31.124L61.82 61.642L42 56.232V50.772C42 50.5067 41.8946 50.2524 41.7071 50.0648C41.5195 49.8773 41.2652 49.772 41 49.772C40.7347 49.772 40.4804 49.8773 40.2928 50.0648C40.1053 50.2524 40 50.5067 40 50.772V56.232L20.178 61.642L23.992 31.124C24.0082 30.9936 23.9987 30.8612 23.9638 30.7345C23.929 30.6078 23.8695 30.4892 23.7888 30.3855C23.7081 30.2818 23.6078 30.1949 23.4935 30.13C23.3793 30.0651 23.2534 30.0232 23.123 30.007C22.9925 29.9907 22.8602 30.0002 22.7335 30.0351C22.6068 30.07 22.4882 30.1294 22.3845 30.2101C22.2808 30.2908 22.1939 30.3911 22.129 30.5054C22.064 30.6196 22.0222 30.7456 22.006 30.876L18.2 61.338L2.16995 51.542L11.584 18.492L20.402 23.442C20.632 23.5566 20.8973 23.5785 21.143 23.5032C21.3887 23.4278 21.596 23.2608 21.7222 23.0369C21.8483 22.8129 21.8835 22.549 21.8205 22.2998C21.7576 22.0506 21.6013 21.8352 21.384 21.698L11.458 16.128C11.3265 16.0527 11.1795 16.0085 11.0283 15.9988C10.8771 15.9892 10.7257 16.0143 10.5857 16.0722C10.4458 16.1301 10.3209 16.2193 10.2207 16.333C10.1206 16.4467 10.0478 16.5818 10.008 16.728L0.0399545 51.728C-0.0196479 51.9379 -0.00890632 52.1617 0.0705398 52.365C0.149986 52.5683 0.293773 52.74 0.479955 52.854L18.478 63.854Z" fill="#244E93" stroke="#244E93" stroke-width="0.6"/>
<path d="M40.322 46.736C40.5056 46.9055 40.746 47.0001 40.9958 47.0012C41.2457 47.0023 41.4869 46.9098 41.672 46.742C42.338 46.136 58 31.764 58 17C58 7.466 50.534 0 41 0C31.466 0 24 7.466 24 17C24 31.508 39.656 46.12 40.322 46.736ZM41 2C49.55 2 56 8.448 56 17C56 29.194 44.014 41.674 41.006 44.614C38.004 41.64 26 28.996 26 17C26 8.448 32.45 2 41 2Z" fill="#244E93" stroke="#244E93" stroke-width="0.6"/>
<path d="M50 17C50 12.038 45.962 8 41 8C36.038 8 32 12.038 32 17C32 21.962 36.038 26 41 26C45.962 26 50 21.962 50 17ZM41 24C37.14 24 34 20.86 34 17C34 13.14 37.14 10 41 10C44.86 10 48 13.14 48 17C48 20.86 44.86 24 41 24Z" fill="#244E93" stroke="#244E93" stroke-width="0.6"/>
</g>
<defs>
<clipPath id="clip0_2_1340">
<rect width="82" height="64" fill="white"/>
</clipPath>
</defs>
</svg>
