<svg width="22" height="26" viewBox="0 0 22 26" fill="none" xmlns="http://www.w3.org/2000/svg">
<path d="M6.13399 5.51299C6.13399 2.81773 8.32678 0.624996 11.022 0.624996C13.7172 0.624996 15.91 2.81773 15.91 5.51299C15.91 8.20744 13.7186 10.3996 11.0246 10.401H11.0219H11.0192C8.32526 10.3995 6.13399 8.20733 6.13399 5.51299ZM21.4189 23.5538C21.4188 24.7672 20.4316 25.7544 19.2183 25.7544H2.82547C1.61213 25.7544 0.624963 24.7672 0.624963 23.5538V21.3191C1.2132 16.0188 5.67413 12.0273 11.0192 12.026L11.022 12.0261L11.0246 12.026C16.3696 12.0274 20.8305 16.0188 21.4189 21.3191V23.5538Z" fill="white"/>
</svg>
