<svg width="17" height="17" viewBox="0 0 17 17" fill="none" xmlns="http://www.w3.org/2000/svg">
<path d="M15 11C15.375 11.1667 15.6458 11.4271 15.8125 11.7812C15.9792 12.1146 16.0208 12.4792 15.9375 12.875L15.2812 15.7188C15.1979 16.1146 15.0104 16.4271 14.7188 16.6562C14.4271 16.8854 14.0938 17 13.7188 17C11.1562 16.9792 8.84375 16.3542 6.78125 15.125C4.73958 13.8958 3.10417 12.2604 1.875 10.2188C0.645833 8.15625 0.0208333 5.84375 0 3.28125C0 2.90625 0.114583 2.57292 0.34375 2.28125C0.572917 1.98958 0.885417 1.79167 1.28125 1.6875L4.125 1.03125C4.52083 0.947917 4.88542 1 5.21875 1.1875C5.57292 1.35417 5.83333 1.625 6 2L7.3125 5.09375C7.45833 5.42708 7.48958 5.77083 7.40625 6.125C7.32292 6.47917 7.13542 6.77083 6.84375 7L5.78125 7.875C6.61458 9.27083 7.73958 10.3854 9.15625 11.2188L10.0312 10.1562C10.2604 9.86458 10.5521 9.67708 10.9062 9.59375C11.2604 9.51042 11.6042 9.54167 11.9375 9.6875L15 11ZM14.5 12.5312C14.5 12.4688 14.4688 12.4062 14.4062 12.3438L11.3438 11.0312C11.2812 11.0104 11.2292 11.0312 11.1875 11.0938L9.9375 12.5938C9.66667 12.8854 9.36458 12.9583 9.03125 12.8125C7.96875 12.2917 7.02083 11.6146 6.1875 10.7812C5.375 9.94792 4.69792 9 4.15625 7.9375C4.01042 7.58333 4.08333 7.28125 4.375 7.03125L5.90625 5.8125C5.94792 5.77083 5.95833 5.71875 5.9375 5.65625L4.625 2.59375C4.58333 2.53125 4.54167 2.5 4.5 2.5C4.47917 2.5 4.46875 2.5 4.46875 2.5L1.59375 3.15625C1.53125 3.17708 1.5 3.21875 1.5 3.28125C1.52083 5.55208 2.07292 7.60417 3.15625 9.4375C4.26042 11.2708 5.72917 12.7396 7.5625 13.8438C9.39583 14.9271 11.4479 15.4792 13.7188 15.5C13.7812 15.4792 13.8229 15.4479 13.8438 15.4062L14.5 12.5312Z" fill="white"/>
</svg>
