<svg width="12" height="16" viewBox="0 0 12 16" fill="none" xmlns="http://www.w3.org/2000/svg">
<path d="M8.5 6C8.47917 6.70833 8.23958 7.30208 7.78125 7.78125C7.30208 8.23958 6.70833 8.47917 6 8.5C5.29167 8.47917 4.69792 8.23958 4.21875 7.78125C3.76042 7.30208 3.52083 6.70833 3.5 6C3.52083 5.29167 3.76042 4.69792 4.21875 4.21875C4.69792 3.76042 5.29167 3.52083 6 3.5C6.70833 3.52083 7.30208 3.76042 7.78125 4.21875C8.23958 4.69792 8.47917 5.29167 8.5 6ZM6 5C5.70833 5 5.46875 5.09375 5.28125 5.28125C5.09375 5.46875 5 5.70833 5 6C5 6.29167 5.09375 6.53125 5.28125 6.71875C5.46875 6.90625 5.70833 7 6 7C6.29167 7 6.53125 6.90625 6.71875 6.71875C6.90625 6.53125 7 6.29167 7 6C7 5.70833 6.90625 5.46875 6.71875 5.28125C6.53125 5.09375 6.29167 5 6 5ZM12 6C11.9583 6.9375 11.625 8.02083 11 9.25C10.3542 10.4792 9.625 11.6667 8.8125 12.8125C8 13.9792 7.3125 14.9062 6.75 15.5938C6.54167 15.8438 6.29167 15.9688 6 15.9688C5.70833 15.9688 5.45833 15.8438 5.25 15.5938C4.6875 14.9062 3.98958 13.9792 3.15625 12.8125C2.34375 11.6667 1.625 10.4792 1 9.25C0.375 8.02083 0.0416667 6.9375 0 6C0.0416667 4.29167 0.625 2.875 1.75 1.75C2.875 0.625 4.29167 0.0416667 6 0C7.70833 0.0416667 9.125 0.625 10.25 1.75C11.375 2.875 11.9583 4.29167 12 6ZM6 1.5C4.72917 1.54167 3.66667 1.97917 2.8125 2.8125C1.97917 3.66667 1.54167 4.72917 1.5 6C1.5 6.39583 1.65625 6.98958 1.96875 7.78125C2.32292 8.57292 2.77083 9.40625 3.3125 10.2812C3.75 11.0104 4.20833 11.6979 4.6875 12.3438C5.16667 13.0104 5.60417 13.6042 6 14.125C6.39583 13.6042 6.83333 13.0208 7.3125 12.375C7.79167 11.7083 8.25 11.0104 8.6875 10.2812C9.22917 9.40625 9.67708 8.57292 10.0312 7.78125C10.3438 6.98958 10.5 6.39583 10.5 6C10.4583 4.72917 10.0208 3.66667 9.1875 2.8125C8.33333 1.97917 7.27083 1.54167 6 1.5Z" fill="white"/>
</svg>
