<svg width="68" height="119" viewBox="0 0 68 119" fill="none" xmlns="http://www.w3.org/2000/svg">
<path d="M71.5601 74.4601C71.4301 75.3001 71.2101 76.1401 71.2001 76.9801C71.1401 80.2501 71.1701 83.5301 71.1401 86.8001C71.1101 89.4001 70.0001 90.8201 68.0101 90.8701C66.1001 90.9101 64.7601 89.4101 64.7101 86.9001C64.6401 83.1801 64.7101 79.4601 64.7001 75.7501C64.7001 75.3201 64.5701 74.8901 64.4401 74.1201C61.5201 76.0701 60.2601 78.7701 60.0001 81.8201C59.8401 83.6901 60.2501 85.6601 60.7201 87.5101C61.9701 92.4801 63.4101 97.4001 64.7301 102.35C64.9401 103.13 65.0201 103.97 65.0101 104.78C65.0101 106.55 64.1201 108 62.4001 108.14C61.2001 108.24 59.7801 107.6 58.7201 106.88C58.0401 106.42 57.7301 105.27 57.4701 104.36C56.5301 101.08 55.6901 97.7601 54.7901 94.4701C54.5401 93.5701 54.2001 92.6901 53.7901 91.4601C50.4101 96.0701 47.2201 100.24 50.1201 106.05C50.8001 107.41 50.9901 109.04 51.3001 110.56C51.7701 112.84 50.3801 114.9 48.2601 115.19C45.9801 115.51 44.1901 113.92 44.0001 111.43C43.9701 111 43.8801 110.58 43.7301 109.56C42.9201 110.37 42.3101 110.8 41.9501 111.38C40.8801 113.08 39.9601 114.87 38.9001 116.57C37.5701 118.7 35.6401 119.29 33.7901 118.23C31.9201 117.15 31.4801 115.28 32.6901 113.01C33.8201 110.89 35.0601 108.82 36.4401 106.4C35.0301 106.56 34.1001 106.73 33.1601 106.76C30.8001 106.82 29.5301 105.84 29.1801 103.76C28.8401 101.78 29.7701 100.17 31.8801 99.4901C34.0701 98.7901 36.2801 98.1001 38.5401 97.7001C41.1301 97.2301 42.8101 95.8501 43.9701 93.5701C44.8701 91.8001 45.9401 90.1101 47.2101 87.8901C46.0701 88.0401 45.3901 88.0601 44.7401 88.2201C41.3601 89.0801 38.0001 90.0601 34.6001 90.8201C33.4301 91.0801 31.8701 91.2401 30.9901 90.6701C29.9801 90.0101 29.1001 88.5401 28.9501 87.3201C28.7201 85.4701 30.2101 84.3601 31.8701 83.8701C35.8601 82.7101 39.8801 81.6601 43.8901 80.5801C45.6101 80.1101 47.3101 79.5101 49.0601 79.2201C54.1801 78.3901 55.1101 73.9701 57.1801 70.5001C57.0601 70.3301 56.9401 70.1501 56.8101 69.9801C55.7901 70.4601 54.7301 70.8701 53.7501 71.4201C51.0201 72.9301 48.3501 74.5501 45.5901 76.0201C43.4701 77.1501 41.6701 76.7001 40.7601 75.0201C39.8801 73.4001 40.5401 71.5501 42.5601 70.3501C45.4301 68.6401 48.3701 67.0201 51.2401 65.3201C52.0101 64.8601 52.6801 64.2301 53.2701 63.4301C48.9601 62.9001 44.7701 62.0401 41.2801 65.8101C37.2901 70.1201 33.0301 74.1801 28.8701 78.3401C26.9001 80.3101 24.6601 80.5301 22.9901 78.9501C21.2801 77.3401 21.4501 75.2201 23.5301 73.1001C26.1401 70.4401 28.7901 67.8301 31.4001 65.1901C31.9501 64.6301 32.4401 64.0101 33.3301 62.9901C29.7801 62.9901 26.7801 62.9001 23.7801 63.0601C23.0201 63.1001 22.2201 63.8501 21.5901 64.4401C19.6401 66.2701 17.8101 68.2401 15.8401 70.0501C13.7601 71.9801 11.7401 72.0601 10.1201 70.4301C8.6101 68.9001 8.7101 66.9501 10.4201 64.8701C10.7901 64.4201 11.1501 63.9501 11.9901 62.9101C9.6201 62.9101 7.76011 62.9401 5.9001 62.9001C4.7901 62.8701 3.6401 62.9001 2.6001 62.5901C0.840105 62.0901 -0.179895 60.7401 -0.0298952 58.9201C0.140105 56.8501 1.5901 55.7401 3.5801 55.6401C6.0201 55.5101 8.4801 55.6101 11.4201 55.6101C10.8301 54.7601 10.5001 54.2501 10.1201 53.7701C8.3701 51.5501 8.3201 49.5201 10.0001 48.0201C11.6401 46.5601 13.7201 46.7801 15.7301 48.7101C17.3901 50.3101 19.0501 51.9101 20.6301 53.6001C22.0001 55.0701 23.6201 55.6901 25.6001 55.6401C27.8901 55.5801 30.1901 55.6301 33.0901 55.6301C32.2501 54.6501 31.8001 54.0401 31.2701 53.5001C28.7701 50.9501 26.2201 48.4501 23.7501 45.8601C21.7401 43.7401 21.6501 41.8901 23.3301 40.1901C24.9301 38.5701 26.7801 38.5401 28.8201 40.5001C33.0601 44.5701 37.3401 48.6201 41.2901 52.9601C44.6901 56.7001 48.6801 55.7401 52.9701 54.9301C52.2501 54.3901 51.5801 53.7801 50.8101 53.3301C48.0001 51.6601 45.1101 50.1101 42.3501 48.3601C40.0901 46.9301 39.8001 44.5301 41.5201 42.9501C42.9401 41.6401 44.4501 42.1401 45.8501 42.9201C48.6401 44.4701 51.3601 46.1601 54.1601 47.7101C55.1501 48.2601 56.2901 48.5601 57.3601 48.9701C57.4601 48.7801 57.5501 48.6001 57.6501 48.4101C56.4101 46.3301 55.3301 44.1301 53.8701 42.2101C53.1301 41.2401 51.8001 40.5101 50.6001 40.1601C44.7601 38.4501 38.8701 36.9101 33.0001 35.2801C32.0801 35.0201 31.1301 34.7401 30.3301 34.2501C28.6201 33.1901 27.8601 31.7101 28.7801 29.7001C29.6701 27.7701 31.3101 27.1401 33.2101 27.5901C37.1801 28.5301 41.1101 29.6701 45.0601 30.7101C45.6901 30.8801 46.3301 30.9801 47.4301 30.7101C45.7701 27.9801 44.3601 25.0501 42.3501 22.6101C41.4801 21.5501 39.3901 21.4601 37.8301 21.0001C36.1201 20.5001 34.3701 20.1301 32.6701 19.6101C30.2501 18.8601 28.9901 17.1101 29.3901 15.2501C29.8801 13.0101 31.7001 11.9101 34.3301 12.2701C35.0401 12.3701 35.7501 12.5101 36.9201 12.7101C35.5101 10.1501 34.3101 7.95012 33.1001 5.76012C32.1301 4.01012 32.0501 2.35012 33.6701 0.93012C35.3901 -0.58988 37.8401 -0.17988 39.2001 1.95012C40.5101 4.00012 41.6901 6.14012 43.1401 8.60012C43.5301 7.65012 43.7901 7.02012 44.0501 6.38012C45.0001 4.06012 46.7801 2.94012 48.6701 3.49012C50.8901 4.13012 51.8901 6.03012 51.2601 8.64012C50.6701 11.0901 49.7301 13.4801 49.3601 15.9601C49.1401 17.4401 49.4301 19.1701 50.0301 20.5501C51.0001 22.7701 52.4301 24.8001 53.9801 27.4501C54.6801 25.0401 55.2401 23.1201 55.7801 21.2001C56.4401 18.8401 57.0501 16.4701 57.7601 14.1301C58.5001 11.6901 60.2801 10.6301 62.4301 11.2401C64.6401 11.8601 65.5501 13.5801 64.8801 16.1501C63.5101 21.4701 62.2301 26.8201 60.6001 32.0601C59.5101 35.5501 59.6401 38.5901 61.9801 41.4801C62.7501 42.4301 63.2701 43.5701 64.4701 44.5501C64.6001 43.4301 64.8201 42.3201 64.8401 41.2001C64.9001 38.0801 64.8201 34.9501 64.8901 31.8201C64.9501 29.3101 66.0701 28.1501 68.1501 28.2001C70.0901 28.2501 71.1201 29.4401 71.1601 31.8301C71.2201 34.8801 71.1801 37.9301 71.2301 40.9901C71.2501 42.1601 71.4001 43.3301 71.5001 44.5001C71.6901 44.5801 71.8801 44.6601 72.0701 44.7401C73.1501 43.0401 74.0701 41.2001 75.3501 39.6701C76.9501 37.7501 76.4401 35.8901 75.8801 33.8401C74.2401 27.8201 72.6701 21.7901 71.1701 15.7401C70.5101 13.0701 71.5601 11.2501 73.8001 10.7201C75.7901 10.2601 77.6601 11.5201 78.3601 13.9601C79.6201 18.3701 80.7901 22.7901 82.3301 27.2701C84.1701 23.3601 88.6901 20.5101 86.5201 15.1301C85.7501 13.2201 85.4001 11.1301 84.8901 9.11012C84.2401 6.51012 85.1901 4.51012 87.3201 3.88012C89.2501 3.31012 91.1501 4.50012 92.0901 6.89012C92.3301 7.50012 92.5601 8.11012 93.0001 9.25012C94.5101 6.78012 95.8001 4.67012 97.0901 2.55012C98.0501 0.97012 99.3101 -0.11988 101.29 0.35012C103.66 0.91012 104.66 3.29012 103.53 5.65012C102.99 6.79012 102.32 7.87012 101.69 8.97012C101.07 10.0501 100.42 11.1201 99.5401 12.6001C100.83 12.4401 101.72 12.2901 102.62 12.2301C104.82 12.0701 106.44 13.1601 106.83 15.0201C107.25 17.0201 106.41 18.6501 104.28 19.3801C101.96 20.1701 99.5901 20.8601 97.2001 21.3501C94.9001 21.8201 93.3301 22.9801 92.2801 25.0801C91.3201 26.9801 90.1501 28.7801 88.7901 31.1101C90.0901 30.9201 90.8601 30.8801 91.6001 30.6901C94.8401 29.8701 98.0601 28.9801 101.31 28.1901C102.16 27.9801 103.08 27.9001 103.95 27.9801C105.61 28.1201 106.7 29.1201 107.09 30.7101C107.5 32.3601 106.84 33.7601 105.35 34.4301C103.47 35.2701 101.48 35.9101 99.4801 36.4601C95.1901 37.6501 90.8801 38.8001 86.5501 39.8301C84.2201 40.3901 82.5101 41.5501 81.4201 43.7001C80.6001 45.3301 79.6701 46.9001 79.1401 48.9501C79.8301 48.6901 80.5601 48.5001 81.2001 48.1401C84.1901 46.4801 87.1301 44.7401 90.1301 43.1001C92.4801 41.8101 94.0701 42.1201 95.1601 43.9201C96.2101 45.6501 95.6401 47.3301 93.3601 48.7001C90.4901 50.4301 87.5501 52.0301 84.6701 53.7301C83.9401 54.1601 83.3001 54.7501 82.5101 55.3501C85.9401 56.9601 91.5101 56.1901 93.9401 53.8001C98.0801 49.7301 102.15 45.5901 106.25 41.4801C106.78 40.9501 107.29 40.4101 107.87 39.9501C109.62 38.5701 111.9 38.7401 113.3 40.2901C114.45 41.5701 114.4 43.9301 113.02 45.3701C110.23 48.2601 107.36 51.0701 104.52 53.9201C104.01 54.4301 103.53 54.9801 102.96 55.5901C109.33 56.5101 112.85 57.4001 117.09 52.0001C118.14 50.6701 119.45 49.5101 120.76 48.4301C122.45 47.0301 124.56 47.2001 125.98 48.6701C127.3 50.0401 127.29 52.0301 125.95 53.7301C125.45 54.3601 124.91 54.9401 123.87 56.1501C126.9 56.1501 129.3 56.1401 131.69 56.1501C133.45 56.1601 134.96 56.7801 135.72 58.4401C136.8 60.7901 135.12 63.2501 132.32 63.3801C129.89 63.4901 127.45 63.4001 124.37 63.4001C125.23 64.4701 125.71 65.0501 126.17 65.6501C127.6 67.4901 127.54 69.4301 126.04 70.8601C124.45 72.3601 122.63 72.4401 120.86 70.8601C119.14 69.3201 117.54 67.6601 115.96 65.9801C114.22 64.1301 112.19 63.2101 109.61 63.3701C107.55 63.5001 105.48 63.4001 102.75 63.4001C104.1 64.8401 105.01 65.8501 105.97 66.8201C108.06 68.9401 110.21 71.0001 112.28 73.1401C114.02 74.9301 114.2 77.2101 112.81 78.7301C111.25 80.4401 109.12 80.4801 107.11 78.5401C103.25 74.8201 99.2101 71.2301 95.8001 67.1301C92.1301 62.7001 87.6301 63.1101 82.1801 63.6501C83.2601 64.4401 83.8301 64.9401 84.4701 65.3201C87.4201 67.0601 90.4001 68.7301 93.3401 70.4901C95.6301 71.8601 96.1701 73.4301 95.0901 75.2501C93.9801 77.1101 92.4601 77.4301 90.0901 76.1201C87.4201 74.6501 84.8201 73.0501 82.1701 71.5501C81.1601 70.9801 80.0901 70.5001 78.9501 69.9301C79.1101 73.7901 82.5601 78.2401 85.9201 79.1401C91.5101 80.6501 97.1001 82.1401 102.69 83.6601C103.55 83.8901 104.43 84.1201 105.2 84.5401C106.88 85.4501 108.08 86.6701 107.38 88.8401C106.73 90.8601 105.03 91.9301 102.85 91.4401C99.0901 90.5901 95.3601 89.5901 91.6001 88.6801C90.8201 88.4901 90.0201 88.4201 89.2001 88.2901C89.5301 91.7801 93.3701 96.6601 96.3801 97.5201C98.6701 98.1701 100.98 98.7301 103.24 99.4501C105.81 100.26 107.01 101.83 106.68 103.69C106.35 105.57 104.69 106.72 102.09 106.78C101.23 106.8 100.37 106.6 99.0801 106.44C100.16 108.38 101.11 110.01 101.98 111.68C102.46 112.59 102.98 113.54 103.18 114.53C103.51 116.19 103.45 117.86 101.56 118.71C99.7901 119.51 97.9301 118.91 96.7601 117.08C95.7601 115.51 94.9001 113.86 93.9401 112.27C93.6501 111.78 93.2601 111.34 92.7701 110.69C92.3001 111.78 92.0101 112.69 91.5401 113.5C90.6001 115.13 89.2401 116.06 87.2901 115.48C85.3201 114.89 84.2601 113.48 84.6301 111.44C85.0901 108.97 85.7101 106.51 86.4501 104.11C87.1601 101.81 86.9101 99.7501 85.6401 97.7201C84.5101 95.9201 83.4801 94.0501 82.0601 91.6201C81.3901 93.7901 80.8901 95.3001 80.4601 96.8201C79.6901 99.5401 79.0001 102.28 78.2001 104.98C77.5101 107.31 75.6901 108.42 73.6901 107.87C71.5601 107.29 70.4601 105.54 71.0501 103.21C72.5501 97.2401 74.0901 91.2701 75.7701 85.3501C76.4301 83.0101 76.1901 81.0001 74.8801 79.0001C73.9101 77.5301 73.0701 75.9701 72.1701 74.4601C71.9501 74.4801 71.7301 74.5001 71.5101 74.5101L71.5601 74.4601Z" fill="#244E93"/>
</svg>
