<svg width="98" height="98" viewBox="0 0 98 98" fill="none" xmlns="http://www.w3.org/2000/svg">
<path d="M59.7188 62.7812V57.9118C60.6123 57.5959 61.3863 57.0114 61.9346 56.2383C62.4828 55.4652 62.7786 54.5415 62.7813 53.5937V50.5312C62.7813 49.3129 62.2973 48.1444 61.4358 47.2829C60.5743 46.4214 59.4058 45.9375 58.1875 45.9375H44.6972L37.3166 42.9821C37.0847 42.8897 36.8337 42.8553 36.5855 42.8819C36.3373 42.9086 36.0994 42.9956 35.8925 43.1353C35.6847 43.2757 35.5146 43.4651 35.3971 43.6867C35.2796 43.9083 35.2184 44.1554 35.2188 44.4062V53.5937C35.2214 54.5415 35.5172 55.4652 36.0654 56.2383C36.6137 57.0114 37.3877 57.5959 38.2813 57.9118V62.7812C38.2813 65.624 39.4105 68.3504 41.4207 70.3605C43.4309 72.3707 46.1572 73.5 49 73.5C51.8428 73.5 54.5691 72.3707 56.5793 70.3605C58.5895 68.3504 59.7188 65.624 59.7188 62.7812ZM38.2813 53.5937V46.6725L43.8397 48.8928C44.0194 48.9664 44.2121 49.0028 44.4063 49H58.1875C58.5936 49 58.9831 49.1613 59.2703 49.4485C59.5574 49.7356 59.7188 50.1251 59.7188 50.5312V53.5937C59.7188 53.9998 59.5574 54.3893 59.2703 54.6765C58.9831 54.9636 58.5936 55.125 58.1875 55.125H39.8125C39.4064 55.125 39.0169 54.9636 38.7297 54.6765C38.4426 54.3893 38.2813 53.9998 38.2813 53.5937ZM49 70.4375C46.9694 70.4375 45.022 69.6308 43.5862 68.195C42.1504 66.7592 41.3438 64.8118 41.3438 62.7812V58.1875H56.6563V62.7812C56.6563 64.8118 55.8496 66.7592 54.4138 68.195C52.978 69.6308 51.0306 70.4375 49 70.4375Z" fill="#244E93"/>
<path d="M27.5625 81.1562V93.4062C27.5625 93.8124 27.7238 94.2018 28.011 94.489C28.2982 94.7762 28.6876 94.9375 29.0938 94.9375H68.9062C69.3124 94.9375 69.7018 94.7762 69.989 94.489C70.2762 94.2018 70.4375 93.8124 70.4375 93.4062V81.1562C70.4375 79.1257 69.6309 77.1783 68.195 75.7425C66.7592 74.3066 64.8118 73.5 62.7812 73.5H35.2188C33.1882 73.5 31.2408 74.3066 29.805 75.7425C28.3691 77.1783 27.5625 79.1257 27.5625 81.1562ZM53.3794 76.5625L49 81.83L44.6206 76.5625H53.3794ZM30.625 81.1562C30.625 79.9379 31.109 78.7695 31.9705 77.908C32.832 77.0465 34.0004 76.5625 35.2188 76.5625H40.6241L47.8209 85.1987C47.9646 85.3721 48.1448 85.5117 48.3486 85.6075C48.5524 85.7033 48.7748 85.753 49 85.753C49.2252 85.753 49.4476 85.7033 49.6514 85.6075C49.8552 85.5117 50.0354 85.3721 50.1791 85.1987L57.3759 76.5625H62.7812C63.9996 76.5625 65.168 77.0465 66.0295 77.908C66.891 78.7695 67.375 79.9379 67.375 81.1562V91.875H59.7188V85.75H56.6562V91.875H41.3438V85.75H38.2812V91.875H30.625V81.1562Z" fill="#244E93"/>
<path d="M47.4688 87.2812H50.5312V90.3438H47.4688V87.2812Z" fill="#244E93"/>
<path d="M32.2344 15.802C32.1493 16.0652 32.1371 16.3466 32.1991 16.6162C32.2611 16.8859 32.395 17.1336 32.5866 17.3333L39.7069 24.622L38.0225 34.9426C37.9884 35.2218 38.0318 35.5049 38.148 35.761C38.2642 36.0171 38.4487 36.2363 38.6812 36.3945C38.9137 36.5526 39.1853 36.6437 39.4662 36.6577C39.747 36.6717 40.0264 36.6081 40.2735 36.4739L49.0016 31.7423L57.7297 36.5658C57.9555 36.6876 58.2082 36.7508 58.4647 36.7495C58.7822 36.7519 59.0925 36.6556 59.3528 36.4739C59.5932 36.3056 59.7801 36.0718 59.8914 35.8004C60.0027 35.5289 60.0337 35.2312 59.9806 34.9426L58.2963 24.622L65.4166 17.3333C65.6081 17.1336 65.742 16.8859 65.8041 16.6162C65.8661 16.3466 65.8539 16.0652 65.7688 15.802C65.6788 15.5348 65.5169 15.2976 65.3007 15.1166C65.0846 14.9356 64.8226 14.8177 64.5438 14.7761L54.7744 13.2448L50.395 3.90419C50.2732 3.63686 50.0771 3.4102 49.83 3.25126C49.5829 3.09232 49.2954 3.00781 49.0016 3.00781C48.7078 3.00781 48.4202 3.09232 48.1732 3.25126C47.9261 3.4102 47.73 3.63686 47.6081 3.90419L43.2288 13.2448L33.4594 14.7761C33.1806 14.8177 32.9186 14.9356 32.7025 15.1166C32.4863 15.2976 32.3243 15.5348 32.2344 15.802ZM44.4844 16.1848C44.7313 16.1464 44.965 16.0482 45.1651 15.8987C45.3653 15.7493 45.5259 15.5531 45.6328 15.3273L49.0016 8.19169L52.355 15.312C52.462 15.5378 52.6225 15.734 52.8227 15.8834C53.0229 16.0329 53.2566 16.1311 53.5035 16.1695L61.1597 17.3333L55.586 23.0601C55.421 23.2303 55.2979 23.4364 55.2261 23.6623C55.1544 23.8881 55.136 24.1275 55.1725 24.3617L56.4741 32.3395L49.7672 28.6339C49.5344 28.4995 49.2704 28.4287 49.0016 28.4287C48.7328 28.4287 48.4687 28.4995 48.236 28.6339L41.5291 32.3395L42.8766 24.377C42.9131 24.1429 42.8947 23.9034 42.823 23.6776C42.7513 23.4517 42.6281 23.2456 42.4631 23.0754L36.8894 17.3486L44.4844 16.1848Z" fill="#244E93"/>
<path d="M67.4531 31.8351C67.368 32.0984 67.3559 32.3798 67.4179 32.6494C67.4799 32.919 67.6138 33.1668 67.8053 33.3664L73.3944 39.0933L72.0775 47.1936C72.0434 47.4727 72.0868 47.7559 72.203 48.012C72.3192 48.2681 72.5037 48.4872 72.7362 48.6454C72.9687 48.8036 73.2403 48.8947 73.5212 48.9087C73.802 48.9227 74.0814 48.8591 74.3285 48.7248L81.1578 45.0345L87.9872 48.8167C88.213 48.9385 88.4657 49.0017 88.7222 49.0004C89.0397 49.0029 89.35 48.9065 89.6103 48.7248C89.8507 48.5566 90.0376 48.3228 90.1489 48.0513C90.2602 47.7799 90.2912 47.4821 90.2382 47.1936L88.9213 39.0933L94.5103 33.3664C94.7019 33.1668 94.8358 32.919 94.8978 32.6494C94.9598 32.3798 94.9476 32.0984 94.8625 31.8351C94.7726 31.5679 94.6106 31.3307 94.3945 31.1497C94.1783 30.9687 93.9164 30.8509 93.6375 30.8092L85.9813 29.6454L82.5513 22.3261C82.4295 22.0587 82.2333 21.8321 81.9863 21.6731C81.7392 21.5142 81.4516 21.4297 81.1578 21.4297C80.8641 21.4297 80.5765 21.5142 80.3294 21.6731C80.0823 21.8321 79.8862 22.0587 79.7644 22.3261L76.3344 29.6454L68.6781 30.8092C68.3993 30.8509 68.1374 30.9687 67.9212 31.1497C67.7051 31.3307 67.5431 31.5679 67.4531 31.8351ZM77.6053 32.5395C77.8522 32.5011 78.0859 32.4029 78.2861 32.2534C78.4863 32.104 78.6468 31.9078 78.7538 31.682L81.1578 26.5676L83.5619 31.682C83.6689 31.9078 83.8294 32.104 84.0296 32.2534C84.2298 32.4029 84.4635 32.5011 84.7103 32.5395L90.2382 33.397L86.1803 37.5314C86.0131 37.7032 85.8886 37.9119 85.8168 38.1406C85.745 38.3693 85.7279 38.6117 85.7669 38.8483L86.7163 44.6058L81.8928 41.9414C81.6601 41.807 81.396 41.7362 81.1272 41.7362C80.8584 41.7362 80.5944 41.807 80.3616 41.9414L75.5382 44.6058L76.5641 38.8483C76.6031 38.6117 76.586 38.3693 76.5142 38.1406C76.4423 37.9119 76.3178 37.7032 76.1507 37.5314L72.0928 33.397L77.6053 32.5395Z" fill="#244E93"/>
<path d="M4.36565 30.8092C4.0868 30.8509 3.82487 30.9687 3.60872 31.1497C3.39257 31.3307 3.23059 31.5679 3.14065 31.8351C3.05555 32.0984 3.04336 32.3798 3.10537 32.6494C3.16738 32.919 3.30128 33.1668 3.49284 33.3664L9.0819 39.0933L7.76502 47.1936C7.73091 47.4727 7.77433 47.7559 7.89052 48.012C8.0067 48.2681 8.19117 48.4872 8.42369 48.6454C8.65621 48.8036 8.9278 48.8947 9.20867 48.9087C9.48955 48.9227 9.76885 48.8591 10.016 48.7248L16.8453 45.0345L23.6747 48.8167C23.9005 48.9385 24.1532 49.0017 24.4097 49.0004C24.7272 49.0029 25.0375 48.9065 25.2978 48.7248C25.5382 48.5566 25.7251 48.3228 25.8364 48.0513C25.9477 47.7799 25.9787 47.4821 25.9256 47.1936L24.6088 39.0933L30.1978 33.3664C30.3894 33.1668 30.5233 32.919 30.5853 32.6494C30.6473 32.3798 30.6351 32.0984 30.55 31.8351C30.4601 31.5679 30.2981 31.3307 30.082 31.1497C29.8658 30.9687 29.6039 30.8509 29.325 30.8092L21.6688 29.6454L18.2388 22.3261C18.117 22.0587 17.9208 21.8321 17.6738 21.6731C17.4267 21.5142 17.1391 21.4297 16.8453 21.4297C16.5516 21.4297 16.264 21.5142 16.0169 21.6731C15.7698 21.8321 15.5737 22.0587 15.4519 22.3261L12.0219 29.6454L4.36565 30.8092ZM14.4413 31.682L16.8453 26.5676L19.2494 31.682C19.3564 31.9078 19.5169 32.104 19.7171 32.2534C19.9173 32.4029 20.151 32.5011 20.3978 32.5395L25.9256 33.397L21.8678 37.5314C21.7006 37.7032 21.5761 37.9119 21.5043 38.1406C21.4325 38.3693 21.4154 38.6117 21.4544 38.8483L22.4038 44.6058L17.5803 41.9414C17.3476 41.807 17.0835 41.7362 16.8147 41.7362C16.5459 41.7362 16.2819 41.807 16.0491 41.9414L11.2869 44.6058L12.2516 38.8483C12.2906 38.6117 12.2735 38.3693 12.2017 38.1406C12.1298 37.9119 12.0053 37.7032 11.8381 37.5314L7.78034 33.397L13.3081 32.5395C13.5523 32.4988 13.7829 32.3995 13.9802 32.2502C14.1775 32.1008 14.3358 31.9059 14.4413 31.682Z" fill="#244E93"/>
<path d="M73.5 85.75H88.8125V88.8125H73.5V85.75Z" fill="#244E93"/>
<path d="M91.875 85.75H94.9375V88.8125H91.875V85.75Z" fill="#244E93"/>
<path d="M73.5 79.625H82.6875V82.6875H73.5V79.625Z" fill="#244E93"/>
<path d="M85.75 79.625H88.8125V82.6875H85.75V79.625Z" fill="#244E93"/>
<path d="M73.5 91.875H82.6875V94.9375H73.5V91.875Z" fill="#244E93"/>
<path d="M85.75 91.875H88.8125V94.9375H85.75V91.875Z" fill="#244E93"/>
<path d="M9.1875 85.75H24.5V88.8125H9.1875V85.75Z" fill="#244E93"/>
<path d="M3.0625 85.75H6.125V88.8125H3.0625V85.75Z" fill="#244E93"/>
<path d="M15.3125 91.875H24.5V94.9375H15.3125V91.875Z" fill="#244E93"/>
<path d="M9.1875 91.875H12.25V94.9375H9.1875V91.875Z" fill="#244E93"/>
<path d="M15.3125 79.625H24.5V82.6875H15.3125V79.625Z" fill="#244E93"/>
<path d="M9.1875 79.625H12.25V82.6875H9.1875V79.625Z" fill="#244E93"/>
</svg>
