<svg width="82" height="82" viewBox="0 0 82 82" fill="none" xmlns="http://www.w3.org/2000/svg">
<path fill-rule="evenodd" clip-rule="evenodd" d="M2.83044 79.8632H35.0732V70.4005C35.0732 65.3592 31.1103 61.2278 26.1357 60.9548C25.6106 64.4475 22.5892 67.1344 18.9516 67.1344C15.3141 67.1344 12.2929 64.4476 11.7674 60.9548C6.79323 61.2278 2.83032 65.3592 2.83032 70.4006L2.83044 79.8632ZM36.1428 82.0022H1.76101C1.17071 82.0022 0.691406 81.5231 0.691406 80.9327L0.691481 70.4005C0.691481 64.0037 5.89619 58.8008 12.2931 58.8008H12.7573C13.3481 58.8008 13.8267 59.2799 13.8267 59.8704C13.8269 62.6964 16.1256 64.9953 18.9517 64.9953C21.7779 64.9952 24.0766 62.6965 24.0766 59.8704C24.077 59.2799 24.5556 58.8008 25.1462 58.8008H25.6123C32.0076 58.8008 37.212 64.0038 37.212 70.4006L37.2123 80.9327C37.2123 81.5231 36.7329 82.0022 36.1428 82.0022Z" fill="#244E93"/>
<path fill-rule="evenodd" clip-rule="evenodd" d="M12.7571 60.9386C12.1668 60.9386 11.6875 60.4596 11.6875 59.8691L11.6876 55.3959C11.6876 54.8036 12.1667 54.3264 12.757 54.3264C13.3479 54.3264 13.8266 54.8036 13.8266 55.3959L13.8267 59.8691C13.8267 60.4596 13.3476 60.9387 12.7571 60.9386Z" fill="#244E93"/>
<path fill-rule="evenodd" clip-rule="evenodd" d="M25.148 60.9384C24.5572 60.9384 24.0781 60.4593 24.0781 59.8689L24.0785 55.3957C24.0785 54.8034 24.5571 54.3262 25.1477 54.3262C25.7384 54.3262 26.2172 54.8034 26.2172 55.3957L26.2176 59.8688C26.2176 60.4593 25.7382 60.9384 25.148 60.9384Z" fill="#244E93"/>
<path fill-rule="evenodd" clip-rule="evenodd" d="M18.9535 59.2009C13.9957 59.2008 9.93823 55.4056 8.61618 49.5324C8.48651 48.9548 8.84822 48.383 9.4257 48.253C10.0014 48.123 10.5732 48.4851 10.7033 49.0625C11.7971 53.9219 15.0352 57.0619 18.9532 57.0619C22.8715 57.0618 26.1095 53.922 27.2033 49.0625C27.3336 48.4851 27.9051 48.123 28.4826 48.253C29.0586 48.383 29.4203 48.9549 29.2904 49.5324C27.9686 55.4055 23.911 59.201 18.9535 59.2009Z" fill="#244E93"/>
<path fill-rule="evenodd" clip-rule="evenodd" d="M18.9506 32.4887C16.6498 32.4887 14.3472 33.1757 12.5535 34.5479C9.11277 37.1809 8.23449 41.7767 10.0616 47.3082C10.4109 45.8024 10.6521 43.0412 10.6297 40.3023C10.6261 39.8492 10.9064 39.4445 11.3298 39.2885C11.7533 39.1325 12.2304 39.2607 12.5201 39.6079C13.3484 40.5994 15.9924 41.292 18.9503 41.292C21.9102 41.292 24.5543 40.5994 25.3807 39.6079C25.6703 39.2606 26.1475 39.1344 26.5709 39.2885C26.9964 39.4444 27.2764 39.8492 27.2728 40.3023C27.2509 43.0412 27.4919 45.8005 27.841 47.3082C29.6665 41.7766 28.7898 37.1809 25.3472 34.5479C23.5538 33.1757 21.2528 32.4887 18.9506 32.4887ZM9.94292 50.4333C9.69603 50.4333 9.44697 50.3795 9.20555 50.2663C8.96241 50.1529 8.76922 49.9525 8.66707 49.7018C4.48201 39.4798 9.08113 34.5108 11.2536 32.849C13.3614 31.2372 16.0945 30.3496 18.9503 30.3496C21.8083 30.3496 24.5413 31.2372 26.647 32.849C28.8196 34.5108 33.4189 39.4798 29.2335 49.7018C29.1318 49.9524 28.9402 50.153 28.6951 50.2663C28.1511 50.5206 27.5568 50.4854 27.0666 50.1697C26.3797 49.7277 25.6332 48.7083 25.2915 44.5025C25.2287 43.7263 25.1912 42.9706 25.167 42.317C22.9614 43.3308 20.0124 43.4311 18.9503 43.4311C17.8902 43.4311 14.9413 43.3308 12.7336 42.317C12.7116 42.9706 12.6723 43.7264 12.6091 44.5025C12.2675 48.7083 11.5211 49.7277 10.834 50.1697C10.5613 50.3461 10.2547 50.4334 9.94292 50.4333Z" fill="#244E93"/>
<path fill-rule="evenodd" clip-rule="evenodd" d="M8.22586 81.9983C7.63556 81.9983 7.15625 81.5193 7.15625 80.9288L7.15632 71.0372C7.15632 70.4468 7.6354 69.9678 8.22586 69.9678C8.81661 69.9677 9.29539 70.4469 9.29539 71.0373V80.9288C9.29539 81.5193 8.81631 81.9983 8.22586 81.9983Z" fill="#244E93"/>
<path fill-rule="evenodd" clip-rule="evenodd" d="M29.6793 81.9985C29.0885 81.9985 28.6094 81.5194 28.6094 80.9289L28.6098 71.0373C28.6098 70.4469 29.0884 69.9679 29.6789 69.9679C30.2697 69.9678 30.7485 70.447 30.7485 71.0374L30.7489 80.9289C30.7489 81.5194 30.2694 81.9985 29.6793 81.9985Z" fill="#244E93"/>
<path fill-rule="evenodd" clip-rule="evenodd" d="M46.9284 79.8632H79.1706V70.4005C79.1706 65.3592 75.208 61.2278 70.2335 60.9548C69.708 64.4475 66.6869 67.1344 63.0493 67.1344C59.412 67.1344 56.3906 64.4476 55.8652 60.9548C50.8907 61.2278 46.9281 65.3592 46.9281 70.4006L46.9284 79.8632ZM80.2402 82.0022H45.8588C45.2684 82.0022 44.7891 81.5231 44.7891 80.9327L44.7893 70.4005C44.7893 64.0037 49.9938 58.8008 56.3906 58.8008H56.8551C57.4454 58.8008 57.9244 59.2799 57.9244 59.8704C57.9246 62.6964 60.2232 64.9953 63.0493 64.9953C65.8756 64.9952 68.1742 62.6965 68.1742 59.8704C68.1743 59.2799 68.6533 58.8008 69.2438 58.8008H69.708C76.1052 58.8008 81.3096 64.0038 81.3096 70.4006V80.9327C81.3096 81.5231 80.8306 82.0022 80.2402 82.0022Z" fill="#244E93"/>
<path fill-rule="evenodd" clip-rule="evenodd" d="M56.8549 60.9384C56.2645 60.9384 55.7852 60.4593 55.7852 59.8689L55.7854 55.3957C55.7854 54.8034 56.2642 54.3262 56.8547 54.3262C57.4452 54.3262 57.9242 54.8034 57.9242 55.3957L57.9244 59.8688C57.9244 60.4593 57.4451 60.9384 56.8549 60.9384Z" fill="#244E93"/>
<path fill-rule="evenodd" clip-rule="evenodd" d="M69.2415 60.9384C68.6512 60.9384 68.1719 60.4593 68.1719 59.8689L68.1719 55.3957C68.1719 54.8034 68.651 54.3262 69.2414 54.3262C69.8322 54.3262 70.3109 54.8034 70.3109 55.3957L70.311 59.8688C70.311 60.4593 69.8319 60.9384 69.2415 60.9384Z" fill="#244E93"/>
<path fill-rule="evenodd" clip-rule="evenodd" d="M63.0475 59.2009C58.0899 59.2008 54.0321 55.4056 52.71 49.5324C52.5801 48.9548 52.9422 48.383 53.5196 48.253C54.0954 48.123 54.6672 48.4851 54.7971 49.0625C55.8911 53.9219 59.1291 57.0619 63.0471 57.0619C66.9651 57.0618 70.2035 53.922 71.2971 49.0625C71.4271 48.4851 71.9972 48.123 72.5765 48.253C73.1522 48.383 73.5142 48.9549 73.3843 49.5324C72.0621 55.4055 68.0031 59.201 63.0475 59.2009Z" fill="#244E93"/>
<path fill-rule="evenodd" clip-rule="evenodd" d="M63.0483 32.4887C60.7458 32.4887 58.4449 33.1739 56.6512 34.5479C53.2106 37.1809 52.332 41.7767 54.1592 47.3082C54.5086 45.8024 54.7497 43.0412 54.7274 40.3023C54.7222 39.8492 55.004 39.4445 55.4274 39.2885C55.851 39.1325 56.328 39.2607 56.6176 39.6079C57.4461 40.5994 60.0901 41.292 63.0479 41.292C66.0063 41.292 68.6519 40.5994 69.4782 39.6079C69.768 39.2606 70.2451 39.1344 70.6685 39.2885C71.092 39.4444 71.3741 39.8492 71.3704 40.3023C71.3482 43.0412 71.5895 45.8023 71.9385 47.3082C73.7638 41.7766 72.8856 37.1809 69.4448 34.5479C67.6511 33.1757 65.3486 32.4887 63.0483 32.4887ZM72.0559 50.4333C71.7438 50.4333 71.4391 50.3461 71.1643 50.1697C70.4775 49.7277 69.7308 48.7083 69.3891 44.5025C69.326 43.7263 69.2888 42.9706 69.2647 42.317C67.057 43.3308 64.1101 43.4311 63.048 43.4311C61.9858 43.4311 59.0391 43.3308 56.8312 42.317C56.809 42.9706 56.77 43.7264 56.7068 44.5025C56.3654 48.7083 55.6187 49.7277 54.9316 50.1697C54.4418 50.4853 53.8472 50.5207 53.3032 50.2663C53.0581 50.1529 52.8668 49.9525 52.7647 49.7018C48.5797 39.4798 53.1788 34.5108 55.3513 32.849C57.4591 31.2372 60.1903 30.3496 63.0479 30.3496C65.906 30.3496 68.639 31.2372 70.7447 32.849C72.9174 34.5108 77.5166 39.4798 73.3312 49.7018C73.2294 49.9524 73.0378 50.153 72.7927 50.2663C72.5535 50.3795 72.3026 50.4334 72.0559 50.4333Z" fill="#244E93"/>
<path fill-rule="evenodd" clip-rule="evenodd" d="M52.3197 81.9983C51.7294 81.9983 51.25 81.5193 51.25 80.9288L51.2501 71.0372C51.2501 70.4468 51.729 69.9678 52.3195 69.9678C52.91 69.9677 53.3891 70.4469 53.3891 71.0373L53.3893 80.9288C53.3893 81.5193 52.91 81.9983 52.3197 81.9983Z" fill="#244E93"/>
<path fill-rule="evenodd" clip-rule="evenodd" d="M73.7767 81.9983C73.1863 81.9983 72.707 81.5193 72.707 80.9288L72.7071 71.0372C72.7071 70.4468 73.1861 69.9678 73.7766 69.9678C74.367 69.9677 74.8461 70.4469 74.8461 71.0373L74.8462 80.9288C74.8462 81.5193 74.367 81.9983 73.7767 81.9983Z" fill="#244E93"/>
<path fill-rule="evenodd" clip-rule="evenodd" d="M41.001 36.7788C37.3637 36.7788 34.3422 34.092 33.8167 30.5993C31.0559 30.7497 28.5266 32.0903 26.8182 34.3278C26.4602 34.7976 25.7877 34.8867 25.3198 34.5284C24.8504 34.17 24.759 33.4997 25.1174 33.0299C27.3421 30.1165 30.7047 28.4453 34.3422 28.4453H34.8068C35.3971 28.4453 35.876 28.9244 35.876 29.5149C35.8764 32.341 38.1748 34.6398 41.0009 34.6398C43.8274 34.6397 46.1258 32.341 46.1258 29.5149C46.126 28.9243 46.6049 28.4453 47.1954 28.4453H47.6597C51.2991 28.4453 54.6599 30.1165 56.8844 33.0299C57.2431 33.4997 57.1518 34.17 56.6839 34.5303C56.2145 34.8867 55.5419 34.7976 55.1836 34.3278C53.4754 32.0902 50.9481 30.7497 48.1851 30.5993C47.6597 34.092 44.6385 36.7788 41.001 36.7788ZM54.0992 51.6466H27.9027C27.3124 51.6466 26.8331 51.1677 26.8331 50.5772C26.8332 49.9867 27.3121 49.5076 27.9026 49.5076L54.0991 49.5075C54.6899 49.5075 55.1687 49.9867 55.1687 50.5772C55.1687 51.1675 54.6897 51.6468 54.0992 51.6466Z" fill="#244E93"/>
<path fill-rule="evenodd" clip-rule="evenodd" d="M34.8043 30.5869C34.2135 30.5869 33.7344 30.1079 33.7344 29.5174L33.7348 25.0441C33.7348 24.4518 34.2135 23.9746 34.804 23.9746C35.3947 23.9745 35.8735 24.4519 35.8735 25.0441L35.8739 29.5173C35.8739 30.1078 35.3944 30.5869 34.8043 30.5869Z" fill="#244E93"/>
<path fill-rule="evenodd" clip-rule="evenodd" d="M47.1948 30.5848C46.6045 30.5848 46.125 30.1057 46.125 29.5153L46.1252 25.0402C46.1252 24.4497 46.6041 23.9707 47.1945 23.9707C47.7872 23.9706 48.2641 24.4498 48.2641 25.0402L48.2643 29.5152C48.2643 30.1057 47.7869 30.5848 47.1948 30.5848Z" fill="#244E93"/>
<path fill-rule="evenodd" clip-rule="evenodd" d="M41.0002 28.8495C36.0428 28.8495 31.9851 25.0541 30.6631 19.1808C30.5333 18.6033 30.8952 18.0315 31.4707 17.9014C32.0487 17.7714 32.6201 18.1336 32.7502 18.711C33.8439 23.5704 37.0822 26.7104 41.0002 26.7104C44.9183 26.7104 48.1565 23.5705 49.2501 18.711C49.3803 18.1336 49.952 17.7715 50.5296 17.9014C51.1054 18.0313 51.4673 18.6033 51.3372 19.1808C50.0154 25.0541 45.9561 28.8495 41.0002 28.8495Z" fill="#244E93"/>
<path fill-rule="evenodd" clip-rule="evenodd" d="M48.2541 8.87184C48.377 8.87184 48.5009 8.89239 48.6217 8.93694C49.0471 9.09286 49.3273 9.49769 49.3236 9.95075C49.3015 12.6896 49.5427 15.4507 49.8917 16.9567C51.7172 11.4251 50.8406 6.82938 47.398 4.1964C43.8109 1.45188 38.1918 1.45196 34.6043 4.1964C31.1639 6.82938 30.2871 11.4251 32.1124 16.9567C32.4616 15.4489 32.7029 12.6896 32.6806 9.95075C32.6772 9.49769 32.9573 9.09286 33.3807 8.93694C33.8044 8.78275 34.2812 8.90904 34.5709 9.25628C35.399 10.2478 38.0432 10.9404 41.0012 10.9404C43.9592 10.9404 46.6052 10.2478 47.4333 9.25628C47.6395 9.00736 47.942 8.87192 48.2541 8.87184ZM50.0088 20.0817C49.6972 20.0817 49.3904 19.9945 49.1175 19.8181C48.4304 19.3761 47.684 18.3567 47.3423 14.151C47.2794 13.3748 47.242 12.6191 47.2179 11.9655C45.012 12.9793 42.0633 13.0796 41.0012 13.0796C39.9413 13.0796 36.9922 12.9793 34.7845 11.9655C34.7603 12.619 34.7232 13.3748 34.66 14.151C34.3186 18.3567 33.5719 19.3761 32.8849 19.8181C32.3947 20.1338 31.8005 20.169 31.2564 19.9146C31.0135 19.8013 30.82 19.6008 30.718 19.3502C26.5327 9.12811 31.1319 4.15918 33.3045 2.49732C35.412 0.885488 38.1454 -0.00195311 41.0012 -0.00195311C43.8589 -0.00210302 46.5921 0.885634 48.6978 2.49732C50.8703 4.15918 55.4697 9.12819 51.2843 19.3502C51.1824 19.6008 50.991 19.8014 50.7459 19.9146C50.5064 20.0279 50.2558 20.0817 50.0088 20.0817Z" fill="#244E93"/>
</svg>
