<svg width="33" height="33" viewBox="0 0 33 33" fill="none" xmlns="http://www.w3.org/2000/svg">
<mask id="path-1-outside-1_2_1283" maskUnits="userSpaceOnUse" x="-4.61509" y="-6.54645" width="43.8333" height="43.8333" fill="black">
<rect fill="white" x="-4.61509" y="-6.54645" width="43.8333" height="43.8333"/>
<path d="M14.9777 6.36801C18.1538 6.11672 21.2271 7.2559 23.3906 9.50005C25.592 11.7836 26.618 14.8964 26.2127 18.0218C26.1677 18.3691 26.0467 18.6376 25.8105 18.8653C25.5349 19.131 25.1848 19.2407 24.7602 19.1942C24.0263 19.1421 23.5357 18.4756 23.5878 17.7417C23.9016 15.3882 23.1328 13.0149 21.5007 11.3219C19.9066 9.66835 17.563 8.81326 15.1996 9.04074C14.4643 9.06596 13.8162 8.55131 13.791 7.816C13.7264 7.11864 14.241 6.47056 14.9777 6.36801ZM14.5706 1.13925C19.2961 0.761611 23.906 2.47038 27.1702 5.85628C30.4723 9.28155 32.0113 13.9509 31.461 18.6593C31.416 19.0066 31.295 19.2751 31.0982 19.4649C30.8226 19.7306 30.4331 19.8782 30.0085 19.8317C29.314 19.7417 28.784 19.1131 28.8361 18.3792C29.2949 14.4426 28.0511 10.5522 25.2804 7.67816C22.5475 4.84346 18.7052 3.45815 14.7545 3.77261C14.0192 3.79783 13.4105 3.24522 13.3459 2.54787C13.3207 1.81255 13.8353 1.16447 14.5706 1.13925ZM11.335 17.3241L10.1568 18.3081C11.0929 19.9884 12.4973 21.4451 14.1421 22.4421L15.17 21.2233C15.8815 20.3854 17.085 20.1367 18.1212 20.5811L22.1869 22.4346C23.299 22.9578 23.9343 24.1683 23.6038 25.3226L22.6445 29.134C22.5193 29.6345 22.2802 30.0169 21.9259 30.3585C21.4928 30.776 20.8686 31.074 20.1726 31.0613C15.1464 30.9693 10.5042 28.9118 7.01223 25.2897C3.55825 21.7069 1.67202 16.9926 1.764 11.9663C1.78523 10.8064 2.61626 9.77738 3.78041 9.56663L7.62436 8.74741C8.78993 8.45933 9.97646 9.13854 10.4586 10.269L12.1621 14.3999C12.5683 15.4515 12.2757 16.6452 11.335 17.3241ZM13.8578 25.2989C10.9842 23.8153 8.66889 21.4137 7.29141 18.4878C7.02996 17.9802 7.19735 17.2871 7.66839 16.9089L9.74798 15.2839L8.04304 11.2304L4.3917 12.0918C4.35183 16.3841 5.94148 20.3969 8.90204 23.4678C11.9006 26.5781 15.8904 28.3529 20.2207 28.4321L21.1013 24.6966L17.0327 22.9978L15.4494 24.98C15.0149 25.4748 14.3555 25.5788 13.8578 25.2989ZM15.3848 11.5968C17.0115 11.4718 18.5482 12.0414 19.6109 13.1438C20.7117 14.2856 21.2246 15.842 21.0403 17.463C20.9967 17.733 20.8363 18.0395 20.6395 18.2292C20.3639 18.4949 19.9744 18.6425 19.5498 18.5961C18.8553 18.506 18.3253 17.8775 18.4168 17.1056C18.5083 16.3338 18.2905 15.5563 17.7211 14.9657C17.1898 14.4145 16.4207 14.1684 15.646 14.2315C14.8714 14.2947 14.2627 13.7421 14.1981 13.0448C14.1728 12.3094 14.6875 11.6614 15.3848 11.5968Z"/>
</mask>
<path d="M14.9777 6.36801C18.1538 6.11672 21.2271 7.2559 23.3906 9.50005C25.592 11.7836 26.618 14.8964 26.2127 18.0218C26.1677 18.3691 26.0467 18.6376 25.8105 18.8653C25.5349 19.131 25.1848 19.2407 24.7602 19.1942C24.0263 19.1421 23.5357 18.4756 23.5878 17.7417C23.9016 15.3882 23.1328 13.0149 21.5007 11.3219C19.9066 9.66835 17.563 8.81326 15.1996 9.04074C14.4643 9.06596 13.8162 8.55131 13.791 7.816C13.7264 7.11864 14.241 6.47056 14.9777 6.36801ZM14.5706 1.13925C19.2961 0.761611 23.906 2.47038 27.1702 5.85628C30.4723 9.28155 32.0113 13.9509 31.461 18.6593C31.416 19.0066 31.295 19.2751 31.0982 19.4649C30.8226 19.7306 30.4331 19.8782 30.0085 19.8317C29.314 19.7417 28.784 19.1131 28.8361 18.3792C29.2949 14.4426 28.0511 10.5522 25.2804 7.67816C22.5475 4.84346 18.7052 3.45815 14.7545 3.77261C14.0192 3.79783 13.4105 3.24522 13.3459 2.54787C13.3207 1.81255 13.8353 1.16447 14.5706 1.13925ZM11.335 17.3241L10.1568 18.3081C11.0929 19.9884 12.4973 21.4451 14.1421 22.4421L15.17 21.2233C15.8815 20.3854 17.085 20.1367 18.1212 20.5811L22.1869 22.4346C23.299 22.9578 23.9343 24.1683 23.6038 25.3226L22.6445 29.134C22.5193 29.6345 22.2802 30.0169 21.9259 30.3585C21.4928 30.776 20.8686 31.074 20.1726 31.0613C15.1464 30.9693 10.5042 28.9118 7.01223 25.2897C3.55825 21.7069 1.67202 16.9926 1.764 11.9663C1.78523 10.8064 2.61626 9.77738 3.78041 9.56663L7.62436 8.74741C8.78993 8.45933 9.97646 9.13854 10.4586 10.269L12.1621 14.3999C12.5683 15.4515 12.2757 16.6452 11.335 17.3241ZM13.8578 25.2989C10.9842 23.8153 8.66889 21.4137 7.29141 18.4878C7.02996 17.9802 7.19735 17.2871 7.66839 16.9089L9.74798 15.2839L8.04304 11.2304L4.3917 12.0918C4.35183 16.3841 5.94148 20.3969 8.90204 23.4678C11.9006 26.5781 15.8904 28.3529 20.2207 28.4321L21.1013 24.6966L17.0327 22.9978L15.4494 24.98C15.0149 25.4748 14.3555 25.5788 13.8578 25.2989ZM15.3848 11.5968C17.0115 11.4718 18.5482 12.0414 19.6109 13.1438C20.7117 14.2856 21.2246 15.842 21.0403 17.463C20.9967 17.733 20.8363 18.0395 20.6395 18.2292C20.3639 18.4949 19.9744 18.6425 19.5498 18.5961C18.8553 18.506 18.3253 17.8775 18.4168 17.1056C18.5083 16.3338 18.2905 15.5563 17.7211 14.9657C17.1898 14.4145 16.4207 14.1684 15.646 14.2315C14.8714 14.2947 14.2627 13.7421 14.1981 13.0448C14.1728 12.3094 14.6875 11.6614 15.3848 11.5968Z" fill="#244E93"/>
<path d="M14.9777 6.36801L14.8989 5.37113L14.8693 5.37347L14.8399 5.37756L14.9777 6.36801ZM24.7602 19.1942L24.8689 18.2001L24.85 18.1981L24.831 18.1967L24.7602 19.1942ZM23.5878 17.7417L22.5966 17.6096L22.5925 17.6401L22.5903 17.6709L23.5878 17.7417ZM15.1996 9.04074L15.2338 10.0402L15.2647 10.0391L15.2954 10.0361L15.1996 9.04074ZM13.791 7.816L14.7904 7.78172L14.7894 7.75269L14.7867 7.72377L13.791 7.816ZM14.5706 1.13925L14.6049 2.13867L14.6276 2.13789L14.6503 2.13608L14.5706 1.13925ZM31.461 18.6593L32.4528 18.7879L32.4542 18.7754L31.461 18.6593ZM30.0085 19.8317L29.8799 20.8234L29.8898 20.8247L29.8998 20.8258L30.0085 19.8317ZM28.8361 18.3792L27.8429 18.2635L27.8402 18.2859L27.8387 18.3084L28.8361 18.3792ZM14.7545 3.77261L14.7888 4.77202L14.8113 4.77125L14.8338 4.76946L14.7545 3.77261ZM13.3459 2.54787L12.3465 2.58215L12.3475 2.61117L12.3501 2.6401L13.3459 2.54787ZM11.335 17.3241L10.7498 16.5133L10.7212 16.5339L10.6941 16.5566L11.335 17.3241ZM10.1568 18.3081L9.51576 17.5406L8.88012 18.0714L9.28319 18.7949L10.1568 18.3081ZM14.1421 22.4421L13.6238 23.2973L14.3552 23.7406L14.9066 23.0868L14.1421 22.4421ZM15.17 21.2233L14.4078 20.576L14.4056 20.5786L15.17 21.2233ZM18.1212 20.5811L18.536 19.6712L18.5257 19.6665L18.5153 19.6621L18.1212 20.5811ZM22.1869 22.4346L22.6127 21.5297L22.6018 21.5247L22.1869 22.4346ZM23.6038 25.3226L22.6424 25.0473L22.638 25.0628L22.634 25.0785L23.6038 25.3226ZM22.6445 29.134L21.6747 28.8899L21.6744 28.8913L22.6445 29.134ZM3.78041 9.56663L3.95855 10.5506L3.97375 10.5479L3.98885 10.5447L3.78041 9.56663ZM7.62436 8.74741L7.8328 9.72545L7.84861 9.72208L7.8643 9.7182L7.62436 8.74741ZM10.4586 10.269L11.3831 9.88771L11.3784 9.87669L10.4586 10.269ZM12.1621 14.3999L13.0949 14.0396L13.0909 14.029L13.0866 14.0186L12.1621 14.3999ZM13.8578 25.2989L14.3479 24.4273L14.3324 24.4186L14.3165 24.4104L13.8578 25.2989ZM7.29141 18.4878L8.19616 18.0618L8.18857 18.0457L8.18041 18.0299L7.29141 18.4878ZM7.66839 16.9089L7.05261 16.1209L7.04237 16.1291L7.66839 16.9089ZM9.74798 15.2839L10.3637 16.0719L10.9662 15.601L10.6698 14.8962L9.74798 15.2839ZM8.04304 11.2304L8.96483 10.8427L8.63683 10.0628L7.81343 10.2571L8.04304 11.2304ZM4.3917 12.0918L4.16208 11.1185L3.39902 11.2985L3.39174 12.0825L4.3917 12.0918ZM20.2207 28.4321L20.2024 29.432L21.009 29.4467L21.194 28.6616L20.2207 28.4321ZM21.1013 24.6966L22.0746 24.9261L22.2692 24.1006L21.4866 23.7739L21.1013 24.6966ZM17.0327 22.9978L17.418 22.075L16.722 21.7844L16.2513 22.3737L17.0327 22.9978ZM15.4494 24.98L16.2008 25.6398L16.2162 25.6223L16.2307 25.6041L15.4494 24.98ZM15.3848 11.5968L15.3083 10.5997L15.3004 10.6003L15.2926 10.601L15.3848 11.5968ZM21.0403 17.463L22.0275 17.6226L22.0312 17.5994L22.0339 17.5761L21.0403 17.463ZM19.5498 18.5961L19.4212 19.5878L19.4312 19.589L19.4411 19.5901L19.5498 18.5961ZM14.1981 13.0448L13.1986 13.079L13.1996 13.1081L13.2023 13.137L14.1981 13.0448ZM14.9777 6.36801L15.0566 7.3649C17.9439 7.13646 20.7212 8.17198 22.6706 10.1941L23.3906 9.50005L24.1105 8.806C21.7329 6.33983 18.3637 5.09699 14.8989 5.37113L14.9777 6.36801ZM23.3906 9.50005L22.6706 10.1941C24.6616 12.2593 25.5871 15.0696 25.221 17.8932L26.2127 18.0218L27.2044 18.1504C27.6488 14.7233 26.5224 11.3078 24.1105 8.806L23.3906 9.50005ZM26.2127 18.0218L25.221 17.8932C25.2001 18.054 25.1631 18.1004 25.1164 18.1454L25.8105 18.8653L26.5045 19.5853C26.9303 19.1748 27.1352 18.6842 27.2044 18.1504L26.2127 18.0218ZM25.8105 18.8653L25.1164 18.1454C25.0809 18.1797 25.037 18.2185 24.8689 18.2001L24.7602 19.1942L24.6515 20.1883C25.3326 20.2628 25.9889 20.0824 26.5045 19.5853L25.8105 18.8653ZM24.7602 19.1942L24.831 18.1967C24.7643 18.192 24.7114 18.1642 24.6659 18.1063C24.6155 18.042 24.5763 17.9388 24.5853 17.8125L23.5878 17.7417L22.5903 17.6709C22.5058 18.8611 23.3145 20.0941 24.6894 20.1917L24.7602 19.1942ZM23.5878 17.7417L24.579 17.8739C24.9325 15.2228 24.0678 12.5439 22.2207 10.6279L21.5007 11.3219L20.7808 12.016C22.1979 13.4859 22.8707 15.5536 22.5966 17.6096L23.5878 17.7417ZM21.5007 11.3219L22.2207 10.6279C20.4088 8.7485 17.7622 7.78947 15.1038 8.04534L15.1996 9.04074L15.2954 10.0361C17.3638 9.83705 19.4044 10.5882 20.7808 12.016L21.5007 11.3219ZM15.1996 9.04074L15.1653 8.04133C15.0388 8.04567 14.9371 8.00274 14.8747 7.95002C14.8185 7.90248 14.7927 7.84863 14.7904 7.78172L13.791 7.816L12.7915 7.85028C12.8388 9.22778 14.0413 10.0811 15.2338 10.0402L15.1996 9.04074ZM13.791 7.816L14.7867 7.72377C14.7734 7.58007 14.8865 7.39035 15.1156 7.35847L14.9777 6.36801L14.8399 5.37756C13.5955 5.55077 12.6793 6.65722 12.7952 7.90823L13.791 7.816ZM14.5706 1.13925L14.6503 2.13608C19.0841 1.78174 23.3985 3.38483 26.4502 6.55033L27.1702 5.85628L27.8901 5.16223C24.4134 1.55593 19.508 -0.258514 14.491 0.142432L14.5706 1.13925ZM27.1702 5.85628L26.4502 6.55033C29.5412 9.75656 30.9839 14.1272 30.4678 18.5433L31.461 18.6593L32.4542 18.7754C33.0387 13.7745 31.4034 8.80655 27.8901 5.16223L27.1702 5.85628ZM31.461 18.6593L30.4693 18.5307C30.4571 18.6248 30.4381 18.6809 30.4247 18.7105C30.4182 18.725 30.4129 18.7336 30.4098 18.738C30.4069 18.7422 30.405 18.7441 30.4041 18.745L31.0982 19.4649L31.7922 20.1848C32.1937 19.7978 32.3868 19.2962 32.4527 18.7879L31.461 18.6593ZM31.0982 19.4649L30.4041 18.745C30.3362 18.8105 30.2387 18.8509 30.1173 18.8376L30.0085 19.8317L29.8998 20.8258C30.6276 20.9054 31.309 20.6507 31.7922 20.1848L31.0982 19.4649ZM30.0085 19.8317L30.1371 18.84C29.9676 18.818 29.8191 18.6552 29.8336 18.4501L28.8361 18.3792L27.8387 18.3084C27.749 19.571 28.6604 20.6653 29.8799 20.8234L30.0085 19.8317ZM28.8361 18.3792L29.8294 18.495C30.3215 14.2726 28.9866 10.0818 26.0003 6.98411L25.2804 7.67816L24.5604 8.37222C27.1156 11.0227 28.2684 14.6127 27.8429 18.2635L28.8361 18.3792ZM25.2804 7.67816L26.0003 6.98411C23.0503 3.92418 18.9104 2.43865 14.6752 2.77576L14.7545 3.77261L14.8338 4.76946C18.5001 4.47764 22.0447 5.76273 24.5604 8.37222L25.2804 7.67816ZM14.7545 3.77261L14.7202 2.7732C14.5146 2.78025 14.3574 2.62582 14.3416 2.45564L13.3459 2.54787L12.3501 2.6401C12.4636 3.86463 13.5237 4.81541 14.7888 4.77202L14.7545 3.77261ZM13.3459 2.54787L14.3453 2.51359C14.341 2.38713 14.3839 2.28536 14.4366 2.22303C14.4842 2.16681 14.538 2.14096 14.6049 2.13867L14.5706 1.13925L14.5364 0.139841C13.1588 0.187088 12.3056 1.38965 12.3465 2.58215L13.3459 2.54787ZM11.335 17.3241L10.6941 16.5566L9.51576 17.5406L10.1568 18.3081L10.7977 19.0757L11.976 18.0917L11.335 17.3241ZM10.1568 18.3081L9.28319 18.7949C10.3038 20.6266 11.8306 22.2103 13.6238 23.2973L14.1421 22.4421L14.6605 21.5869C13.164 20.6798 11.882 19.3501 11.0303 17.8214L10.1568 18.3081ZM14.1421 22.4421L14.9066 23.0868L15.9345 21.8679L15.17 21.2233L14.4056 20.5786L13.3777 21.7974L14.1421 22.4421ZM15.17 21.2233L15.9323 21.8706C16.339 21.3916 17.064 21.2158 17.727 21.5001L18.1212 20.5811L18.5153 19.6621C17.1061 19.0576 15.4241 19.3792 14.4078 20.576L15.17 21.2233ZM18.1212 20.5811L17.7064 21.491L21.7721 23.3445L22.1869 22.4346L22.6018 21.5247L18.536 19.6712L18.1212 20.5811ZM22.1869 22.4346L21.7613 23.3395C22.4912 23.6829 22.82 24.4273 22.6424 25.0473L23.6038 25.3226L24.5652 25.5979C25.0487 23.9094 24.1068 22.2326 22.6126 21.5297L22.1869 22.4346ZM23.6038 25.3226L22.634 25.0785L21.6747 28.8899L22.6445 29.134L23.6142 29.3781L24.5736 25.5667L23.6038 25.3226ZM22.6445 29.134L21.6744 28.8913C21.599 29.1929 21.4646 29.4142 21.2319 29.6386L21.9259 30.3585L22.62 31.0784C23.0959 30.6196 23.4396 30.0761 23.6146 29.3766L22.6445 29.134ZM21.9259 30.3585L21.2319 29.6386C20.9641 29.8967 20.588 30.0687 20.1909 30.0614L20.1726 31.0613L20.1543 32.0611C21.1491 32.0793 22.0216 31.6553 22.62 31.0784L21.9259 30.3585ZM20.1726 31.0613L20.1909 30.0614C15.4346 29.9744 11.0434 28.0303 7.73216 24.5957L7.01223 25.2897L6.29231 25.9838C9.96499 29.7934 14.8581 31.9642 20.1543 32.0611L20.1726 31.0613ZM7.01223 25.2897L7.73216 24.5957C4.45999 21.2015 2.67677 16.7425 2.76383 11.9846L1.764 11.9663L0.764168 11.948C0.667277 17.2427 2.6565 22.2124 6.29231 25.9838L7.01223 25.2897ZM1.764 11.9663L2.76383 11.9846C2.77672 11.2806 3.2836 10.6728 3.95855 10.5506L3.78041 9.56663L3.60227 8.58262C1.94892 8.88194 0.793735 10.3323 0.764168 11.948L1.764 11.9663ZM3.78041 9.56663L3.98885 10.5447L7.8328 9.72545L7.62436 8.74741L7.41593 7.76938L3.57197 8.58859L3.78041 9.56663ZM7.62436 8.74741L7.8643 9.7182C8.49039 9.56346 9.22227 9.91924 9.53873 10.6613L10.4586 10.269L11.3784 9.87669C10.7307 8.35785 9.08946 7.35521 7.38442 7.77663L7.62436 8.74741ZM10.4586 10.269L9.53409 10.6502L11.2376 14.7811L12.1621 14.3999L13.0866 14.0186L11.383 9.88774L10.4586 10.269ZM12.1621 14.3999L11.2292 14.7601C11.4859 15.4246 11.2909 16.1227 10.7498 16.5133L11.335 17.3241L11.9203 18.135C13.2605 17.1676 13.6507 15.4785 13.0949 14.0396L12.1621 14.3999ZM13.8578 25.2989L14.3165 24.4104C11.6385 23.0277 9.47992 20.7887 8.19616 18.0618L7.29141 18.4878L6.38666 18.9137C7.85786 22.0387 10.3299 24.603 13.399 26.1875L13.8578 25.2989ZM7.29141 18.4878L8.18041 18.0299C8.17455 18.0185 8.15719 17.9684 8.17769 17.8828C8.19796 17.7982 8.24438 17.7289 8.29441 17.6887L7.66839 16.9089L7.04237 16.1291C6.23581 16.7766 5.90325 17.9766 6.40241 18.9457L7.29141 18.4878ZM7.66839 16.9089L8.28412 17.6969L10.3637 16.0719L9.74798 15.2839L9.13225 14.4959L7.05266 16.121L7.66839 16.9089ZM9.74798 15.2839L10.6698 14.8962L8.96483 10.8427L8.04304 11.2304L7.12126 11.6181L8.82619 15.6716L9.74798 15.2839ZM8.04304 11.2304L7.81343 10.2571L4.16208 11.1185L4.3917 12.0918L4.62131 13.0651L8.27266 12.2036L8.04304 11.2304ZM4.3917 12.0918L3.39174 12.0825C3.34945 16.6347 5.03813 20.9007 8.18211 24.1619L8.90204 23.4678L9.62196 22.7738C6.84482 19.8931 5.3542 16.1335 5.39166 12.1011L4.3917 12.0918ZM8.90204 23.4678L8.18211 24.1619C11.361 27.4593 15.6016 29.3478 20.2024 29.432L20.2207 28.4321L20.239 27.4323C16.1792 27.358 12.4401 25.697 9.62196 22.7738L8.90204 23.4678ZM20.2207 28.4321L21.194 28.6616L22.0746 24.9261L21.1013 24.6966L20.128 24.4672L19.2474 28.2027L20.2207 28.4321ZM21.1013 24.6966L21.4866 23.7739L17.418 22.075L17.0327 22.9978L16.6474 23.9206L20.716 25.6194L21.1013 24.6966ZM17.0327 22.9978L16.2513 22.3737L14.668 24.3559L15.4494 24.98L16.2307 25.6041L17.814 23.6219L17.0327 22.9978ZM15.4494 24.98L14.6979 24.3202C14.5561 24.4817 14.4089 24.4616 14.3479 24.4273L13.8578 25.2989L13.3677 26.1706C14.302 26.696 15.4736 26.468 16.2008 25.6398L15.4494 24.98ZM15.3848 11.5968L15.4614 12.5938C16.8079 12.4904 18.0469 12.9623 18.891 13.8379L19.6109 13.1438L20.3309 12.4498C19.0494 11.1206 17.2152 10.4532 15.3083 10.5997L15.3848 11.5968ZM19.6109 13.1438L18.891 13.8379C19.7769 14.7568 20.1986 16.0141 20.0467 17.35L21.0403 17.463L22.0339 17.5761C22.2507 15.67 21.6464 13.8143 20.3309 12.4498L19.6109 13.1438ZM21.0403 17.463L20.0531 17.3035C20.044 17.3599 19.9865 17.4697 19.9454 17.5093L20.6395 18.2292L21.3335 18.9492C21.6862 18.6092 21.9493 18.1061 22.0275 17.6226L21.0403 17.463ZM20.6395 18.2292L19.9454 17.5093C19.8775 17.5748 19.78 17.6153 19.6586 17.602L19.5498 18.5961L19.4411 19.5901C20.1689 19.6697 20.8503 19.4151 21.3335 18.9492L20.6395 18.2292ZM19.5498 18.5961L19.6784 17.6044C19.5209 17.5839 19.3837 17.4445 19.4099 17.2233L18.4168 17.1056L17.4238 16.9879C17.267 18.3104 18.1897 19.4281 19.4212 19.5878L19.5498 18.5961ZM18.4168 17.1056L19.4099 17.2233C19.5329 16.1852 19.2397 15.1001 18.4411 14.2716L17.7211 14.9657L17.0012 15.6597C17.3412 16.0125 17.4837 16.4823 17.4238 16.9879L18.4168 17.1056ZM17.7211 14.9657L18.4411 14.2716C17.6725 13.4744 16.5941 13.1509 15.5648 13.2349L15.646 14.2315L15.7273 15.2282C16.2474 15.1858 16.707 15.3546 17.0012 15.6597L17.7211 14.9657ZM15.646 14.2315L15.5648 13.2349C15.3427 13.253 15.2084 13.1107 15.1938 12.9525L14.1981 13.0448L13.2023 13.137C13.3169 14.3735 14.4 15.3365 15.7273 15.2282L15.646 14.2315ZM14.1981 13.0448L15.1975 13.0105C15.1932 12.8853 15.2355 12.7752 15.2969 12.6995C15.3566 12.626 15.4215 12.5977 15.4771 12.5925L15.3848 11.5968L15.2926 10.601C13.9959 10.7211 13.1578 11.8895 13.1986 13.079L14.1981 13.0448Z" fill="black" mask="url(#path-1-outside-1_2_1283)"/>
</svg>
