<svg width="50" height="50" viewBox="0 0 50 50" fill="none" xmlns="http://www.w3.org/2000/svg">
<path d="M47.0216 37.0968L49.7966 30.1387L48.3033 29.5395L45.2896 37.0968H45.0298V27.4194H43.4216V14.5161H40.2052V11.2903H38.597V14.5161H36.9888V9.67742H35.3806V14.5161H33.7724V11.2903H32.1642V14.5161H28.9478V24.1935H25.7313V28.3298C23.8361 25.996 21.2493 24.296 18.3135 23.5169L17.9484 22.4194C19.1208 22.0944 20.0841 21.2629 20.5658 20.1613H20.9067C22.6806 20.1613 24.1231 18.7145 24.1231 16.9355V12.9032C25.0101 12.9032 25.7313 12.1798 25.7313 11.2903V9.67742C25.7313 8.7879 25.0101 8.06452 24.1231 8.06452H23.9832C23.2137 3.41935 19.2527 0 14.4739 0C9.69508 0 5.73407 3.41935 4.96454 8.06452H4.82463C3.9377 8.06452 3.21642 8.7879 3.21642 9.67742V11.2903C3.21642 12.1798 3.9377 12.9032 4.82463 12.9032V16.9355C4.82463 18.7145 6.26719 20.1613 8.04104 20.1613H8.38198C8.86444 21.2629 9.82696 22.0952 10.9993 22.4194L10.6343 23.5169C4.3502 25.179 0 30.8129 0 37.3726V37.9032C0 41.3419 1.96523 44.3234 4.82463 45.7952V50H28.9478V43.5484H31.4413C31.8152 45.3863 33.4387 46.7742 35.3806 46.7742C37.3225 46.7742 38.946 45.3863 39.3199 43.5484H43.3557C46.5842 43.5484 49.3133 41.2298 49.844 38.0363L50 37.0968H47.0216ZM36.9888 37.0968V29.0323H43.4216V37.0968H36.9888ZM30.556 16.129H41.8134V27.4194H36.9888V24.1935H30.556V16.129ZM35.3806 25.8065V37.0968H27.3395V25.8065H35.3806ZM25.7313 31.1903V37.0968H25.4716L22.457 29.5387L20.9638 30.1379L23.7396 37.0968H20.762L20.918 38.0363C21.1311 39.3186 21.7028 40.4565 22.5149 41.3629V48.3871H18.4944V46.7742C19.8244 46.7742 20.9067 45.6887 20.9067 44.3548C20.9067 43.021 19.8244 41.9355 18.4944 41.9355V25.2637C21.5604 26.2411 24.1537 28.3508 25.7313 31.1903ZM16.3064 22.5806L16.8026 24.0742L14.4739 27.5782L12.1444 24.0742L12.6413 22.5806H16.3064ZM16.8862 30.7653L15.4694 28.9887L16.8862 26.8573V30.7653ZM12.0616 30.7653V26.8573L13.4784 28.9887L12.0616 30.7653ZM12.0616 33.3468L14.4739 30.3226L16.8862 33.3468V40.4645C16.6337 40.375 16.3643 40.3226 16.0821 40.3226H15.1405C14.4964 40.3226 13.8901 40.5742 13.4342 41.0315L12.6092 41.8589L12.0616 41.7363V33.3468ZM13.6698 43.0758L14.5712 42.1718C14.7231 42.0194 14.9258 41.9355 15.1405 41.9355H16.0821C16.5251 41.9355 16.8862 42.2976 16.8862 42.7419V43.5484H18.4944C18.9375 43.5484 19.2985 43.9105 19.2985 44.3548C19.2985 44.7992 18.9375 45.1613 18.4944 45.1613H13.6698V43.0758ZM16.8862 46.7742V48.3871H12.0616V46.7742H16.8862ZM20.9067 18.5484V15.3226C21.7936 15.3226 22.5149 16.046 22.5149 16.9355C22.5149 17.825 21.7936 18.5484 20.9067 18.5484ZM22.5149 14.1581C22.0397 13.8806 21.4953 13.7097 20.9067 13.7097V12.9032H22.5149V14.1581ZM22.3509 8.06452H16.8862V1.98226C19.6483 2.84113 21.7671 5.13871 22.3509 8.06452ZM15.278 1.65323V8.06452H13.6698V1.65323C13.9343 1.62742 14.2021 1.6129 14.4739 1.6129C14.7457 1.6129 15.0134 1.62742 15.278 1.65323ZM12.0616 1.98226V8.06452H6.59687C7.18065 5.13871 9.29947 2.84113 12.0616 1.98226ZM4.82382 9.67742H24.1231V11.2903H4.82463L4.82382 9.67742ZM8.04104 12.9032V13.7097C7.45244 13.7097 6.90806 13.8806 6.43283 14.1581V12.9032H8.04104ZM6.43283 16.9355C6.43283 16.046 7.15412 15.3226 8.04104 15.3226V18.5484C7.15412 18.5484 6.43283 17.825 6.43283 16.9355ZM9.64925 18.5484V12.9032H19.2985V18.5484C19.2985 19.8823 18.2162 20.9677 16.8862 20.9677H12.0616C10.7316 20.9677 9.64925 19.8823 9.64925 18.5484ZM1.60821 37.9032V37.3726C1.60821 31.7597 5.19773 26.9145 10.4534 25.2524V41.379L9.5809 41.1847C7.72744 40.771 6.43283 39.1524 6.43283 37.2476V33.871H4.82463V37.2476C4.82463 39.9137 6.63708 42.1798 9.23192 42.7581L12.0616 43.3887V45.1613H8.84515C4.85518 45.1613 1.60821 41.9048 1.60821 37.9032ZM6.43283 46.4306C7.20075 46.6492 8.00807 46.7742 8.84515 46.7742H10.4534V48.3871H6.43283V46.4306ZM24.1231 48.3871V42.6726C25.0744 43.221 26.1736 43.5339 27.3395 43.546V48.3871H24.1231ZM35.3806 45.1613C34.0506 45.1613 32.9683 44.0758 32.9683 42.7419C32.9683 42.2976 33.3293 41.9355 33.7724 41.9355H36.9888C37.4319 41.9355 37.7929 42.2976 37.7929 42.7419C37.7929 44.0758 36.7106 45.1613 35.3806 45.1613ZM43.3549 41.9355H39.2523C38.9194 40.9992 38.0349 40.3226 36.988 40.3226H33.7716C32.7246 40.3226 31.8401 40.9992 31.5072 41.9355H27.4047C25.2947 41.9355 23.4678 40.625 22.7529 38.7097H48.005C47.2918 40.625 45.4657 41.9355 43.3549 41.9355Z" fill="#717580"/>
<path d="M38.597 17.7419H40.2052V19.3548H38.597V17.7419Z" fill="#717580"/>
<path d="M35.3806 17.7419H36.9888V19.3548H35.3806V17.7419Z" fill="#717580"/>
<path d="M32.1642 17.7419H33.7724V19.3548H32.1642V17.7419Z" fill="#717580"/>
<path d="M38.597 20.9677H40.2052V22.5806H38.597V20.9677Z" fill="#717580"/>
<path d="M32.1642 20.9677H33.7724V22.5806H32.1642V20.9677Z" fill="#717580"/>
<path d="M35.3806 20.9677H36.9888V22.5806H35.3806V20.9677Z" fill="#717580"/>
<path d="M38.597 24.1935H40.2052V25.8065H38.597V24.1935Z" fill="#717580"/>
<path d="M28.9478 27.4194H30.556V35.4839H28.9478V27.4194Z" fill="#717580"/>
<path d="M32.1642 27.4194H33.7724V35.4839H32.1642V27.4194Z" fill="#717580"/>
<path d="M38.597 30.6452H41.8134V32.2581H38.597V30.6452Z" fill="#717580"/>
<path d="M38.597 33.871H41.8134V35.4839H38.597V33.871Z" fill="#717580"/>
</svg>
