<svg width="58" height="58" viewBox="0 0 58 58" fill="none" xmlns="http://www.w3.org/2000/svg">
<path d="M20 44.75V47.771C20.0001 48.9533 19.7673 50.1241 19.3149 51.2164C18.8624 52.3087 18.1991 53.3011 17.363 54.137L15.5 56H42.5L40.637 54.137C39.8009 53.3011 39.1376 52.3087 38.6851 51.2164C38.2327 50.1241 37.9999 48.9533 38 47.771V44.75M56 8.75V38C56 39.7902 55.2888 41.5071 54.023 42.773C52.7571 44.0388 51.0402 44.75 49.25 44.75H8.75C6.95979 44.75 5.2429 44.0388 3.97703 42.773C2.71116 41.5071 2 39.7902 2 38V8.75M56 8.75C56 6.95979 55.2888 5.2429 54.023 3.97703C52.7571 2.71116 51.0402 2 49.25 2H8.75C6.95979 2 5.2429 2.71116 3.97703 3.97703C2.71116 5.2429 2 6.95979 2 8.75M56 8.75V29C56 30.7902 55.2888 32.5071 54.023 33.773C52.7571 35.0388 51.0402 35.75 49.25 35.75H8.75C6.95979 35.75 5.2429 35.0388 3.97703 33.773C2.71116 32.5071 2 30.7902 2 29V8.75" stroke="#244E93" stroke-width="3" stroke-linecap="round" stroke-linejoin="round"/>
</svg>
