<svg width="60" height="60" viewBox="0 0 60 60" fill="none" xmlns="http://www.w3.org/2000/svg">
<path d="M58 8H53.113L22.807 1.157C22.6468 0.812405 22.3918 0.520571 22.0718 0.315666C21.7518 0.110761 21.38 0.00126577 21 0H17C16.5873 0.00184026 16.1852 0.131326 15.849 0.370698C15.5128 0.61007 15.2588 0.947602 15.122 1.337L2.748 8H2C1.46957 8 0.960859 8.21071 0.585786 8.58579C0.210714 8.96086 0 9.46957 0 10V12C0 12.5304 0.210714 13.0391 0.585786 13.4142C0.960859 13.7893 1.46957 14 2 14H13V17C13.0026 17.6183 13.1961 18.2206 13.5541 18.7247C13.9121 19.2288 14.4171 19.6099 15 19.816V48C14.2044 48 13.4413 48.3161 12.8787 48.8787C12.3161 49.4413 12 50.2043 12 51V52.184C11.4171 52.3901 10.9121 52.7712 10.5541 53.2753C10.1961 53.7794 10.0026 54.3817 10 55V58C10 58.5304 10.2107 59.0391 10.5858 59.4142C10.9609 59.7893 11.4696 60 12 60H26C26.5304 60 27.0391 59.7893 27.4142 59.4142C27.7893 59.0391 28 58.5304 28 58V55C27.9974 54.3817 27.8039 53.7794 27.4459 53.2753C27.0879 52.7712 26.5829 52.3901 26 52.184V51C26 50.2043 25.6839 49.4413 25.1213 48.8787C24.5587 48.3161 23.7956 48 23 48V20C24.0609 20 25.0783 19.5786 25.8284 18.8284C26.5786 18.0783 27 17.0609 27 16V14H50V18H49C48.4696 18 47.9609 18.2107 47.5858 18.5858C47.2107 18.9609 47 19.4696 47 20V24C47 24.5304 47.2107 25.0391 47.5858 25.4142C47.9609 25.7893 48.4696 26 49 26H53C53.5304 26 54.0391 25.7893 54.4142 25.4142C54.7893 25.0391 55 24.5304 55 24V20C55 19.4696 54.7893 18.9609 54.4142 18.5858C54.0391 18.2107 53.5304 18 53 18H52V14H58C58.5304 14 59.0391 13.7893 59.4142 13.4142C59.7893 13.0391 60 12.5304 60 12V10C60 9.46957 59.7893 8.96086 59.4142 8.58579C59.0391 8.21071 58.5304 8 58 8ZM53 24H49V20H53V24ZM21 8H23C23.5304 8 24.0391 8.21071 24.4142 8.58579C24.7893 8.96086 25 9.46957 25 10V13H22C21.7348 13 21.4804 12.8946 21.2929 12.7071C21.1054 12.5196 21 12.2652 21 12V8ZM23 6V3.251L44.03 8H26.444C26.0956 7.39399 25.5941 6.89021 24.9896 6.53918C24.3851 6.18815 23.699 6.00221 23 6ZM17 2H21V6H17V2ZM15 3.674V6.184C14.5818 6.3334 14.2019 6.5738 13.8878 6.88785C13.5738 7.2019 13.3334 7.58175 13.184 8H6.967L15 3.674ZM2 12V10H13V12H2ZM12 58V55C12 54.7348 12.1054 54.4804 12.2929 54.2929C12.4804 54.1054 12.7348 54 13 54H25C25.2652 54 25.5196 54.1054 25.7071 54.2929C25.8946 54.4804 26 54.7348 26 55V58H12ZM24 51V52H14V51C14 50.7348 14.1054 50.4804 14.2929 50.2929C14.4804 50.1054 14.7348 50 15 50H23C23.2652 50 23.5196 50.1054 23.7071 50.2929C23.8946 50.4804 24 50.7348 24 51ZM21 48H17V20H21V48ZM23 18H16C15.7348 18 15.4804 17.8946 15.2929 17.7071C15.1054 17.5196 15 17.2652 15 17V9C15 8.73478 15.1054 8.48043 15.2929 8.29289C15.4804 8.10536 15.7348 8 16 8H19V12C19 12.7956 19.3161 13.5587 19.8787 14.1213C20.4413 14.6839 21.2044 15 22 15H25V16C25 16.5304 24.7893 17.0391 24.4142 17.4142C24.0391 17.7893 23.5304 18 23 18ZM58 12H27V10H58V12Z" fill="#717580"/>
<path d="M58 27H56C55.4696 27 54.9609 27.2107 54.5858 27.5858C54.2107 27.9609 54 28.4696 54 29V30H48V29C48 28.4696 47.7893 27.9609 47.4142 27.5858C47.0391 27.2107 46.5304 27 46 27H44C43.4696 27 42.9609 27.2107 42.5858 27.5858C42.2107 27.9609 42 28.4696 42 29V38H36V37C36 36.4696 35.7893 35.9609 35.4142 35.5858C35.0391 35.2107 34.5304 35 34 35H32C31.4696 35 30.9609 35.2107 30.5858 35.5858C30.2107 35.9609 30 36.4696 30 37V58C30 58.5304 30.2107 59.0391 30.5858 59.4142C30.9609 59.7893 31.4696 60 32 60H58C58.5304 60 59.0391 59.7893 59.4142 59.4142C59.7893 59.0391 60 58.5304 60 58V29C60 28.4696 59.7893 27.9609 59.4142 27.5858C59.0391 27.2107 58.5304 27 58 27ZM58 58H32V37H34V39C34 39.2652 34.1054 39.5196 34.2929 39.7071C34.4804 39.8946 34.7348 40 35 40H43C43.2652 40 43.5196 39.8946 43.7071 39.7071C43.8946 39.5196 44 39.2652 44 39V29H46V31C46 31.2652 46.1054 31.5196 46.2929 31.7071C46.4804 31.8946 46.7348 32 47 32H55C55.2652 32 55.5196 31.8946 55.7071 31.7071C55.8946 31.5196 56 31.2652 56 31V29H58V58Z" fill="#717580"/>
<path d="M42 42H36C35.4696 42 34.9609 42.2107 34.5858 42.5858C34.2107 42.9609 34 43.4696 34 44V46C34 46.5304 34.2107 47.0391 34.5858 47.4142C34.9609 47.7893 35.4696 48 36 48H42C42.5304 48 43.0391 47.7893 43.4142 47.4142C43.7893 47.0391 44 46.5304 44 46V44C44 43.4696 43.7893 42.9609 43.4142 42.5858C43.0391 42.2107 42.5304 42 42 42ZM36 46V44H42V46H36Z" fill="#717580"/>
<path d="M42 50H36C35.4696 50 34.9609 50.2107 34.5858 50.5858C34.2107 50.9609 34 51.4696 34 52V54C34 54.5304 34.2107 55.0391 34.5858 55.4142C34.9609 55.7893 35.4696 56 36 56H42C42.5304 56 43.0391 55.7893 43.4142 55.4142C43.7893 55.0391 44 54.5304 44 54V52C44 51.4696 43.7893 50.9609 43.4142 50.5858C43.0391 50.2107 42.5304 50 42 50ZM36 54V52H42V54H36Z" fill="#717580"/>
<path d="M54 42H48C47.4696 42 46.9609 42.2107 46.5858 42.5858C46.2107 42.9609 46 43.4696 46 44V46C46 46.5304 46.2107 47.0391 46.5858 47.4142C46.9609 47.7893 47.4696 48 48 48H54C54.5304 48 55.0391 47.7893 55.4142 47.4142C55.7893 47.0391 56 46.5304 56 46V44C56 43.4696 55.7893 42.9609 55.4142 42.5858C55.0391 42.2107 54.5304 42 54 42ZM48 46V44H54V46H48Z" fill="#717580"/>
<path d="M54 34H48C47.4696 34 46.9609 34.2107 46.5858 34.5858C46.2107 34.9609 46 35.4696 46 36V38C46 38.5304 46.2107 39.0391 46.5858 39.4142C46.9609 39.7893 47.4696 40 48 40H54C54.5304 40 55.0391 39.7893 55.4142 39.4142C55.7893 39.0391 56 38.5304 56 38V36C56 35.4696 55.7893 34.9609 55.4142 34.5858C55.0391 34.2107 54.5304 34 54 34ZM48 38V36H54V38H48Z" fill="#717580"/>
<path d="M54 50H48C47.4696 50 46.9609 50.2107 46.5858 50.5858C46.2107 50.9609 46 51.4696 46 52V54C46 54.5304 46.2107 55.0391 46.5858 55.4142C46.9609 55.7893 47.4696 56 48 56H54C54.5304 56 55.0391 55.7893 55.4142 55.4142C55.7893 55.0391 56 54.5304 56 54V52C56 51.4696 55.7893 50.9609 55.4142 50.5858C55.0391 50.2107 54.5304 50 54 50ZM48 54V52H54V54H48Z" fill="#717580"/>
</svg>
