<svg width="26" height="34" viewBox="0 0 26 34" fill="none" xmlns="http://www.w3.org/2000/svg">
<path d="M22.1764 17.3003H9.3431V30.4253C9.3431 30.9226 9.53625 31.3995 9.88007 31.7511C10.2239 32.1028 10.6902 32.3003 11.1764 32.3003H22.1764C22.6627 32.3003 23.129 32.1028 23.4728 31.7511C23.8166 31.3995 24.0098 30.9226 24.0098 30.4253V19.1753C24.0098 18.678 23.8166 18.2011 23.4728 17.8495C23.129 17.4978 22.6627 17.3003 22.1764 17.3003ZM14.8431 2.30029H3.8431C3.35687 2.30029 2.89055 2.49784 2.54674 2.84947C2.20292 3.2011 2.00977 3.67801 2.00977 4.17529V17.3003H16.6764V4.17529C16.6764 3.67801 16.4833 3.2011 16.1395 2.84947C15.7956 2.49784 15.3293 2.30029 14.8431 2.30029Z" stroke="#717580" stroke-width="3" stroke-linecap="round" stroke-linejoin="round"/>
</svg>
