<svg width="57" height="57" viewBox="0 0 57 57" fill="none" xmlns="http://www.w3.org/2000/svg">
<path d="M41.9706 16.6992H39.337C40.0537 15.6651 41.0973 14.5096 41.7609 13.7747L41.9849 13.5265C43.0651 12.3261 43.3335 10.8749 42.7029 9.64446C42.0724 8.41439 40.6703 7.66114 39.2901 7.81199C37.9112 7.96318 36.8459 8.9815 36.4403 10.536C36.285 11.1309 36.6416 11.739 37.2364 11.8943C37.8315 12.0495 38.4395 11.693 38.5946 11.0981C38.7134 10.6426 38.9727 10.0868 39.5327 10.0253C39.9909 9.97555 40.5131 10.2539 40.7213 10.66C40.9756 11.156 40.6487 11.6827 40.3298 12.037L40.1083 12.2824C38.414 14.1585 36.8588 15.9711 36.4422 17.5241C36.3525 17.8584 36.4234 18.2154 36.6341 18.4901C36.8449 18.7647 37.1713 18.9258 37.5175 18.9258H41.9706C42.5854 18.9258 43.0839 18.4274 43.0839 17.8125C43.0839 17.1976 42.5855 16.6992 41.9706 16.6992Z" fill="#717580"/>
<path d="M49.7639 7.79296C49.1492 7.79296 48.6507 8.29137 48.6507 8.90624V12.8024H46.5543L46.9733 9.02915C47.041 8.41806 46.6007 7.86766 45.9896 7.79986C45.3788 7.73161 44.828 8.17236 44.7602 8.78344L44.2041 13.7929C44.1692 14.1076 44.27 14.4223 44.4811 14.6582C44.6923 14.8943 44.9939 15.0291 45.3106 15.0291H48.6507V17.8125C48.6507 18.4274 49.1492 18.9258 49.7639 18.9258C50.3787 18.9258 50.8772 18.4274 50.8772 17.8125V8.90624C50.8772 8.29137 50.3788 7.79296 49.7639 7.79296Z" fill="#717580"/>
<path d="M25.6056 37.5178C28.9818 37.5178 31.7286 34.771 31.7286 31.3947C31.7286 28.0185 28.9818 25.2717 25.6056 25.2717C22.2293 25.2717 19.4825 28.0185 19.4825 31.3947C19.4825 34.771 22.2293 37.5178 25.6056 37.5178ZM25.6056 27.4982C27.7541 27.4982 29.502 29.2462 29.502 31.3947C29.502 33.5432 27.7541 35.2912 25.6056 35.2912C23.457 35.2912 21.7091 33.5432 21.7091 31.3947C21.7091 29.2462 23.457 27.4982 25.6056 27.4982Z" fill="#717580"/>
<path d="M15.8321 41.167C15.3973 40.7322 14.6928 40.7324 14.258 41.1672C13.8233 41.6019 13.8236 42.3072 14.2583 42.7419C14.4757 42.9593 14.7606 43.068 15.0455 43.068C15.3304 43.068 15.6153 42.9592 15.8327 42.7419C16.2675 42.3072 16.2668 41.6017 15.8321 41.167Z" fill="#717580"/>
<path d="M57 13.3593C57 5.993 51.0071 0 43.6408 0C37.4445 0 32.2201 4.24015 30.7166 9.97131C30.6284 9.95038 30.54 9.92989 30.4516 9.90997L30.1997 6.81238C30.1527 6.23436 29.67 5.78927 29.0901 5.78927H22.1209C21.5411 5.78927 21.0582 6.23436 21.0113 6.81227L20.7594 9.90952C18.2986 10.4608 15.9787 11.4227 13.8421 12.7775L11.4718 10.7637C11.03 10.3882 10.3739 10.4148 9.96374 10.8249L5.0357 15.7529C4.62568 16.1629 4.59907 16.8191 4.97458 17.2609L6.98805 19.6308C5.63342 21.7665 4.67143 24.0867 4.11969 26.5486L1.0231 26.8004C0.4452 26.8474 0 27.3302 0 27.91V34.8793C0 35.4591 0.445089 35.9419 1.02299 35.9889L4.12025 36.2407C4.67154 38.7015 5.63341 41.0214 6.98828 43.158L4.97447 45.5284C4.59896 45.9703 4.62556 46.6265 5.03558 47.0365L9.96363 51.9645C10.3738 52.3745 11.0298 52.4012 11.4717 52.0257L13.8415 50.0122C15.9773 51.3668 18.2974 52.3288 20.7593 52.8804L21.011 55.977C21.058 56.5549 21.5408 57 22.1206 57H29.0899C29.6697 57 30.1525 56.5548 30.1995 55.977L30.4514 52.8796C32.9122 52.3284 35.2321 51.3665 37.3687 50.0117L39.7391 52.0255C40.181 52.4008 40.837 52.3742 41.2471 51.9643L46.1751 47.0363C46.5852 46.6262 46.6118 45.9701 46.2364 45.5282L44.2229 43.1583C45.5775 41.0224 46.5395 38.7024 47.0913 36.2405L50.1877 35.9888C50.7656 35.9418 51.2107 35.4589 51.2107 34.8791V27.9098C51.2107 27.33 50.7656 26.8472 50.1877 26.8002L47.0905 26.5484C47.0706 26.4599 47.0502 26.3715 47.0291 26.2831C52.7601 24.7797 57 19.5554 57 13.3593ZM45.0726 27.7918C45.1635 28.2869 45.5755 28.6593 46.0772 28.7001L48.9843 28.9365V33.8528L46.0775 34.0892C45.5759 34.13 45.164 34.5023 45.0729 34.9974C44.5678 37.7429 43.5059 40.3043 41.9165 42.6103C41.6309 43.0248 41.6589 43.5793 41.9846 43.9628L43.8749 46.1877L40.3985 49.6642L38.1732 47.7736C37.7898 47.4478 37.2354 47.4197 36.8208 47.7052C34.5134 49.2949 31.9523 50.3566 29.2083 50.8612C28.7133 50.9521 28.3409 51.3641 28.3 51.8658L28.0635 54.7734H23.1472L22.9108 51.8666C22.87 51.3649 22.4977 50.9529 22.0026 50.8619C19.2572 50.357 16.6958 49.295 14.3897 47.7056C13.9752 47.42 13.4208 47.448 13.0371 47.7738L10.8122 49.6641L7.33573 46.1876L9.2263 43.9624C9.55216 43.5789 9.58021 43.0243 9.29466 42.61C7.70501 40.3025 6.64316 37.7413 6.13862 34.9974C6.04767 34.5023 5.63564 34.1299 5.134 34.0891L2.22656 33.8528V28.9365L5.13344 28.7001C5.63509 28.6593 6.04711 28.287 6.13806 27.7919C6.64305 25.0463 7.70501 22.4851 9.29443 20.179C9.5801 19.7645 9.55205 19.21 9.22619 18.8263L7.33595 16.6014L10.8124 13.125L13.0376 15.0156C13.4212 15.3414 13.9757 15.3696 14.39 15.0839C16.6974 13.4943 19.2586 12.4324 22.0025 11.928C22.4976 11.8369 22.87 11.425 22.9108 10.9233L23.1472 8.01572H28.0637L28.3 10.9233C28.3409 11.425 28.7131 11.8371 29.2083 11.928C29.5842 11.997 29.9606 12.0779 30.334 12.1694C30.2992 12.5615 30.2814 12.9582 30.2814 13.3592C30.2814 14.2981 30.3797 15.2288 30.5722 16.137C28.9708 15.6173 27.2855 15.3472 25.6055 15.3472C16.757 15.3472 9.55806 22.5461 9.55806 31.3947C9.55806 33.8317 10.0908 36.1728 11.1413 38.3528C11.3332 38.7509 11.7307 38.983 12.145 38.983C12.3071 38.983 12.4717 38.9475 12.6275 38.8724C13.1813 38.6054 13.414 37.94 13.147 37.3861C12.243 35.51 11.7845 33.4942 11.7845 31.3946C11.7845 23.7737 17.9845 17.5737 25.6054 17.5737C27.6219 17.5737 29.6475 18.0255 31.474 18.8815C31.6333 19.2323 31.8079 19.5767 31.9979 19.9136C31.6853 21.0786 31.3728 22.2438 31.06 23.411C30.8664 24.137 31.0703 24.8851 31.6052 25.4124C32.1321 25.9316 32.899 26.1309 33.6079 25.9342L37.0854 25.0016C37.4225 25.1917 37.7672 25.3665 38.1182 25.5259C38.9742 27.3525 39.4261 29.3781 39.4261 31.3946C39.4261 39.0154 33.2262 45.2154 25.6052 45.2154C23.5053 45.2154 21.4892 44.7568 19.613 43.8526C19.0592 43.5857 18.3936 43.8182 18.1267 44.3722C17.8598 44.926 18.0923 45.5914 18.6463 45.8584C20.8266 46.9092 23.1679 47.4421 25.6053 47.4421C34.4539 47.4421 41.6528 40.2433 41.6528 31.3947C41.6528 29.7148 41.3827 28.0295 40.863 26.4279C41.7712 26.6204 42.7018 26.7186 43.6408 26.7186C44.0419 26.7186 44.4389 26.7008 44.8311 26.666C44.9226 27.0394 45.0034 27.4157 45.0726 27.7918ZM43.6408 24.4921C41.5835 24.4921 39.5742 23.9266 37.8297 22.8566C37.6529 22.7482 37.4513 22.6923 37.2475 22.6923C37.151 22.6923 37.0541 22.7049 36.9591 22.7303L33.2834 23.7161C33.6118 22.4901 33.9404 21.2652 34.2691 20.0403C34.3483 19.745 34.3027 19.4303 34.1428 19.1697C33.0732 17.4254 32.5076 15.4161 32.5076 13.3593C32.5076 7.22073 37.5018 2.22656 43.6405 2.22656C49.7792 2.22656 54.7732 7.22073 54.7732 13.3593C54.7732 19.498 49.7794 24.4921 43.6408 24.4921Z" fill="#717580"/>
</svg>
