<svg width="40" height="44" viewBox="0 0 40 44" fill="none" xmlns="http://www.w3.org/2000/svg">
<path d="M26.75 15.25L17.75 24.25L13.25 19.75M38 17.8713C38 32.6493 26.822 39.2755 22.0835 41.4198L22.0768 41.4242C21.5795 41.6492 21.3297 41.7618 20.7627 41.8585C20.4027 41.9215 19.5973 41.9215 19.2395 41.8585C18.7784 41.7819 18.332 41.6338 17.9165 41.4198C13.178 39.2755 2 32.6493 2 17.8713V8.95C2 6.43 2 5.17 2.4905 4.207C2.9225 3.35875 3.60875 2.6725 4.457 2.2405C5.42 1.75 6.68 1.75 9.2 1.75H30.8C33.32 1.75 34.58 1.75 35.5407 2.2405C36.389 2.6725 37.0775 3.35875 37.5095 4.207C38 5.16775 38 6.42775 38 8.94325V17.8713Z" stroke="#717580" stroke-width="3" stroke-linecap="round" stroke-linejoin="round"/>
</svg>
