<svg width="48" height="49" viewBox="0 0 48 49" fill="none" xmlns="http://www.w3.org/2000/svg">
<path d="M24.0098 34.6006H13.5098C13.1119 34.6006 12.7304 34.7586 12.4491 35.0399C12.1678 35.3212 12.0098 35.7028 12.0098 36.1006V45.1006C12.0098 45.4984 12.1678 45.8799 12.4491 46.1612C12.7304 46.4426 13.1119 46.6006 13.5098 46.6006H22.5098C22.9076 46.6006 23.2891 46.4426 23.5704 46.1612C23.8517 45.8799 24.0098 45.4984 24.0098 45.1006V34.6006Z" stroke="#244E93" stroke-width="3" stroke-linecap="round" stroke-linejoin="round"/>
<path d="M34.5098 34.6006H24.0098V45.1006C24.0098 45.4984 24.1678 45.8799 24.4491 46.1612C24.7304 46.4426 25.1119 46.6006 25.5098 46.6006H34.5098C34.9076 46.6006 35.2891 46.4426 35.5704 46.1612C35.8517 45.8799 36.0098 45.4984 36.0098 45.1006V36.1006C36.0098 35.7028 35.8517 35.3212 35.5704 35.0399C35.2891 34.7586 34.9076 34.6006 34.5098 34.6006ZM28.5098 22.6006H19.5098C19.1119 22.6006 18.7304 22.7586 18.4491 23.0399C18.1678 23.3212 18.0098 23.7028 18.0098 24.1006V34.6006H30.0098V24.1006C30.0098 23.7028 29.8517 23.3212 29.5704 23.0399C29.2891 22.7586 28.9076 22.6006 28.5098 22.6006Z" stroke="#244E93" stroke-width="3" stroke-linecap="round" stroke-linejoin="round"/>
<path d="M46.5098 46.6005V15.4005C46.51 14.8567 46.3623 14.323 46.0826 13.8566C45.8029 13.3901 45.4016 13.0085 44.9218 12.7525L25.4218 2.35253C24.9875 2.12107 24.5029 2 24.0108 2C23.5186 2 23.0341 2.12107 22.5998 2.35253L3.09977 12.7525C2.61953 13.0082 2.21788 13.3897 1.9378 13.8562C1.65772 14.3226 1.50977 14.8565 1.50977 15.4005V46.6005" stroke="#244E93" stroke-width="3" stroke-linecap="round" stroke-linejoin="round"/>
</svg>
