<svg width="54" height="54" viewBox="0 0 54 54" fill="none" xmlns="http://www.w3.org/2000/svg">
<path d="M18 42.75C19.1935 42.75 20.3381 42.2759 21.182 41.432C22.0259 40.5881 22.5 39.4435 22.5 38.25C22.5 37.0565 22.0259 35.9119 21.182 35.068C20.3381 34.2241 19.1935 33.75 18 33.75C16.8065 33.75 15.6619 34.2241 14.818 35.068C13.9741 35.9119 13.5 37.0565 13.5 38.25C13.5 39.4435 13.9741 40.5881 14.818 41.432C15.6619 42.2759 16.8065 42.75 18 42.75ZM40.5 42.75C41.6935 42.75 42.8381 42.2759 43.682 41.432C44.5259 40.5881 45 39.4435 45 38.25C45 37.0565 44.5259 35.9119 43.682 35.068C42.8381 34.2241 41.6935 33.75 40.5 33.75C39.3065 33.75 38.1619 34.2241 37.318 35.068C36.4741 35.9119 36 37.0565 36 38.25C36 39.4435 36.4741 40.5881 37.318 41.432C38.1619 42.2759 39.3065 42.75 40.5 42.75Z" stroke="#244E93" stroke-width="3" stroke-miterlimit="1.5" stroke-linecap="round" stroke-linejoin="round"/>
<path d="M22.6125 38.25H33.75V14.85C33.75 14.492 33.6078 14.1486 33.3546 13.8954C33.1014 13.6422 32.758 13.5 32.4 13.5H2.25M12.7125 38.25H8.1C7.92272 38.25 7.74717 38.2151 7.58338 38.1472C7.41959 38.0794 7.27076 37.98 7.14541 37.8546C7.02005 37.7292 6.92061 37.5804 6.85276 37.4166C6.78492 37.2528 6.75 37.0773 6.75 36.9V25.875" stroke="#244E93" stroke-width="3" stroke-linecap="round"/>
<path d="M4.5 20.25H13.5" stroke="#244E93" stroke-width="3" stroke-linecap="round" stroke-linejoin="round"/>
<path d="M33.75 20.25H46.3725C46.6335 20.2501 46.8888 20.3258 47.1076 20.4679C47.3264 20.6101 47.4994 20.8126 47.6055 21.051L51.633 30.114C51.7097 30.2861 51.7496 30.4723 51.75 30.6607V36.9C51.75 37.0773 51.7151 37.2528 51.6472 37.4166C51.5794 37.5804 51.48 37.7292 51.3546 37.8546C51.2292 37.98 51.0804 38.0794 50.9166 38.1472C50.7528 38.2151 50.5773 38.25 50.4 38.25H46.125M33.75 38.25H36" stroke="#244E93" stroke-width="3" stroke-linecap="round"/>
</svg>
